<svg width="24" height="24" viewBox="0 0 24 24" fill="none" xmlns="http://www.w3.org/2000/svg">
<path fill-rule="evenodd" clip-rule="evenodd" d="M17.625 4.5H16.6875C16.6875 3.98438 16.2656 3.5625 15.75 3.5625C15.2344 3.5625 14.8125 3.98438 14.8125 4.5H9.1875C9.1875 3.98438 8.76563 3.5625 8.25 3.5625C7.73437 3.5625 7.3125 3.98438 7.3125 4.5H6.375C4.82437 4.5 3.5625 5.76188 3.5625 7.3125V18.5625C3.5625 20.1131 4.82437 21.375 6.375 21.375H17.625C19.1756 21.375 20.4375 20.1131 20.4375 18.5625V7.3125C20.4375 5.76188 19.1756 4.5 17.625 4.5Z" fill="#F38434"/>
<path fill-rule="evenodd" clip-rule="evenodd" d="M18.5625 10.0625C18.5625 10.6148 18.1148 11.0625 17.5625 11.0625H6.4375C5.88522 11.0625 5.4375 10.6148 5.4375 10.0625V7.3125C5.4375 6.79594 5.85844 6.375 6.375 6.375H7.3125V7.3125C7.3125 7.82813 7.73438 8.25 8.25 8.25C8.76563 8.25 9.1875 7.82813 9.1875 7.3125V6.375H14.8125V7.3125C14.8125 7.82813 15.2344 8.25 15.75 8.25C16.2656 8.25 16.6875 7.82813 16.6875 7.3125V6.375H17.625C18.1416 6.375 18.5625 6.79594 18.5625 7.3125V10.0625Z" fill="white"/>
<path fill-rule="evenodd" clip-rule="evenodd" d="M13.875 16.6875H10.125C9.60937 16.6875 9.1875 16.2656 9.1875 15.75C9.1875 15.2344 9.60937 14.8125 10.125 14.8125H13.875C14.3906 14.8125 14.8125 15.2344 14.8125 15.75C14.8125 16.2656 14.3906 16.6875 13.875 16.6875V16.6875Z" fill="white"/>
</svg>
