<svg width="20" height="16" viewBox="0 0 20 16" fill="none" xmlns="http://www.w3.org/2000/svg">
<path d="M17 2H15.414L14.414 1C13.835 0.421 12.819 0 12 0H8C7.181 0 6.165 0.421 5.586 1L4.586 2H3C1.346 2 0 3.346 0 5V13C0 14.654 1.346 16 3 16H17C18.654 16 20 14.654 20 13V5C20 3.346 18.654 2 17 2ZM10 12C8.067 12 6.5 10.432 6.5 8.5C6.5 6.566 8.067 5 10 5C11.933 5 13.5 6.566 13.5 8.5C13.5 10.432 11.933 12 10 12ZM16 7.299C15.281 7.299 14.7 6.719 14.7 6C14.7 5.281 15.281 4.699 16 4.699C16.719 4.699 17.3 5.281 17.3 6C17.3 6.719 16.719 7.299 16 7.299Z" fill="#F38434"/>
</svg>
