<svg width="24" height="24" viewBox="0 0 24 24" fill="none" xmlns="http://www.w3.org/2000/svg">
<path fill-rule="evenodd" clip-rule="evenodd" d="M11.1 4C11.1 3.44772 10.6523 3 10.1 3H7C5.89543 3 5 3.89543 5 5V21C5 22.1046 5.89543 23 7 23H17C18.1046 23 19 22.1046 19 21V11.9C19 11.3477 18.5523 10.9 18 10.9H14C12.3984 10.9 11.1 9.60163 11.1 8V4ZM9.5 14.1C9.00294 14.1 8.6 14.5029 8.6 15C8.6 15.4971 9.00294 15.9 9.5 15.9H12C12.4971 15.9 12.9 15.4971 12.9 15C12.9 14.5029 12.4971 14.1 12 14.1H9.5ZM9.5 17.6C9.00294 17.6 8.6 18.0029 8.6 18.5C8.6 18.9971 9.00294 19.4 9.5 19.4H14.5C14.9971 19.4 15.4 18.9971 15.4 18.5C15.4 18.0029 14.9971 17.6 14.5 17.6H9.5Z" fill="#F38434"/>
<path d="M16.8929 9.1C17.3383 9.1 17.5614 8.56143 17.2464 8.24645L13.7536 4.75355C13.4386 4.43857 12.9 4.66165 12.9 5.10711V8C12.9 8.60751 13.3925 9.1 14 9.1H16.8929Z" fill="#F38434"/>
<path d="M16.8928 9.10002C17.3382 9.10002 17.5613 8.56145 17.2463 8.24647L13.7535 4.75358C13.4385 4.4386 12.8999 4.66168 12.8999 5.10713V8.00002C12.8999 8.60754 13.3924 9.10002 13.9999 9.10002H16.8928Z" fill="#E16205"/>
</svg>
