<svg width="20" height="20" viewBox="0 0 20 20" fill="none" xmlns="http://www.w3.org/2000/svg">
<circle cx="10" cy="10" r="8.5" stroke="#ECEAEA" stroke-width="3"/>
<mask id="path-2-inside-1_1154_2359" fill="white">
<path d="M17.3617 14.2503C18.0788 14.6643 19.0077 14.4211 19.31 13.6501C19.7644 12.4913 20 11.2535 20 10C20 8.24463 19.5379 6.52019 18.6603 5C17.7826 3.47981 16.5202 2.21743 15 1.33975C13.9144 0.712986 12.7247 0.298171 11.4939 0.112214C10.675 -0.011506 10 0.671348 10 1.4995C10 2.32765 10.6789 2.98294 11.4881 3.15897C12.1921 3.31212 12.8713 3.57369 13.5005 3.93695C14.5648 4.55142 15.4486 5.43521 16.063 6.4995C16.6775 7.56379 17.001 8.77107 17.001 10C17.001 10.7265 16.8879 11.4455 16.6685 12.1318C16.4164 12.9206 16.6445 13.8362 17.3617 14.2503Z"/>
</mask>
<path d="M17.3617 14.2503C18.0788 14.6643 19.0077 14.4211 19.31 13.6501C19.7644 12.4913 20 11.2535 20 10C20 8.24463 19.5379 6.52019 18.6603 5C17.7826 3.47981 16.5202 2.21743 15 1.33975C13.9144 0.712986 12.7247 0.298171 11.4939 0.112214C10.675 -0.011506 10 0.671348 10 1.4995C10 2.32765 10.6789 2.98294 11.4881 3.15897C12.1921 3.31212 12.8713 3.57369 13.5005 3.93695C14.5648 4.55142 15.4486 5.43521 16.063 6.4995C16.6775 7.56379 17.001 8.77107 17.001 10C17.001 10.7265 16.8879 11.4455 16.6685 12.1318C16.4164 12.9206 16.6445 13.8362 17.3617 14.2503Z" stroke="#F38434" stroke-width="6" mask="url(#path-2-inside-1_1154_2359)"/>
</svg>
