<svg width="20" height="23" viewBox="0 0 20 23" fill="none" xmlns="http://www.w3.org/2000/svg">
<path d="M11.225 7.50435H7.78152C7.265 7.50435 6.92065 7.16 6.92065 6.64348V2.58261C6.92065 1.11913 8.03978 0 9.50326 0C10.9667 0 12.0859 1.11913 12.0859 2.58261V6.64348C12.0859 7.16 11.7415 7.50435 11.225 7.50435Z" fill="#C5BEBE"/>
<path d="M17 13L16.7414 11.4C16.3965 10 15.3621 9 14.1552 9H4.84483C3.63793 9 2.60345 10 2.34483 11.4L2 13H17Z" fill="#9E9494"/>
<path d="M1.66942 14.3913L0.0337724 21.967C-0.0523146 22.2253 0.0337722 22.4835 0.205946 22.6557C0.37812 22.914 0.636381 23 0.894642 23H4.33812V19.6957C4.33812 19.1792 4.68247 18.8348 5.19899 18.8348C5.71551 18.8348 6.05986 19.1792 6.05986 19.6957V23H12.9468V21.4174C12.9468 20.9009 13.2912 20.5566 13.8077 20.5566C14.3242 20.5566 14.6686 20.9009 14.6686 21.4174V23H18.112C18.3703 23 18.6286 22.914 18.8007 22.6557C18.9729 22.4835 19.059 22.2253 18.9729 21.967L17.3373 14.3913H1.66942Z" fill="#C5BEBE"/>
</svg>
