<svg width="310" height="235" viewBox="0 0 310 235" fill="none" xmlns="http://www.w3.org/2000/svg">
<g clip-path="url(#clip0_245_6216)">
<path d="M186.648 151.161C228.299 151.161 262.064 117.373 262.064 75.695C262.064 34.0166 228.299 0.229492 186.648 0.229492C144.996 0.229492 111.231 34.0166 111.231 75.695C111.231 117.373 144.996 151.161 186.648 151.161Z" fill="#F08537"/>
<path d="M117.439 79.8359C117.439 104.712 129.467 126.777 148.021 140.523C125.987 127.35 111.23 103.248 111.23 75.6952C111.23 34.0162 144.995 0.227539 186.648 0.227539C203.444 0.227539 218.959 5.72092 231.493 15.0134C220.193 8.25327 206.977 4.37041 192.855 4.37041C151.202 4.37041 117.439 38.1569 117.439 79.8359Z" fill="url(#paint0_linear_245_6216)"/>
<path d="M234.879 123.959C261.518 97.3032 261.518 54.0855 234.879 27.4296C208.24 0.773709 165.051 0.773702 138.412 27.4296C111.773 54.0855 111.773 97.3032 138.412 123.959C165.051 150.615 208.24 150.615 234.879 123.959Z" fill="#EFE6DB"/>
<path d="M187.618 12.8057H185.677V19.8612H187.618V12.8057Z" fill="#B49A92"/>
<path d="M187.618 131.527H185.677V138.583H187.618V131.527Z" fill="#AB8484"/>
<path d="M249.495 76.6642V74.7217H242.444V76.6642H249.495Z" fill="#B49A92"/>
<path d="M130.851 76.6642V74.7217H123.8V76.6642H130.851Z" fill="#AB8484"/>
<path d="M230.404 120.858L231.777 119.484L226.791 114.495L225.419 115.869L230.404 120.858Z" fill="#AB8484"/>
<path d="M146.508 36.9009L147.881 35.5273L142.895 30.5383L141.522 31.9119L146.508 36.9009Z" fill="#B49A92"/>
<path d="M141.525 119.48L142.898 120.854L147.883 115.865L146.511 114.491L141.525 119.48Z" fill="#AB8484"/>
<path d="M225.416 35.5288L226.789 36.9023L231.775 31.9134L230.402 30.5399L225.416 35.5288Z" fill="#B49A92"/>
<path d="M186.647 135.146C170.778 135.146 155.858 128.962 144.636 117.734C133.415 106.505 127.234 91.5754 127.234 75.6948C127.234 59.8153 133.415 44.8855 144.636 33.6559C155.857 22.4274 170.777 16.2432 186.647 16.2432C202.518 16.2432 217.437 22.4274 228.659 33.6559C239.88 44.8844 246.06 59.8142 246.06 75.6948C246.06 91.5744 239.88 106.504 228.659 117.734C217.437 128.962 202.517 135.146 186.647 135.146ZM186.647 16.4247C153.988 16.4247 127.416 43.0128 127.416 75.6948C127.416 108.376 153.987 134.965 186.647 134.965C219.308 134.965 245.879 108.377 245.879 75.6948C245.879 43.0139 219.307 16.4247 186.647 16.4247Z" fill="#AB8484"/>
<path d="M152.847 40.9541C153.62 41.6106 154.375 42.2853 155.14 42.9503L157.403 44.9755C158.913 46.3239 160.4 47.6948 161.886 49.0679C164.854 51.8162 167.785 54.5989 170.699 57.3998C173.601 60.2115 176.496 63.0307 179.353 65.8864C180.788 67.3078 182.21 68.7422 183.631 70.1765C185.058 71.6065 186.466 73.0548 187.88 74.4966L186.649 73.9766C190.979 73.9637 195.309 73.9916 199.639 74.04C203.97 74.1023 208.3 74.1786 212.63 74.3129C216.96 74.4407 221.29 74.603 225.621 74.8243C227.786 74.9382 229.951 75.0542 232.117 75.2014L235.365 75.4249C236.447 75.5151 237.53 75.5903 238.613 75.6945C237.53 75.7988 236.447 75.874 235.365 75.9642L232.117 76.1877C229.951 76.3349 227.786 76.452 225.621 76.5648C221.29 76.7861 216.96 76.9483 212.63 77.0762C208.3 77.2105 203.97 77.2868 199.639 77.3491C195.309 77.3974 190.979 77.4254 186.649 77.4125L185.917 77.4103L185.417 76.8925C184.015 75.4388 182.605 73.9927 181.216 72.5272C179.821 71.0671 178.426 69.606 177.044 68.1319C174.268 65.1977 171.529 62.227 168.798 59.2478C166.079 56.2588 163.377 53.2516 160.711 50.2089C159.38 48.6865 158.051 47.1619 156.744 45.6159L154.782 43.2984C154.136 42.5173 153.483 41.7449 152.847 40.9541Z" fill="#725C53"/>
<path opacity="0.69" d="M234.421 35.4754C224.273 28.3135 211.892 24.1051 198.53 24.1051C164.103 24.1051 136.193 52.0329 136.193 86.4824C136.193 102.04 141.886 116.267 151.3 127.193C135.298 115.901 124.846 97.2628 124.846 76.18C124.846 41.7306 152.755 13.8027 187.182 13.8027C206.065 13.8027 222.988 22.2056 234.421 35.4754Z" fill="white"/>
</g>
<g clip-path="url(#clip1_245_6216)">
<path d="M288.019 234.36C290.643 229.313 297.245 213.416 298.576 194.746C301.077 159.749 283.139 132.292 257.25 118.558C246.301 112.732 235.208 111.068 223.091 112.531C211.315 113.947 201.537 117.848 194.631 117.356C181 116.385 175.158 90.492 145.124 75.7565C123.091 64.947 89.026 62.4396 65.2833 68.8742C40.6763 75.5415 23.2808 92.4064 32.5751 125.035C34.8228 132.927 38.3334 140.703 42.2209 147.864C64.471 188.907 6.37146 176.934 0.479893 217.206C-0.417422 223.335 0.0420196 228.333 1.04722 234.36H288.019Z" fill="#E9E9E9"/>
<path d="M65.4165 68.4714C40.846 75.1423 23.4709 91.9833 32.7083 124.565C33.2806 124.509 33.8371 124.346 34.3483 124.083C37.9453 122.272 40.5518 119.671 42.6521 116.962C42.9286 113.067 42.1651 108.153 42.1651 108.153C42.6471 109.393 44.5382 111.102 45.9169 112.23C48.8417 107.677 51.0727 104.028 55.1872 104.953C62.8189 106.668 72.31 104.33 74.9874 96.5511C73.2803 93.5438 70.2172 91.5938 70.2172 91.5938C72.4571 91.8113 74.5651 92.6927 76.1366 93.54C79.5167 87.1461 87.7585 85.32 87.7585 85.32C88.1364 85.2137 88.5034 85.0957 88.8594 84.9659C88.8366 80.345 87.6671 75.9871 87.6671 75.9871C90.8976 77.6715 92.4032 80.3892 93.1134 82.4771C98.3023 77.9245 98.9301 69.2315 98.5597 65.0367C86.8021 64.6801 75.2284 65.8107 65.4165 68.4714Z" fill="#DEDEDE"/>
<path d="M257.257 118.166C246.603 112.493 235.816 110.767 224.078 112.029V175.133L257.3 118.188L257.257 118.166Z" fill="#F4F4F4"/>
<path d="M230.527 221.3C231.034 228.806 238.606 232.167 238.606 232.167H288.896C289.168 231.578 289.5 230.847 289.868 229.986C294.129 220.011 303.801 192.553 295.655 164.754C292.565 166.155 288.653 168.295 284.953 171.33C288.229 174.16 290.696 178.193 290.696 178.193C286.742 175.606 283.522 174.863 281.273 174.779C278.407 177.848 275.936 181.592 274.46 186.108C268.652 203.885 257.04 202.043 246.683 204.979C246.12 205.138 245.567 205.308 245.034 205.485C248.232 207.933 251.603 211.934 251.603 211.934C245.163 209.012 240.469 208.689 237.661 208.935C235.823 210.14 234.301 211.502 233.139 213.003C236.818 212.345 242.652 213.107 243.988 213.22C239.584 212.892 233.364 215.417 231.186 216.517C230.637 218.049 230.412 219.678 230.527 221.3Z" fill="#C8C8C8"/>
<path d="M289.856 230.354H222.512V112.359C221.02 112.552 219.562 112.782 218.137 113.037V230.354H69.2826V67.6094C68.0151 67.8932 66.7708 68.2002 65.5498 68.5305L64.9097 68.7079V234.36H287.995C288.36 233.672 289.06 232.219 289.856 230.354Z" fill="#D8D8D8"/>
<path d="M258.184 169.146C260.451 169.711 274.988 169.526 274.611 171.406C274.233 173.287 264.414 176.301 258.94 174.606C258.94 174.606 264.981 189.477 272.911 188.725C280.841 187.973 283.295 183.077 288.205 182.7C293.115 182.324 296.703 183.641 294.246 184.959C291.789 186.277 283.484 185.393 279.519 188.753C275.554 192.113 272.345 194.191 279.708 195.692C285.003 196.774 293.325 196.592 298.565 194.301C298.948 189.112 298.881 183.9 298.364 178.723C298.26 177.694 298.133 176.661 297.984 175.624C297.47 171.947 296.69 168.312 295.65 164.748C294.409 160.494 292.776 156.363 290.773 152.409C286.594 150.86 282.013 149.5 279.331 149.753C279.331 149.753 288.581 165.378 285.56 165.002C282.539 164.626 272.155 148.815 272.155 148.815C272.155 148.815 256.864 145.992 254.409 155.028C251.955 164.064 255.919 168.582 258.184 169.146Z" fill="#B49A92"/>
<path d="M111.048 65.958L70.2474 132.54V172.363L131.443 70.0819C125.01 68.1762 118.093 66.8002 111.048 65.958Z" fill="#F4F4F4"/>
<path d="M139.365 228.768H169.988L214.87 148.288L214.277 113.638C210.218 114.494 206.481 115.446 203.115 116.119L139.365 228.768Z" fill="#F3F3F3"/>
<path d="M298.106 199.101C298.021 199.811 297.93 200.514 297.833 201.209C296.793 200.417 295.883 199.809 295.883 199.809C296.58 199.452 297.331 199.213 298.106 199.101Z" fill="#7C7C7C"/>
<path d="M243.106 212.868C243.054 212.868 243.003 212.858 242.951 212.855L243.106 212.868Z" fill="#EEEEEE"/>
<path d="M284.305 206.048C284.305 206.048 292.091 207.593 293.089 206.807C294.087 206.02 286.693 204.188 286.693 204.188C288.24 202.278 294.761 199.934 294.761 199.934C294.761 199.934 296.146 201.436 297.599 202.761C297.384 204.14 297.148 205.489 296.892 206.808C296.846 207.048 296.799 207.285 296.752 207.52C295.934 211.604 294.946 215.361 293.933 218.672C291.349 218.871 288.156 217.557 288.156 217.557C290.27 216.419 292.248 212.615 291.795 211.951C291.343 211.287 287.133 215.672 286.297 216.182C285.461 216.691 282.946 216.546 280.959 213.163C278.971 209.78 284.305 206.048 284.305 206.048Z" fill="#7C7C7C"/>
<path d="M156.227 123.63H179.07C183.039 123.63 186.969 124.409 190.636 125.924C194.303 127.438 197.635 129.658 200.442 132.456C203.248 135.255 205.475 138.577 206.994 142.233C208.513 145.89 209.294 149.808 209.294 153.766V199.545H148.845V130.991C148.845 130.025 149.035 129.067 149.406 128.174C149.777 127.281 150.321 126.47 151.006 125.786C151.692 125.102 152.506 124.56 153.401 124.19C154.297 123.82 155.257 123.63 156.227 123.63Z" fill="#F08537"/>
<path d="M148.845 199.55H88.3939V153.771C88.3939 145.778 91.5783 138.113 97.2466 132.461C102.915 126.81 110.603 123.635 118.619 123.635H141.462C142.431 123.635 143.391 123.825 144.287 124.195C145.182 124.565 145.996 125.107 146.681 125.79C147.367 126.474 147.911 127.285 148.282 128.178C148.653 129.071 148.844 130.028 148.844 130.995V199.55H148.845Z" fill="#F08537"/>
<path d="M78.4514 139.203C79.7576 139.203 81.051 139.46 82.2578 139.958C83.4645 140.457 84.5608 141.188 85.4841 142.109C86.4075 143.03 87.1397 144.124 87.639 145.327C88.1383 146.531 88.3949 147.82 88.394 149.123V197.937C88.393 200.566 87.345 203.086 85.4806 204.945C83.6161 206.803 81.0877 207.847 78.4514 207.847C75.8151 207.847 73.2868 206.803 71.4223 204.945C69.5578 203.086 68.5098 200.566 68.5088 197.937V149.123C68.508 147.82 68.7645 146.531 69.2638 145.327C69.7631 144.124 70.4953 143.03 71.4187 142.109C72.342 141.188 73.4384 140.457 74.6451 139.958C75.8518 139.46 77.1452 139.203 78.4514 139.203Z" fill="#D5722B"/>
<path d="M219.221 139.203C220.527 139.203 221.82 139.46 223.027 139.958C224.234 140.457 225.33 141.188 226.253 142.109C227.177 143.03 227.909 144.124 228.408 145.327C228.907 146.531 229.164 147.82 229.163 149.123V197.937C229.163 200.566 228.116 203.088 226.251 204.947C224.386 206.806 221.857 207.851 219.221 207.851C216.583 207.851 214.054 206.806 212.19 204.947C210.325 203.088 209.277 200.566 209.277 197.937V149.123C209.276 147.82 209.533 146.531 210.032 145.327C210.532 144.124 211.264 143.03 212.187 142.109C213.111 141.188 214.207 140.457 215.414 139.958C216.621 139.46 217.914 139.203 219.221 139.203Z" fill="#D5722B"/>
<path d="M209.278 199.668H88.4117V234.361H209.278V199.668Z" fill="#A24706"/>
<path d="M55.9568 189.72C55.9568 185.531 57.6665 181.515 60.7097 178.553C63.7529 175.592 67.8804 173.928 72.1842 173.928C76.488 173.928 80.6155 175.592 83.6588 178.553C86.702 181.515 88.4117 185.531 88.4117 189.72V234.361H68.4695V205.096C64.9087 204.28 61.7354 202.317 59.4642 199.526C57.193 196.736 55.9571 193.28 55.9568 189.72Z" fill="#C96721"/>
<path d="M241.733 189.72C241.733 185.531 240.023 181.515 236.98 178.553C233.937 175.592 229.809 173.928 225.506 173.928C221.202 173.928 217.074 175.592 214.031 178.553C210.988 181.515 209.278 185.531 209.278 189.72V234.361H229.22V205.096C232.781 204.28 235.954 202.317 238.226 199.526C240.497 196.736 241.733 193.28 241.733 189.72Z" fill="#C96721"/>
<path d="M224.685 193.505C226.47 193.505 227.918 192.061 227.918 190.281C227.918 188.501 226.47 187.058 224.685 187.058C222.899 187.058 221.452 188.501 221.452 190.281C221.452 192.061 222.899 193.505 224.685 193.505Z" fill="#DAAD8C"/>
<path d="M71.7353 193.505C73.5208 193.505 74.9683 192.061 74.9683 190.281C74.9683 188.501 73.5208 187.058 71.7353 187.058C69.9497 187.058 68.5022 188.501 68.5022 190.281C68.5022 192.061 69.9497 193.505 71.7353 193.505Z" fill="#DAAD8C"/>
<path d="M225.385 182.032C225.385 182.032 223.137 186.704 225.274 190.159C227.411 193.614 223.879 190.682 223.879 190.682C223.879 190.682 222.069 187.002 225.385 182.032Z" fill="#DAAD8C"/>
<path d="M148.845 130.991L149.479 196.698L148.49 195.712L148.845 130.991Z" fill="white" fill-opacity="0.36"/>
<path d="M144.349 191.749H92.8903C90.4071 191.749 88.394 193.756 88.394 196.232V202.865C88.394 205.341 90.4071 207.348 92.8903 207.348H144.349C146.832 207.348 148.845 205.341 148.845 202.865V196.232C148.845 193.756 146.832 191.749 144.349 191.749Z" fill="#C96721"/>
<path d="M204.799 191.749H153.341C150.858 191.749 148.845 193.756 148.845 196.232V202.865C148.845 205.341 150.858 207.348 153.341 207.348H204.799C207.283 207.348 209.296 205.341 209.296 202.865V196.232C209.296 193.756 207.283 191.749 204.799 191.749Z" fill="#C96721"/>
<path d="M51.7642 168.124C51.7642 168.124 56.5966 171.706 57.539 171.49C58.4814 171.274 54.0079 167.622 54.0079 167.622C55.691 166.815 60.9242 167.321 60.9242 167.321C60.9242 167.321 62.6669 172.925 63.5269 172.484C64.3868 172.043 61.7296 167.6 61.7296 167.6C63.6042 167.488 65.9038 168.875 65.9038 168.875C69.0531 171.355 65.697 175.257 65.697 175.257C65.697 175.257 66.3439 177.186 68.3314 178.944C68.3314 178.944 71.1712 181.037 71.3691 184.779L70.8529 184.824C70.8529 184.824 70.036 181.339 68.5508 179.691C68.4937 179.632 68.41 179.547 68.3073 179.438C68.0638 179.214 67.8951 179.046 67.7809 178.921C67.0415 178.213 66.0205 177.312 65.5296 177.225C65.5474 177.142 65.5542 177.057 65.5499 176.972C65.5499 177.052 65.5359 177.133 65.5296 177.225C65.3609 179.197 61.5229 180.92 59.1612 181.272C56.7995 181.623 57.5301 180.659 58.3431 179.223C59.1561 177.788 61.7322 177.147 62.3194 176.485C62.9066 175.824 61.6916 175.823 60.2698 176.471C58.8479 177.12 58.6526 178.846 56.3696 179.936C54.0865 181.027 50.6531 177.249 50.6531 177.249C52.4719 177.158 55.0695 175.188 54.9756 174.586C54.8818 173.984 50.5669 175.625 49.83 175.704C49.093 175.782 47.4137 174.868 47.1537 171.91C46.8937 168.952 51.7642 168.124 51.7642 168.124Z" fill="#7C7C7C"/>
<path d="M77.4278 170.348C77.4278 170.348 72.0905 167.367 74.5816 163.323C74.5816 163.323 76.5742 160.839 78.7088 160.2C78.7088 160.2 77.5673 166.231 78.7088 166.374C79.8504 166.517 79.4914 159.562 79.4914 159.562C79.4914 159.562 85.114 156.866 87.3197 157.078C87.3197 157.078 83.833 162.967 84.972 162.826C86.111 162.684 90.0239 156.724 90.0239 156.724C90.0239 156.724 95.7885 155.659 96.7132 159.066C97.6378 162.473 96.1437 164.174 95.2901 164.388C94.4365 164.601 88.9572 164.529 89.0992 165.239C89.2413 165.948 92.9423 167.084 95.006 166.445C95.006 166.445 92.7229 172.05 89.7397 171.767C86.7566 171.483 85.8256 169.637 83.9751 169.49C82.1245 169.344 80.7724 169.846 81.6984 170.343C82.6243 170.84 85.7571 170.505 87.2487 171.772C88.7403 173.039 89.9528 173.819 87.1777 174.387C84.4025 174.955 79.4204 174.599 78.426 172.471L77.4278 170.348Z" fill="#C9B3AC"/>
<path d="M76.005 175.53C77.4991 172.763 77.4281 170.345 77.4281 170.345C79.1365 164.951 94.0802 160.127 94.0802 160.127C75.0804 167.791 78.425 172.473 78.425 172.473C77.9177 172.771 77.1452 174.191 76.6125 175.281C76.5364 175.466 76.4159 175.722 76.232 176.071C76.1597 176.228 76.1052 176.357 76.0621 176.451C75.0842 178.891 75.6017 183.106 75.6017 183.106L75.0144 183.27C73.7004 179.02 76.005 175.53 76.005 175.53Z" fill="#A8866D"/>
<path d="M68.9388 166.241C68.9388 166.241 75.9744 162.311 72.6906 156.981C72.6906 156.981 70.0639 153.707 67.2494 152.865C67.2494 152.865 68.7511 160.815 67.2494 161.003C65.7477 161.19 66.2182 152.024 66.2182 152.024C66.2182 152.024 58.806 148.469 55.8976 148.745C55.8976 148.745 60.4941 156.508 58.9937 156.321C57.4932 156.134 52.3336 148.277 52.3336 148.277C52.3336 148.277 44.7348 146.874 43.516 151.364C42.2971 155.853 44.2656 158.098 45.3918 158.378C46.5181 158.659 53.7402 158.566 53.5524 159.501C53.3647 160.437 48.4866 161.933 45.7673 161.091C45.7673 161.091 48.7682 168.48 52.709 168.106C56.6498 167.732 57.8674 165.3 60.3064 165.113C62.7455 164.925 64.5288 165.58 63.3086 166.236C62.0884 166.891 57.9612 166.449 55.9915 168.12C54.0217 169.79 52.4274 170.819 56.0853 171.566C59.7433 172.313 66.3108 171.847 67.6273 169.037L68.9388 166.241Z" fill="#B49A92"/>
<path d="M46.9863 152.771C46.9863 152.771 66.6864 159.133 68.9377 166.241C68.9377 166.241 68.8439 169.42 70.8136 173.07C70.8136 173.07 73.8577 177.669 72.12 183.268L71.3374 183.059C71.3374 183.059 72.0211 177.504 70.7312 174.287C70.6792 174.168 70.6043 173.998 70.5067 173.791C70.272 173.33 70.1135 172.993 70.0133 172.749C69.3106 171.312 68.2985 169.44 67.6237 169.047C67.6237 169.046 72.0325 162.873 46.9863 152.771Z" fill="#A8866D"/>
<path d="M68.8276 195.19C65.1173 195.19 61.5589 193.775 58.9353 191.257C56.3117 188.738 54.8378 185.322 54.8378 181.761H82.8161C82.8163 183.524 82.4546 185.271 81.7517 186.9C81.0488 188.529 80.0184 190.01 78.7194 191.257C77.4204 192.504 75.8783 193.493 74.1811 194.168C72.4838 194.843 70.6647 195.19 68.8276 195.19Z" fill="#F1A34F"/>
<path d="M66.0291 195.088C67.99 195.323 69.9803 195.153 71.8681 194.591C73.756 194.029 75.4984 193.086 76.9797 191.826C78.4611 190.566 79.6477 189.017 80.4609 187.282C81.2742 185.547 81.6955 183.665 81.6969 181.761H78.2337C78.2336 185.033 76.9934 188.194 74.7461 190.647C72.4989 193.101 69.3991 194.68 66.0291 195.088Z" fill="#FFB973"/>
<path d="M56.9022 194.411H81.446C81.6693 194.411 81.8905 194.455 82.0967 194.54C82.303 194.625 82.4904 194.75 82.6483 194.908C82.8061 195.065 82.9313 195.252 83.0166 195.458C83.102 195.664 83.1458 195.884 83.1456 196.107H55.2026C55.2025 195.884 55.2463 195.664 55.3316 195.458C55.417 195.252 55.5421 195.065 55.7 194.908C55.8578 194.75 56.0452 194.625 56.2515 194.54C56.4578 194.455 56.6789 194.411 56.9022 194.411Z" fill="#F1A34F"/>
<path d="M102.72 234.322C102.5 234.323 102.285 234.26 102.1 234.142C101.915 234.024 101.768 233.855 101.677 233.655L85.9244 199.49C85.8614 199.354 85.8261 199.206 85.8203 199.056C85.8145 198.906 85.8385 198.756 85.8908 198.615C85.9431 198.474 86.0227 198.345 86.1251 198.235C86.2275 198.125 86.3506 198.036 86.4876 197.973C86.6245 197.91 86.7724 197.875 86.923 197.869C87.0736 197.863 87.2239 197.887 87.3652 197.939C87.5065 197.991 87.6362 198.071 87.7467 198.173C87.8573 198.275 87.9466 198.398 88.0096 198.534L103.761 232.701C103.843 232.875 103.879 233.066 103.867 233.258C103.854 233.45 103.793 233.636 103.689 233.797C103.585 233.959 103.442 234.092 103.272 234.184C103.103 234.276 102.913 234.323 102.72 234.322Z" fill="#4F3A31"/>
<path d="M139.424 234.321C139.204 234.321 138.989 234.258 138.804 234.14C138.62 234.022 138.473 233.854 138.381 233.655L122.629 199.49C122.502 199.214 122.49 198.9 122.595 198.615C122.701 198.331 122.915 198.1 123.192 197.973C123.468 197.846 123.784 197.834 124.069 197.939C124.354 198.044 124.586 198.258 124.713 198.534L140.465 232.7C140.547 232.874 140.583 233.066 140.57 233.258C140.558 233.45 140.497 233.635 140.393 233.797C140.289 233.959 140.145 234.092 139.976 234.183C139.806 234.275 139.616 234.323 139.424 234.321Z" fill="#4F3A31"/>
<path d="M137.283 230.137H100.79C100.485 230.137 100.194 230.017 99.9785 229.802C99.7633 229.588 99.6425 229.297 99.6425 228.993C99.6425 228.69 99.7633 228.399 99.9785 228.185C100.194 227.97 100.485 227.85 100.79 227.85H137.283C137.587 227.85 137.879 227.97 138.094 228.185C138.309 228.399 138.43 228.69 138.43 228.993C138.43 229.297 138.309 229.588 138.094 229.802C137.879 230.017 137.587 230.137 137.283 230.137Z" fill="#4F3A31"/>
<path d="M50.2622 234.322C50.0694 234.323 49.8794 234.276 49.71 234.184C49.5405 234.092 49.3971 233.959 49.2931 233.797C49.1892 233.636 49.128 233.45 49.1154 233.258C49.1027 233.066 49.139 232.875 49.2208 232.701L64.9725 198.534C65.0355 198.398 65.1248 198.275 65.2353 198.173C65.3459 198.071 65.4756 197.991 65.6169 197.939C65.7582 197.887 65.9085 197.863 66.0591 197.869C66.2097 197.875 66.3576 197.91 66.4945 197.973C66.6314 198.036 66.7546 198.125 66.857 198.235C66.9594 198.345 67.039 198.474 67.0913 198.615C67.1436 198.756 67.1676 198.906 67.1618 199.056C67.156 199.206 67.1206 199.354 67.0577 199.49L51.3086 233.655C51.2166 233.855 51.0691 234.024 50.8835 234.142C50.698 234.26 50.4823 234.322 50.2622 234.322Z" fill="#4F3A31"/>
<path d="M13.5588 234.321C13.366 234.323 13.176 234.275 13.0066 234.183C12.8371 234.092 12.6937 233.959 12.5898 233.797C12.4858 233.635 12.4246 233.45 12.412 233.258C12.3994 233.066 12.4356 232.874 12.5175 232.7L28.2691 198.534C28.3963 198.258 28.628 198.044 28.9133 197.939C29.1987 197.834 29.5142 197.846 29.7905 197.973C30.0669 198.1 30.2814 198.331 30.3869 198.615C30.4924 198.9 30.4802 199.214 30.3531 199.49L14.6014 233.655C14.5097 233.854 14.3628 234.022 14.178 234.14C13.9932 234.258 13.7783 234.321 13.5588 234.321Z" fill="#4F3A31"/>
<path d="M52.1965 230.137H15.6997C15.3955 230.137 15.1037 230.017 14.8885 229.802C14.6734 229.588 14.5525 229.297 14.5525 228.993C14.5525 228.69 14.6734 228.399 14.8885 228.185C15.1037 227.97 15.3955 227.85 15.6997 227.85H52.1965C52.5007 227.85 52.7925 227.97 53.0077 228.185C53.2228 228.399 53.3437 228.69 53.3437 228.993C53.3437 229.297 53.2228 229.588 53.0077 229.802C52.7925 230.017 52.5007 230.137 52.1965 230.137Z" fill="#4F3A31"/>
<path d="M128.516 199.668H22.5661C21.9239 199.668 21.308 199.491 20.8539 199.176C20.3998 198.862 20.1447 198.435 20.1447 197.99C20.1447 197.545 20.3997 197.118 20.8538 196.803C21.3078 196.488 21.9237 196.311 22.5661 196.311H128.516C129.158 196.311 129.775 196.487 130.229 196.802C130.684 197.117 130.939 197.544 130.939 197.99C130.938 198.435 130.683 198.862 130.228 199.177C129.774 199.491 129.158 199.668 128.516 199.668Z" fill="#725C53"/>
<path d="M209.154 126.52C209.154 126.52 216.544 128.58 216.288 133.56C216.032 138.54 204.716 157.018 203.278 158.619C200.664 161.534 186.687 170.647 186.687 170.647L184.711 168.924C184.711 168.924 195.756 156.051 197.311 154.937C199.751 153.189 206.309 127.761 209.154 126.52Z" fill="#FFC297"/>
<path d="M184.711 168.923C184.711 168.923 182.457 169.617 181.71 169.574C180.963 169.531 179.78 170.414 179.743 170.628C179.706 170.841 181.43 170.41 181.463 170.726C181.496 171.042 180.712 171.738 179.956 171.738C179.2 171.738 180.507 173.238 181.119 173.85C181.278 174.007 181.816 174.643 183.698 173.955C185.58 173.267 186.869 170.323 186.869 170.323L184.711 168.923Z" fill="#FFC297"/>
<path d="M204.407 126.923C207.254 126.038 210.201 121.573 210.115 120.674C210.059 120.395 209.987 120.12 209.897 119.85L198.269 112.525C198.269 112.525 200.898 104.955 205.071 104.549C205.436 103.051 206.78 99.889 211.577 100.677C211.577 100.677 209.605 100.878 208.459 101.739C208.459 101.739 212.819 100.065 216.553 104.351C220.287 108.636 216.119 117.162 217.154 119.081C218.189 120.999 223.255 122.182 221.72 127.584C220.186 132.987 203.413 137.314 203.664 142.04C203.664 142.04 199.323 132.7 203.612 129.03C202.868 129.634 201.446 130.972 201.002 132.678C201.002 132.672 201.191 127.923 204.407 126.923Z" fill="#55443C"/>
<path d="M205.562 230.27L208.339 229.863C208.339 229.863 217.679 222.462 219.071 208.652C219.217 207.234 219.239 205.805 219.137 204.382C219.117 204.219 219.151 204.053 219.234 203.911C219.534 203.454 220.278 202.309 221.285 200.682C222.279 199.077 223.977 196.045 225.851 192.642C229.219 186.514 233.139 179.186 234.485 176.851C238.771 169.411 236.705 164.41 236.705 164.41C236.705 164.41 224.749 163.231 221.474 160.373L220.294 162.187C220.294 162.187 217.704 173.621 217.827 173.673L217.437 174.861C215.393 181.152 213.041 189.014 211.76 195.418C211.04 199.021 210.658 202.161 210.863 204.3C210.933 205.033 210.847 206.161 210.652 207.552C209.492 215.755 205.562 230.27 205.562 230.27Z" fill="#FBC16B"/>
<path d="M199.734 234.361H211.324C211.324 234.361 211.601 232.014 210.996 230.678C210.417 229.396 209.59 229.355 210.891 227.345C210.154 228.103 207.786 228.415 206.112 228.189C205.907 228.521 204.788 230.748 204.102 231.238C203.344 231.781 199.968 232.175 199.734 234.361Z" fill="#4F3A31"/>
<path d="M217.436 174.859C218.45 180.423 220.84 189.691 225.85 192.64C229.218 186.512 233.138 179.184 234.484 176.849C238.77 169.409 236.703 164.408 236.703 164.408C236.703 164.408 224.748 163.229 221.473 160.371L220.292 162.185C220.292 162.185 217.702 173.619 217.825 173.671L217.436 174.859Z" fill="#DFA44C"/>
<path d="M225.565 165.267L225.526 163.104C229.838 163.648 240.416 157.96 240.416 157.96C240.416 157.96 244.935 160.956 245.553 169.512C245.855 173.686 247.765 191.352 247.977 196.627C248.053 198.538 248.078 199.902 248.087 200.447C248.098 200.612 248.162 200.768 248.271 200.893C249.153 202.015 249.936 203.212 250.611 204.469C257.207 216.694 253.754 233.302 253.754 233.302L252.225 232.914C252.225 232.914 246.651 215.694 243.01 208.245C242.392 206.98 241.83 205.999 241.361 205.43C239.991 203.772 238.548 200.955 237.125 197.567C234.433 191.159 231.822 182.704 229.959 176.157C229.828 176.186 225.565 165.267 225.565 165.267Z" fill="#FBC16B"/>
<path d="M209.726 137.031C216.969 137.071 216.045 125.226 215.606 125.302C214.7 124.884 212.181 123.506 211.082 119.811L210.404 120.378L205.311 123.072C205.311 123.072 205.945 124.736 206.437 126.333C206.817 127.585 207.107 128.797 206.933 129.149C206.529 129.341 207.793 137.021 209.726 137.031Z" fill="#FFC297"/>
<path d="M205.311 123.072C205.311 123.072 205.945 124.735 206.437 126.334C209.442 125.338 210.209 122.099 210.403 120.373L205.311 123.072Z" fill="#D5956B"/>
<path d="M204.799 125.566C204.799 125.566 212.77 122.714 210.913 117.792C209.056 112.87 208.833 109.193 203.664 110.8C198.496 112.408 198.222 114.66 198.441 116.453C198.66 118.246 202.677 126.182 204.799 125.566Z" fill="#FFC297"/>
<path d="M197.641 113.629C198.306 111.687 199.353 111.663 200.041 111.914C203.473 107.91 209.257 108.055 209.257 108.055C211.125 111.386 212.776 114.758 212.776 114.758C212.776 114.758 211.67 116.191 208.019 116.59C206.903 116.717 205.722 116.337 204.62 115.751C206.039 116.849 207.603 117.749 209.267 118.427C204.597 118.091 200.912 113.178 200.532 112.655C200.212 113.271 199.616 114.569 199.674 115.601C199.753 117.003 200.553 119.648 199.766 119.844C199.766 119.847 196.645 116.538 197.641 113.629Z" fill="#55443C"/>
<path d="M244.538 234.36H256.128C256.128 234.36 256.406 232.013 255.8 230.677C255.22 229.395 254.312 228.812 254.531 227.263C253.796 228.021 252.595 228.866 250.919 228.641C250.714 228.972 249.594 230.749 248.909 231.24C248.149 231.78 244.771 232.174 244.538 234.36Z" fill="#4F3A31"/>
<path d="M215.589 125.156C215.589 125.156 211.243 125.156 206.481 128.1L204.912 138.889C204.405 142.767 204.361 145.88 205.958 147.342C207.392 148.631 209.121 149.55 210.994 150.017C214.48 150.872 215.102 150.411 216.354 151.661C216.811 152.119 216.394 151.441 216.354 151.837C216.159 154.086 219.398 164.729 219.398 164.729C236.394 167.511 242.003 158.65 242.003 158.65C235.799 138.832 215.589 125.156 215.589 125.156Z" fill="#C5964F"/>
<path d="M208.413 149.04C211.077 150.55 214.16 150.628 215.679 150.558C220.287 141.611 218.928 132.804 218.928 132.804C218.928 132.804 210.043 134.427 211.191 139.633C212.204 144.199 209.253 147.767 208.413 149.04Z" fill="#9A6D2B"/>
<path d="M167.823 232.172L165.948 230.469L220.655 170.381C220.767 170.258 220.903 170.158 221.053 170.088C221.204 170.017 221.368 169.976 221.534 169.968C221.701 169.96 221.867 169.985 222.024 170.042C222.181 170.098 222.325 170.185 222.449 170.297C222.697 170.522 222.845 170.837 222.861 171.172C222.876 171.506 222.758 171.833 222.532 172.081L167.823 232.172Z" fill="#4F3A31"/>
<path d="M209.483 130.303C209.483 130.303 216.803 128.003 219.318 132.302C221.833 136.602 222.489 158.252 222.169 160.377C221.579 164.244 214.874 179.493 214.874 179.493L212.275 179.128C212.275 179.128 214.461 162.328 215.153 160.549C216.238 157.758 207.782 132.894 209.483 130.303Z" fill="#FFC297"/>
<path d="M220.291 135.131C220.316 135.242 214.71 140.001 209.652 139.671C209.652 139.671 204.655 130.484 209.842 128.885C215.03 127.285 218.64 127.59 219.782 129.907C220.925 132.223 220.291 135.131 220.291 135.131Z" fill="#C5964F"/>
<path d="M212.275 179.133C212.275 179.133 210.768 180.942 210.119 181.314C209.469 181.686 208.963 183.07 209.05 183.269C209.136 183.469 210.343 182.168 210.544 182.413C210.744 182.659 210.733 185.479 210.101 185.891C209.469 186.303 208.517 187.394 208.642 187.578C208.768 187.761 212.813 186.017 214.011 184.416C215.21 182.815 214.852 179.133 214.852 179.133H212.275Z" fill="#FFC297"/>
<path d="M187.948 178.424C187.776 178.424 187.611 178.359 187.486 178.242L174.719 166.185C174.59 166.063 174.514 165.895 174.509 165.717C174.505 165.54 174.571 165.368 174.693 165.239C174.815 165.11 174.984 165.034 175.162 165.03C175.34 165.025 175.513 165.091 175.642 165.213L188.411 177.27C188.508 177.362 188.576 177.481 188.605 177.611C188.634 177.742 188.622 177.879 188.573 178.003C188.523 178.127 188.437 178.234 188.326 178.309C188.215 178.384 188.083 178.424 187.949 178.424H187.948Z" fill="#4F3A31"/>
<path d="M181.061 173.798C181.061 173.798 183.392 173.814 184.18 173.155C184.967 172.496 181.87 170.526 180.787 170.948C179.704 171.371 179.406 171.587 179.899 172.376C180.232 172.891 180.622 173.368 181.061 173.798Z" fill="#FFB27D"/>
<path d="M180.644 169.897C180.644 169.897 179.756 170.338 179.46 170.886C179.165 171.435 181.844 170.886 181.844 170.886L180.644 169.897Z" fill="#FFB27D"/>
<path d="M182.847 173.649C182.847 173.649 184.181 172.941 183.789 172.102C183.52 171.576 183.088 171.151 182.556 170.89C182.556 170.89 183.452 171.179 184 171.728C184.669 172.401 184.866 173.377 182.847 173.649Z" fill="#D5956B"/>
<path d="M177.036 167.061C176.831 167.267 176.587 167.431 176.318 167.543C176.049 167.655 175.761 167.714 175.469 167.715C175.178 167.716 174.889 167.66 174.619 167.549C174.349 167.439 174.104 167.277 173.897 167.072L164.268 157.537C164.061 157.332 163.897 157.088 163.784 156.82C163.672 156.552 163.614 156.265 163.613 155.974C163.612 155.683 163.668 155.395 163.779 155.126C163.889 154.857 164.052 154.613 164.258 154.407C164.463 154.2 164.707 154.037 164.976 153.924C165.245 153.812 165.534 153.754 165.825 153.753C166.117 153.752 166.406 153.808 166.675 153.919C166.945 154.029 167.19 154.192 167.397 154.397L177.026 163.932C177.444 164.346 177.679 164.908 177.681 165.494C177.683 166.081 177.451 166.644 177.036 167.061Z" fill="#F1A34F"/>
<path d="M163.833 154.72C163.833 154.72 163.503 155.05 163.498 155.168C163.493 155.286 163.66 155.168 163.66 155.168L163.416 155.638L163.573 155.794L163.319 156.3C163.319 156.3 163.438 156.573 163.506 156.584C163.573 156.596 163.711 156.793 163.691 156.846C163.597 157.099 163.446 157.361 163.564 157.366C163.682 157.371 163.906 157.549 164.029 157.561C164.153 157.572 164.177 157.716 164.17 157.822C164.17 157.871 164.164 157.919 164.151 157.965C164.258 157.972 164.362 158.001 164.457 158.05C164.536 158.117 164.565 158.145 164.565 158.145C164.565 158.145 164.778 158.398 164.812 158.446C164.846 158.494 164.863 158.653 165.066 158.58C165.179 158.538 165.288 158.485 165.39 158.422L165.597 158.295L165.619 157.948C165.847 157.841 165.758 157.887 165.758 157.887L165.847 157.841C165.937 157.79 166.031 157.745 166.127 157.706C166.337 157.582 166.504 157.399 166.608 157.18C166.663 157.023 166.679 156.816 166.881 156.715C167.082 156.613 167.575 156.31 167.575 156.31L167.647 156.292C167.647 156.292 167.813 155.778 167.836 155.756C167.859 155.735 167.836 155.705 168.09 155.442C168.343 155.179 168.273 155.157 168.38 155.15C168.487 155.144 168.991 155.422 168.525 154.971C168.058 154.519 168.144 154.519 167.956 154.475C167.769 154.431 167.586 154.309 167.563 154.197C167.54 154.084 167.524 154.025 167.524 154.025C167.524 154.025 167.557 153.8 167.233 153.676C167.025 153.598 166.802 153.566 166.58 153.581C166.547 153.581 166.318 153.721 166.182 153.543C166.046 153.365 165.436 153.338 165.421 153.355C165.406 153.371 165.252 153.289 165.196 153.468L165.163 153.501C165.163 153.501 165.567 153.375 165.141 153.647C164.714 153.919 164.974 153.949 164.744 153.922C164.513 153.896 164.452 153.744 164.38 153.873C164.307 154.002 163.95 154.505 163.972 154.562C163.995 154.619 163.833 154.72 163.833 154.72Z" fill="#FFD53E"/>
<path d="M178.154 167.505C178.154 167.505 178.484 167.175 178.489 167.057C178.494 166.939 178.326 167.057 178.326 167.057L178.571 166.586L178.414 166.431L178.668 165.925C178.668 165.925 178.548 165.652 178.481 165.641C178.414 165.629 178.276 165.432 178.296 165.379C178.39 165.126 178.541 164.864 178.423 164.859C178.305 164.854 178.08 164.676 177.957 164.664C177.834 164.653 177.81 164.509 177.815 164.402C177.815 164.354 177.822 164.306 177.836 164.26C177.728 164.253 177.624 164.224 177.529 164.175C177.45 164.108 177.422 164.08 177.422 164.08C177.422 164.08 177.208 163.827 177.175 163.779C177.142 163.731 177.123 163.572 176.921 163.645C176.808 163.687 176.699 163.74 176.596 163.803L176.39 163.93L176.367 164.277C176.139 164.384 176.229 164.338 176.229 164.338L176.139 164.384C176.049 164.435 175.956 164.48 175.86 164.519C175.65 164.642 175.483 164.825 175.379 165.045C175.323 165.202 175.308 165.409 175.106 165.51C174.905 165.611 174.412 165.915 174.412 165.915L174.339 165.933C174.339 165.933 174.173 166.447 174.151 166.469C174.13 166.49 174.151 166.519 173.898 166.782C173.644 167.046 173.714 167.068 173.607 167.075C173.501 167.081 172.996 166.803 173.463 167.254C173.929 167.706 173.843 167.706 174.029 167.75C174.216 167.794 174.401 167.916 174.424 168.028C174.447 168.141 174.463 168.2 174.463 168.2C174.463 168.2 174.43 168.425 174.752 168.549C174.961 168.626 175.184 168.659 175.407 168.645C175.44 168.645 175.669 168.504 175.805 168.682C175.941 168.86 176.551 168.887 176.566 168.87C176.581 168.854 176.735 168.936 176.791 168.758L176.824 168.724C176.824 168.724 176.42 168.85 176.845 168.578C177.27 168.306 177.012 168.276 177.242 168.303C177.472 168.329 177.535 168.481 177.607 168.352C177.68 168.223 178.036 167.72 178.013 167.663C177.99 167.606 178.154 167.505 178.154 167.505Z" fill="#FFD53E"/>
<path d="M172.873 162.165C172.873 162.165 173.202 161.834 173.208 161.717C173.213 161.601 173.045 161.717 173.045 161.717L173.29 161.247L173.133 161.09L173.386 160.584C173.386 160.584 173.267 160.311 173.2 160.3C173.133 160.288 173.665 160.651 173.686 160.598C173.781 160.345 173.26 159.523 173.142 159.518C173.024 159.513 172.799 159.335 172.675 159.323C172.551 159.312 172.529 159.168 172.534 159.062C172.534 159.013 172.541 158.964 172.554 158.917C172.447 158.912 172.342 158.883 172.247 158.833C172.169 158.767 172.141 158.739 172.141 158.739C172.141 158.739 171.927 158.486 171.887 158.438C171.848 158.39 171.835 158.231 171.634 158.304C171.52 158.346 171.411 158.399 171.309 158.462L171.102 158.589L171.079 158.936C170.851 159.043 170.941 158.997 170.941 158.997L170.851 159.043C170.761 159.094 170.668 159.139 170.572 159.177C170.362 159.3 170.195 159.484 170.091 159.704C170.035 159.861 170.019 160.068 169.819 160.169C169.618 160.271 169.123 160.574 169.123 160.574L169.051 160.591C169.051 160.591 168.885 161.105 168.863 161.128C168.842 161.151 168.863 161.179 168.61 161.442C168.356 161.705 168.426 161.727 168.319 161.734C168.213 161.74 167.708 161.462 168.175 161.913C168.642 162.365 168.555 162.365 168.742 162.408C168.928 162.451 169.112 162.575 169.135 162.686C169.158 162.797 169.176 162.859 169.176 162.859C169.176 162.859 169.143 163.083 169.465 163.208C169.787 163.334 169.987 163.387 169.972 163.417C169.893 163.584 170.363 163.892 170.498 164.071C170.634 164.249 171.259 163.546 171.28 163.528C171.3 163.511 171.448 163.595 171.503 163.416L171.537 163.383C171.537 163.383 171.134 163.509 171.559 163.237C171.984 162.966 171.726 162.935 171.956 162.962C172.185 162.988 172.249 163.14 172.321 163.011C172.393 162.882 172.75 162.379 172.727 162.322C172.704 162.265 172.873 162.165 172.873 162.165Z" fill="#FFD53E"/>
<path d="M165.245 158.502C165.245 158.502 164.822 158.953 165.341 159.151C165.86 159.348 165.829 159.08 165.958 159.519C166.02 159.7 166.062 159.887 166.084 160.078C166.084 160.078 165.802 160.393 166.37 160.36C166.938 160.327 166.712 160.121 166.953 160.508C167.194 160.895 167.19 161.062 167.425 161.216C167.66 161.37 167.59 161.408 167.932 161.656C168.275 161.904 168.44 161.858 168.64 161.872C168.64 161.872 168.835 162.066 168.939 161.842C169.044 161.618 168.952 161.083 168.981 160.902C168.996 160.805 169.02 160.71 169.055 160.619L169.622 160.409C169.703 160.408 169.783 160.398 169.862 160.377L169.95 160.348C169.95 160.348 170.025 160.213 170.054 160.154C170.084 160.094 169.997 160.061 169.997 160.061C169.997 160.061 169.888 159.454 169.977 159.393C170.066 159.333 169.739 159.425 170.067 159.334C170.396 159.243 170.678 159.019 170.784 159.033C170.889 159.047 170.903 159.003 170.947 159.048L170.993 159.092L171.23 158.704C171.169 158.465 170.596 158.229 170.85 158.095C171.103 157.961 171.103 158.295 171.202 158.339C171.301 158.383 172.301 158.551 171.462 158.018C170.624 157.484 170.682 156.916 170.574 156.933C170.467 156.949 170.139 156.711 170.049 156.621C169.959 156.532 169.898 156.056 169.524 156.102C169.15 156.147 169.113 156.141 169.202 155.812C169.291 155.483 169.284 155.356 169.03 155.402C168.862 155.429 168.69 155.429 168.522 155.402C168.522 155.402 168.861 155.047 168.365 155.149C167.869 155.252 167.35 155.362 167.301 155.586C167.251 155.81 167.174 155.869 166.944 156.301C166.715 156.734 166.467 156.691 166.229 156.934C165.991 157.177 166.289 156.695 165.887 157.278C165.484 157.861 165.454 157.562 165.484 157.861C165.491 157.953 165.479 158.045 165.448 158.132C165.418 158.219 165.37 158.299 165.307 158.367L165.245 158.502Z" fill="#DF7553"/>
<path d="M176.828 163.806C176.828 163.806 177.251 163.355 176.732 163.158C176.213 162.96 176.244 163.23 176.116 162.79C176.053 162.608 176.011 162.421 175.989 162.231C175.989 162.231 176.272 161.917 175.703 161.949C175.135 161.98 175.36 162.189 175.12 161.802C174.88 161.415 174.883 161.247 174.648 161.094C174.413 160.941 174.483 160.9 174.141 160.652C173.798 160.404 173.627 160.45 173.432 160.436C173.432 160.436 173.238 160.243 173.134 160.466C173.03 160.69 173.121 161.225 173.092 161.406C173.078 161.503 173.053 161.598 173.018 161.689L172.45 161.901C172.37 161.9 172.29 161.911 172.212 161.931L172.122 161.961C172.122 161.961 172.048 162.095 172.018 162.155C171.987 162.214 172.075 162.247 172.075 162.247C172.075 162.247 172.185 162.855 172.095 162.915C172.005 162.974 172.335 162.884 172.006 162.974C171.678 163.064 171.395 163.29 171.29 163.275C171.184 163.26 171.17 163.305 171.125 163.261L171.08 163.217L170.842 163.605C170.903 163.843 171.476 164.079 171.222 164.215C170.969 164.35 170.969 164.015 170.87 163.969C170.771 163.924 169.77 163.757 170.616 164.291C171.462 164.824 171.396 165.392 171.504 165.377C171.612 165.362 171.939 165.598 172.029 165.687C172.119 165.775 172.181 166.253 172.554 166.207C172.927 166.16 172.965 166.169 172.876 166.496C172.787 166.824 172.795 166.953 173.05 166.906C173.218 166.879 173.389 166.879 173.557 166.906C173.557 166.906 173.219 167.261 173.716 167.159C174.213 167.056 174.731 166.948 174.779 166.724C174.827 166.5 174.913 166.44 175.135 166.007C175.357 165.573 175.613 165.617 175.851 165.374C176.088 165.132 175.792 165.613 176.194 165.03C176.596 164.447 176.627 164.746 176.595 164.449C176.589 164.357 176.602 164.265 176.632 164.178C176.663 164.091 176.71 164.011 176.773 163.943L176.828 163.806Z" fill="#DF7553"/>
<path d="M161.286 229.884C160.884 229.882 160.484 229.952 160.1 230.092L152.9 232.696C152.698 232.77 152.521 232.916 152.396 233.113C152.27 233.31 152.202 233.549 152.202 233.794V234.359H175.704V229.883L161.286 229.884Z" fill="#FBC16B"/>
<path d="M180.18 234.359H166.751V233.794C166.751 233.549 166.816 233.311 166.938 233.114C167.059 232.916 167.229 232.77 167.425 232.697L174.375 230.093C174.951 229.875 175.561 229.826 176.156 229.948C176.75 230.071 177.312 230.362 177.794 230.797L179.698 232.512C179.801 232.604 179.887 232.721 179.952 232.854C180.016 232.987 180.058 233.134 180.074 233.287L180.18 234.359Z" fill="#DFA44C"/>
<path d="M303.415 230.64C303.415 231.299 303.219 231.943 302.852 232.491C302.485 233.039 301.964 233.466 301.353 233.719C300.743 233.971 300.071 234.037 299.423 233.909C298.775 233.78 298.179 233.463 297.712 232.997C297.245 232.532 296.926 231.938 296.797 231.292C296.668 230.646 296.735 229.976 296.987 229.367C297.24 228.758 297.668 228.238 298.218 227.872C298.767 227.506 299.413 227.311 300.074 227.311C300.96 227.311 301.809 227.661 302.436 228.286C303.062 228.91 303.414 229.757 303.415 230.64Z" fill="#8C7666"/>
<path d="M265.448 232.959H306.374L307.503 231.834C308.119 231.218 308.598 230.479 308.907 229.666C309.217 228.852 309.35 227.983 309.297 227.114C309.245 226.246 309.008 225.398 308.604 224.628C308.199 223.857 307.635 223.181 306.948 222.644C300.92 217.918 289.708 211.291 274.158 211.291C264.005 211.291 260.806 217.141 260.789 222.673C260.774 228.322 265.448 232.959 265.448 232.959Z" fill="#F1A34F"/>
<path d="M275.595 233.972C281.199 233.972 285.742 229.443 285.742 223.855C285.742 218.268 281.199 213.738 275.595 213.738C269.991 213.738 265.448 218.268 265.448 223.855C265.448 229.443 269.991 233.972 275.595 233.972Z" fill="#8C7666"/>
<path d="M275.595 232.074C280.148 232.074 283.839 228.394 283.839 223.854C283.839 219.314 280.148 215.634 275.595 215.634C271.042 215.634 267.35 219.314 267.35 223.854C267.35 228.394 271.042 232.074 275.595 232.074Z" fill="#AB9483"/>
<path d="M260.796 222.544C257.773 222.364 250.493 221.468 247.802 217.019C246.026 214.094 246.533 210.047 249.291 204.992C252.048 199.937 253.368 194.622 253.202 189.216C253.06 184.535 251.783 179.958 249.481 175.876C246.018 169.775 240.583 165.698 235.633 165.488C227.887 165.158 223.675 168.168 221.851 169.993C222.123 170.048 222.369 170.19 222.551 170.399C222.733 170.607 222.841 170.87 222.858 171.146C223.517 170.485 224.251 169.902 225.045 169.411C226.992 168.192 230.398 166.787 235.572 167.008C240.011 167.196 244.958 170.973 248.161 176.627C250.444 180.647 254.991 191.39 247.959 204.271C244.922 209.836 244.433 214.388 246.505 217.81C249.684 223.059 257.881 223.939 260.975 224.083C260.883 223.574 260.823 223.06 260.796 222.544Z" fill="#C0592D"/>
<path d="M262.265 222.313L260.051 222.148C259.853 222.133 259.681 222.281 259.666 222.478L259.54 224.15C259.526 224.347 259.674 224.519 259.871 224.534L262.086 224.699C262.284 224.714 262.456 224.566 262.471 224.369L262.596 222.697C262.611 222.5 262.463 222.328 262.265 222.313Z" fill="#F1A34F"/>
<path d="M261.072 222.202L260.066 222.128C259.972 222.121 259.879 222.153 259.808 222.215C259.737 222.276 259.693 222.364 259.686 222.458L259.654 222.87C259.678 222.793 259.727 222.725 259.795 222.679C259.862 222.634 259.942 222.612 260.023 222.617L261.029 222.692C261.013 222.732 261.004 222.775 261.004 222.818L260.964 224.596H261.007C261.006 224.576 261.006 224.556 261.007 224.536L261.057 222.322C261.055 222.282 261.06 222.241 261.072 222.202Z" fill="#FFB973"/>
</g>
<defs>
<linearGradient id="paint0_linear_245_6216" x1="191.12" y1="80.8645" x2="135.44" y2="24.5311" gradientUnits="userSpaceOnUse">
<stop stop-color="#FF9340"/>
<stop offset="1" stop-color="#FFE8A8"/>
</linearGradient>
<clipPath id="clip0_245_6216">
<rect width="151" height="149" fill="white" transform="translate(111.623 0.365234)"/>
</clipPath>
<clipPath id="clip1_245_6216">
<rect width="310" height="169.499" fill="white" transform="translate(0 64.6152)"/>
</clipPath>
</defs>
</svg>
