<svg width="249" height="226" viewBox="0 0 249 226" fill="none" xmlns="http://www.w3.org/2000/svg">
<path d="M97.5664 210.834C43.6646 190.869 31.3092 130.586 29.6294 121.614C27.5133 110.31 22.478 83.4169 36.2654 55.9715C57.3737 13.9529 110.35 -4.97338 154.524 2.05088C167.378 4.09441 206.639 12.6525 230.259 49.7906C231.639 51.9614 255.613 91.0325 241.582 136.478C239.69 142.606 235.884 152.812 228.533 163.446C205.732 196.433 150.864 230.576 97.5664 210.834Z" fill="#F4F4F4"/>
<g clip-path="url(#clip0_245_6421)">
<path d="M143.48 179.622C189.036 179.622 225.966 142.977 225.966 97.7739C225.966 52.5705 189.036 15.9258 143.48 15.9258C97.9235 15.9258 60.9929 52.5705 60.9929 97.7739C60.9929 142.977 97.9235 179.622 143.48 179.622Z" fill="#F08537"/>
<path d="M67.7826 102.265C67.7826 129.246 80.939 153.177 101.232 168.085C77.1317 153.798 60.9913 127.658 60.9913 97.7743C60.9913 52.5702 97.9226 15.9238 143.481 15.9238C161.851 15.9238 178.821 21.8818 192.529 31.9602C180.17 24.6284 165.715 20.4171 150.27 20.4171C104.712 20.4171 67.7826 57.0612 67.7826 102.265Z" fill="url(#paint0_linear_245_6421)"/>
<path d="M196.233 150.118C225.369 121.208 225.369 74.335 196.233 45.4246C167.097 16.5143 119.858 16.5143 90.7221 45.4246C61.5861 74.335 61.5861 121.208 90.7221 150.118C119.858 179.029 167.097 179.029 196.233 150.118Z" fill="#EFE6DB"/>
<path d="M144.541 29.5664H142.418V37.2187H144.541V29.5664Z" fill="#B49A92"/>
<path d="M144.541 158.328H142.418V165.98H144.541V158.328Z" fill="#AB8484"/>
<path d="M212.219 98.8256V96.7188H204.507V98.8256H212.219Z" fill="#B49A92"/>
<path d="M82.4523 98.8255V96.7188H74.7402V98.8255H82.4523Z" fill="#AB8484"/>
<path d="M191.339 146.756L192.84 145.267L187.387 139.856L185.886 141.345L191.339 146.756Z" fill="#AB8484"/>
<path d="M99.577 55.6977L101.078 54.208L95.6252 48.797L94.1239 50.2868L99.577 55.6977Z" fill="#B49A92"/>
<path d="M94.1269 145.261L95.6283 146.751L101.081 141.34L99.5801 139.85L94.1269 145.261Z" fill="#AB8484"/>
<path d="M185.883 54.2095L187.384 55.6992L192.838 50.2883L191.336 48.7986L185.883 54.2095Z" fill="#B49A92"/>
<path d="M143.479 162.254C126.123 162.254 109.804 155.546 97.5293 143.368C85.2561 131.19 78.4965 114.998 78.4965 97.7738C78.4965 80.5512 85.2561 64.3587 97.5293 52.1794C109.802 40.0012 126.121 33.2939 143.479 33.2939C160.838 33.2939 177.155 40.0012 189.43 52.1794C201.703 64.3576 208.462 80.5501 208.462 97.7738C208.462 114.996 201.703 131.189 189.43 143.368C177.155 155.546 160.836 162.254 143.479 162.254ZM143.479 33.4909C107.758 33.4909 78.695 62.3277 78.695 97.7738C78.695 133.219 107.757 162.057 143.479 162.057C179.202 162.057 208.264 133.22 208.264 97.7738C208.264 62.3288 179.201 33.4909 143.479 33.4909Z" fill="#AB8484"/>
<path d="M106.511 60.0928C107.356 60.8047 108.182 61.5365 109.018 62.2578L111.493 64.4543C113.145 65.9167 114.771 67.4036 116.396 68.8928C119.642 71.8735 122.848 74.8916 126.036 77.9294C129.21 80.9789 132.376 84.0365 135.501 87.1338C137.071 88.6754 138.626 90.2311 140.181 91.7867C141.741 93.3376 143.281 94.9084 144.828 96.4722L143.481 95.9082C148.217 95.8942 152.953 95.9245 157.689 95.9769C162.426 96.0445 167.162 96.1273 171.898 96.2729C176.634 96.4116 181.37 96.5875 186.106 96.8276C188.475 96.9511 190.843 97.077 193.211 97.2366L196.764 97.479C197.948 97.5769 199.132 97.6584 200.316 97.7715C199.132 97.8845 197.948 97.966 196.764 98.0639L193.211 98.3063C190.843 98.4659 188.475 98.593 186.106 98.7153C181.37 98.9554 176.634 99.1313 171.898 99.27C167.162 99.4156 162.426 99.4984 157.689 99.566C152.953 99.6184 148.217 99.6487 143.481 99.6347L142.681 99.6324L142.134 99.0707C140.6 97.4941 139.058 95.9257 137.538 94.3363C136.013 92.7527 134.487 91.1679 132.976 89.5692C129.939 86.3869 126.943 83.1649 123.957 79.9337C120.982 76.6919 118.028 73.4303 115.112 70.1303C113.655 68.4792 112.202 66.8256 110.772 65.1488L108.627 62.6354C107.92 61.7882 107.206 60.9504 106.511 60.0928Z" fill="#725C53"/>
<path opacity="0.69" d="M195.731 54.1522C184.633 46.3845 171.091 41.8202 156.476 41.8202C118.822 41.8202 88.2954 72.1101 88.2954 109.473C88.2954 126.346 94.5219 141.777 104.819 153.627C87.316 141.38 75.8837 121.165 75.8837 98.2994C75.8837 60.9364 106.41 30.6465 144.064 30.6465C164.718 30.6465 183.227 39.76 195.731 54.1522Z" fill="white"/>
</g>
<path opacity="0.35" d="M146.24 140.465C146.24 179.128 114.63 210.485 75.6198 210.485C36.6091 210.485 4.99905 179.128 4.99905 140.465C4.99905 101.802 36.6091 70.4453 75.6198 70.4453C114.63 70.4453 146.24 101.802 146.24 140.465Z" stroke="#E5E3E2" stroke-width="2"/>
<g filter="url(#filter0_d_245_6421)">
<ellipse cx="75.6197" cy="140.465" rx="50.1345" ry="49.714" fill="white"/>
</g>
<path d="M58.9083 140.466L70.8451 152.302L94.7187 128.629" stroke="#E17425" stroke-width="4" stroke-linecap="round" stroke-linejoin="round"/>
<defs>
<filter id="filter0_d_245_6421" x="0.48526" y="75.751" width="150.269" height="149.428" filterUnits="userSpaceOnUse" color-interpolation-filters="sRGB">
<feFlood flood-opacity="0" result="BackgroundImageFix"/>
<feColorMatrix in="SourceAlpha" type="matrix" values="0 0 0 0 0 0 0 0 0 0 0 0 0 0 0 0 0 0 127 0" result="hardAlpha"/>
<feOffset dy="10"/>
<feGaussianBlur stdDeviation="12.5"/>
<feComposite in2="hardAlpha" operator="out"/>
<feColorMatrix type="matrix" values="0 0 0 0 0.266667 0 0 0 0 0.239216 0 0 0 0 0.219608 0 0 0 0.15 0"/>
<feBlend mode="normal" in2="BackgroundImageFix" result="effect1_dropShadow_245_6421"/>
<feBlend mode="normal" in="SourceGraphic" in2="effect1_dropShadow_245_6421" result="shape"/>
</filter>
<linearGradient id="paint0_linear_245_6421" x1="148.371" y1="103.381" x2="87.9904" y2="41.7745" gradientUnits="userSpaceOnUse">
<stop stop-color="#FF9340"/>
<stop offset="1" stop-color="#FFE8A8"/>
</linearGradient>
<clipPath id="clip0_245_6421">
<rect width="165.156" height="163.771" fill="white" transform="translate(61.4219 16.0723)"/>
</clipPath>
</defs>
</svg>
