<svg width="240" height="241" viewBox="0 0 240 241" fill="none" xmlns="http://www.w3.org/2000/svg">
<g clip-path="url(#clip0_245_6456)">
<path d="M210.588 206.525C166.832 252.699 99.623 239.039 89.6885 236.844C77.1726 234.078 47.3954 227.499 25.1743 201.521C-8.84609 161.75 -5.41069 99.5922 20.8634 57.6864C28.5081 45.4927 54.2358 9.25647 102.549 1.37808C105.373 0.917712 155.824 -6.47946 196.416 27.58C201.889 32.1724 210.723 40.4886 218.466 52.5981C242.485 90.1625 253.852 160.868 210.588 206.525Z" fill="#F4F4F4"/>
<path d="M115.778 12.7948C116.273 10.3749 118.793 8.95206 121.12 9.78159C136.552 15.2843 189.775 33.4602 235.671 39.5119C237.765 39.7881 239.223 41.7251 238.898 43.8116L212.198 215.118C211.832 217.467 209.64 219.08 207.288 218.728C188.055 215.848 108.909 203.706 81.6216 194.903C79.9608 194.367 78.9731 192.665 79.3232 190.956L115.778 12.7948Z" fill="#DECFBC"/>
<path opacity="0.6" d="M116.755 17.4342C117.232 15.1054 119.657 13.7356 121.895 14.5347C136.746 19.8298 187.965 37.3212 232.133 43.1453C234.147 43.4111 235.551 45.2752 235.238 47.2826L209.544 212.138C209.191 214.398 207.081 215.951 204.819 215.612C186.311 212.841 110.145 201.156 83.8844 192.684C82.2861 192.168 81.3358 190.53 81.672 188.885L116.755 17.4342Z" fill="white"/>
<path opacity="0.78" d="M131.222 31.0304C129.852 30.6916 128.484 31.5941 128.258 32.9865L122.515 68.2803C122.324 69.4538 123.069 70.5761 124.225 70.854C130.66 72.401 150.726 77.1437 162.241 78.9504C163.543 79.1546 164.782 78.3277 165.097 77.0473C166.695 70.5387 171.192 51.5602 171.379 43.2701C171.409 41.9307 170.501 40.7537 169.2 40.4314L131.222 31.0304Z" fill="white"/>
<path d="M147.64 57.8016C151.881 57.8016 155.319 54.3637 155.319 50.123C155.319 45.8822 151.881 42.4443 147.64 42.4443C143.399 42.4443 139.962 45.8822 139.962 50.123C139.962 54.3637 143.399 57.8016 147.64 57.8016Z" fill="url(#paint0_linear_245_6456)"/>
<path d="M131.579 69.7773L155.516 74.8222C156.984 75.1315 158.204 73.6965 157.675 72.2928C156.312 68.6828 153.043 63.1124 145.631 61.7703C138.488 60.477 133.389 63.8116 130.635 66.394C129.466 67.4902 130.01 69.4463 131.579 69.7773Z" fill="url(#paint1_linear_245_6456)"/>
<g opacity="0.6">
<path opacity="0.6" d="M223.339 56.2028C224.088 56.3609 224.797 55.9596 224.914 55.3108C225.032 54.6619 224.517 53.9904 223.77 53.8193L181.972 44.2289C181.225 44.0578 180.696 44.539 180.795 45.2982L180.876 45.9105C180.976 46.6697 181.671 47.4211 182.421 47.5792L223.339 56.2028Z" fill="#B49A92"/>
</g>
<g opacity="0.6">
<path opacity="0.6" d="M180.599 50.7445C179.852 50.5734 179.323 51.0546 179.423 51.8138L179.504 52.4262C179.604 53.1853 180.299 53.9367 181.049 54.0948L221.966 62.7185C222.716 62.8766 223.425 62.4753 223.542 61.8264C223.659 61.1775 223.144 60.5061 222.397 60.335L180.599 50.7445Z" fill="#B49A92"/>
</g>
<g opacity="0.6">
<path opacity="0.6" d="M179.206 57.3559C178.459 57.1847 177.93 57.666 178.03 58.4251L178.111 59.0375C178.21 59.7967 178.905 60.548 179.656 60.7061L220.573 69.3298C221.323 69.4879 222.032 69.0866 222.149 68.4377C222.266 67.7889 221.751 67.1174 221.004 66.9463L179.206 57.3559Z" fill="#B49A92"/>
</g>
<g opacity="0.6">
<path opacity="0.6" d="M217.929 102.069C218.679 102.227 219.368 101.821 219.462 101.167C219.556 100.513 219.019 99.8442 218.271 99.68L120.143 78.1895C119.394 78.0253 119.063 78.4518 119.407 79.1371L119.997 80.315C120.34 80.9995 121.235 81.6891 121.985 81.8472L217.929 102.069Z" fill="#B49A92"/>
</g>
<g opacity="0.6">
<path opacity="0.6" d="M118.769 84.7051C118.02 84.5409 117.689 84.9674 118.032 85.6528L118.623 86.8306C118.966 87.5151 119.861 88.2048 120.61 88.3629L216.555 108.584C217.305 108.742 217.994 108.337 218.088 107.683C218.182 107.029 217.645 106.36 216.897 106.196L118.769 84.7051Z" fill="#B49A92"/>
</g>
<path opacity="0.6" d="M116.033 95.4914C118.435 95.8085 122.878 96.6571 125.321 97.1366C126.356 97.3399 127.115 98.2302 127.145 99.2847C127.204 101.333 127.14 104.854 126.303 108.423C126.052 109.491 124.991 110.163 123.92 109.925L114.951 107.934C113.847 107.689 113.107 106.65 113.237 105.527L114.229 96.9038C114.33 96.0117 115.142 95.3742 116.033 95.4914Z" fill="white"/>
<g opacity="0.6">
<path opacity="0.6" d="M131.926 102.468C131.183 102.278 130.54 102.749 130.495 103.514L130.407 105.01C130.362 105.775 130.938 106.53 131.688 106.688L153.522 111.29C154.271 111.448 155.006 110.963 155.155 110.211L155.228 109.841C155.376 109.09 154.891 108.32 154.148 108.131L131.926 102.468Z" fill="white"/>
</g>
<path opacity="0.6" d="M165.009 105.813C167.411 106.13 171.854 106.978 174.297 107.458C175.333 107.661 176.091 108.551 176.121 109.606C176.181 111.654 176.116 115.176 175.279 118.744C175.028 119.812 173.968 120.485 172.896 120.247L163.927 118.255C162.824 118.01 162.085 116.971 162.213 115.849L163.205 107.225C163.308 106.334 164.12 105.695 165.009 105.813Z" fill="white"/>
<g opacity="0.6">
<path opacity="0.6" d="M180.902 112.79C180.16 112.601 179.516 113.071 179.471 113.837L179.383 115.332C179.338 116.098 179.915 116.852 180.664 117.011L202.498 121.612C203.248 121.771 203.983 121.285 204.131 120.534L204.204 120.164C204.353 119.412 203.867 118.643 203.124 118.453L180.902 112.79Z" fill="white"/>
</g>
<path d="M121.646 131.719C121.638 131.718 121.631 131.716 121.623 131.714L113.345 129.887C112.161 129.625 111.355 128.604 111.468 127.51L112.206 120.396C112.249 119.978 112.461 119.601 112.803 119.334C113.185 119.035 113.695 118.904 114.204 118.975C114.912 119.075 115.915 119.198 116.975 119.329C119.209 119.605 121.988 119.948 123.529 120.253C124.645 120.482 125.451 121.341 125.51 122.367C125.605 124.056 124.929 127.072 124.168 130.277C123.921 131.318 122.793 131.961 121.646 131.719ZM114.113 119.62C113.779 119.573 113.448 119.655 113.204 119.846C113.002 120.003 112.878 120.222 112.853 120.463L112.115 127.577C112.036 128.341 112.624 129.061 113.484 129.251L121.763 131.078C121.768 131.079 121.774 131.081 121.78 131.082C122.583 131.251 123.368 130.826 123.534 130.126C124.284 126.971 124.949 124.005 124.859 122.403C124.818 121.686 124.212 121.064 123.402 120.891C121.885 120.592 119.118 120.25 116.895 119.976C115.832 119.845 114.828 119.72 114.113 119.62Z" fill="white"/>
<path opacity="0.6" d="M114.854 120.527C116.622 120.775 120.491 121.189 122.292 121.545C123.056 121.696 123.626 122.296 123.665 122.993C123.742 124.349 123.157 126.894 122.601 129.24C122.434 129.942 121.666 130.369 120.875 130.194L114.259 128.733C113.445 128.553 112.886 127.855 112.962 127.115L113.552 121.43C113.614 120.844 114.199 120.435 114.854 120.527Z" fill="white"/>
<g opacity="0.6">
<path opacity="0.6" d="M129.906 128.634C129.954 129.595 130.648 130.401 131.592 130.592L208.485 146.114C209.354 146.289 210.2 145.72 210.364 144.848C210.524 144 209.979 143.179 209.135 142.997L132.452 126.47C131.098 126.178 129.836 127.251 129.906 128.634Z" fill="white"/>
</g>
<path d="M114.978 121.693C115.67 121.461 116.417 121.844 116.633 122.54L117.651 125.818C117.753 126.147 118.185 126.218 118.388 125.941L124.35 117.761C124.647 117.353 125.286 117.647 125.175 118.139C124.552 120.894 122.711 125.993 117.368 129.46C117.368 129.46 115.134 128.001 114.081 123.285C113.93 122.604 114.316 121.914 114.978 121.693Z" fill="url(#paint2_linear_245_6456)"/>
<path d="M117.899 149.5C117.891 149.498 117.884 149.496 117.876 149.495L109.597 147.667C108.414 147.406 107.608 146.384 107.721 145.29L108.459 138.176C108.502 137.759 108.714 137.382 109.055 137.114C109.438 136.815 109.948 136.684 110.456 136.755C111.165 136.855 112.168 136.979 113.228 137.11C115.461 137.385 118.241 137.728 119.782 138.033C119.793 138.036 119.805 138.037 119.816 138.04C120.907 138.27 121.705 139.132 121.763 140.148C121.859 141.837 121.183 144.854 120.422 148.058C120.174 149.098 119.045 149.741 117.899 149.5ZM110.366 137.4C110.032 137.353 109.701 137.435 109.457 137.627C109.255 137.784 109.131 138.003 109.106 138.243L108.368 145.357C108.289 146.122 108.877 146.841 109.737 147.031L118.016 148.859C118.021 148.86 118.027 148.861 118.033 148.862C118.836 149.032 119.621 148.606 119.787 147.907C120.537 144.75 121.202 141.786 121.112 140.184C121.071 139.466 120.458 138.827 119.655 138.672C118.138 138.372 115.371 138.03 113.148 137.756C112.085 137.624 111.081 137.501 110.366 137.4Z" fill="white"/>
<path opacity="0.6" d="M111.107 138.307C112.875 138.555 116.743 138.969 118.545 139.325C119.309 139.476 119.879 140.076 119.918 140.774C119.995 142.129 119.41 144.675 118.853 147.02C118.687 147.723 117.919 148.149 117.128 147.975L110.512 146.514C109.698 146.335 109.139 145.636 109.215 144.896L109.805 139.211C109.867 138.623 110.452 138.215 111.107 138.307Z" fill="white"/>
<g opacity="0.6">
<path opacity="0.6" d="M126.159 146.413C126.207 147.375 126.901 148.181 127.844 148.371L204.737 163.893C205.607 164.069 206.453 163.499 206.617 162.627C206.777 161.779 206.231 160.958 205.388 160.777L128.704 144.249C127.351 143.958 126.089 145.03 126.159 146.413Z" fill="white"/>
</g>
<path d="M111.23 139.472C111.923 139.24 112.67 139.623 112.886 140.32L113.904 143.598C114.006 143.926 114.438 143.997 114.641 143.72L120.603 135.54C120.9 135.132 121.539 135.427 121.428 135.918C120.804 138.674 118.964 143.772 113.621 147.239C113.621 147.239 111.387 145.781 110.334 141.064C110.183 140.382 110.568 139.693 111.23 139.472Z" fill="url(#paint3_linear_245_6456)"/>
<path d="M114.151 167.278C114.144 167.277 114.137 167.275 114.129 167.273L105.85 165.445C104.667 165.185 103.861 164.163 103.974 163.07L104.711 155.956C104.755 155.538 104.967 155.161 105.308 154.893C105.69 154.595 106.201 154.463 106.709 154.535C107.418 154.635 108.42 154.758 109.481 154.889C111.714 155.164 114.494 155.507 116.035 155.812C116.046 155.815 116.057 155.817 116.068 155.819C117.159 156.049 117.958 156.911 118.016 157.927C118.111 159.615 117.436 162.632 116.675 165.836C116.426 166.877 115.298 167.521 114.151 167.278ZM106.619 155.179C106.284 155.132 105.953 155.215 105.709 155.406C105.508 155.563 105.384 155.782 105.358 156.023L104.621 163.137C104.542 163.901 105.13 164.62 105.99 164.81L114.269 166.638C114.274 166.639 114.28 166.641 114.285 166.642C115.089 166.811 115.874 166.384 116.04 165.686C116.789 162.53 117.455 159.565 117.364 157.963C117.324 157.246 116.71 156.605 115.908 156.451C114.39 156.151 111.624 155.81 109.401 155.535C108.338 155.403 107.334 155.279 106.619 155.179Z" fill="white"/>
<path opacity="0.6" d="M107.36 156.086C109.127 156.335 112.996 156.748 114.798 157.104C115.561 157.255 116.132 157.856 116.171 158.553C116.248 159.908 115.663 162.454 115.106 164.799C114.939 165.502 114.172 165.929 113.381 165.755L106.765 164.294C105.951 164.114 105.391 163.416 105.468 162.676L106.058 156.99C106.119 156.402 106.705 155.994 107.36 156.086Z" fill="white"/>
<g opacity="0.6">
<path opacity="0.6" d="M122.411 164.193C122.46 165.155 123.154 165.961 124.097 166.151L200.99 181.674C201.86 181.849 202.706 181.279 202.87 180.407C203.03 179.559 202.484 178.738 201.641 178.557L124.957 162.03C123.604 161.738 122.342 162.811 122.411 164.193Z" fill="white"/>
</g>
<path d="M107.483 157.252C108.175 157.02 108.922 157.403 109.139 158.1L110.157 161.378C110.258 161.706 110.691 161.778 110.893 161.5L116.855 153.321C117.153 152.912 117.792 153.207 117.681 153.699C117.057 156.454 115.216 161.553 109.874 165.019C109.874 165.019 107.639 163.561 106.587 158.844C106.435 158.162 106.821 157.474 107.483 157.252Z" fill="url(#paint4_linear_245_6456)"/>
<path d="M110.404 185.058C110.396 185.057 110.389 185.055 110.382 185.054L102.103 183.227C100.92 182.966 100.114 181.945 100.227 180.851L100.964 173.737C101.007 173.319 101.219 172.942 101.561 172.675C101.943 172.376 102.454 172.245 102.962 172.316C103.671 172.416 104.673 172.539 105.734 172.67C107.967 172.946 110.746 173.289 112.287 173.594C112.299 173.596 112.31 173.598 112.321 173.601C113.412 173.831 114.211 174.692 114.269 175.708C114.364 177.396 113.688 180.413 112.928 183.617C112.679 184.657 111.551 185.301 110.404 185.058ZM102.872 172.96C102.537 172.913 102.206 172.995 101.962 173.186C101.761 173.343 101.636 173.562 101.611 173.803L100.874 180.917C100.795 181.681 101.383 182.401 102.243 182.59L110.521 184.418C110.527 184.419 110.533 184.421 110.538 184.422C111.341 184.591 112.127 184.166 112.293 183.466C113.042 180.311 113.708 177.345 113.617 175.743C113.576 175.026 112.964 174.382 112.161 174.231C110.643 173.932 107.877 173.59 105.654 173.316C104.591 173.184 103.586 173.059 102.872 172.96Z" fill="white"/>
<path opacity="0.6" d="M103.612 173.866C105.38 174.115 109.249 174.528 111.05 174.885C111.814 175.036 112.385 175.636 112.424 176.333C112.5 177.688 111.916 180.234 111.359 182.58C111.192 183.282 110.424 183.709 109.634 183.535L103.017 182.074C102.204 181.894 101.644 181.196 101.721 180.456L102.31 174.771C102.372 174.183 102.958 173.774 103.612 173.866Z" fill="white"/>
<g opacity="0.6">
<path opacity="0.6" d="M118.664 181.973C118.713 182.934 119.407 183.74 120.35 183.931L197.243 199.453C198.112 199.628 198.958 199.058 199.123 198.186C199.282 197.338 198.737 196.518 197.894 196.336L121.21 179.809C119.857 179.517 118.595 180.589 118.664 181.973Z" fill="white"/>
</g>
<path d="M103.736 175.031C104.428 174.799 105.175 175.183 105.391 175.879L106.409 179.157C106.511 179.486 106.944 179.557 107.146 179.28L113.108 171.1C113.405 170.692 114.045 170.986 113.933 171.478C113.31 174.233 111.469 179.332 106.126 182.799C106.126 182.799 103.892 181.34 102.839 176.624C102.688 175.942 103.074 175.253 103.736 175.031Z" fill="url(#paint5_linear_245_6456)"/>
<path d="M0.0998223 35.9026C-0.405715 33.4844 1.34195 31.1791 3.8071 31.0166C20.1554 29.943 76.2214 25.5035 120.75 12.8433C122.781 12.2657 124.889 13.4653 125.418 15.5091L168.896 183.344C169.492 185.645 168.12 187.996 165.822 188.605C147.026 193.596 69.5608 213.86 41.0206 216.61C39.2833 216.777 37.7016 215.607 37.3446 213.899L0.0998223 35.9026Z" fill="#DECFBC"/>
<path opacity="0.6" d="M2.83683 39.7737C2.34954 37.4466 4.03293 35.2273 6.40513 35.0718C22.1376 34.0382 76.0929 29.7663 118.945 17.583C120.899 17.0271 122.927 18.1815 123.436 20.148L165.277 181.663C165.85 183.878 164.53 186.139 162.318 186.726C144.23 191.528 69.6816 211.031 42.2158 213.676C40.5445 213.837 39.0219 212.711 38.6779 211.067L2.83683 39.7737Z" fill="white"/>
<path opacity="0.78" d="M19.5673 49.4839L28.303 84.1584C28.594 85.3119 29.7224 86.0459 30.8941 85.8426C37.414 84.7091 57.7154 81.0982 69.0014 78.1875C70.2782 77.8583 71.0869 76.6075 70.8672 75.3071C69.751 68.6978 66.3469 49.4943 63.2285 41.8105C62.7247 40.5692 61.4235 39.8492 60.1024 40.0698L21.5113 46.5123C20.1198 46.7451 19.2233 48.1158 19.5673 49.4839Z" fill="white"/>
<path opacity="0.6" d="M51.8217 58.0425C52.1101 53.8115 48.9139 50.1478 44.6829 49.8594C40.4519 49.5711 36.7882 52.7672 36.4998 56.9982C36.2114 61.2293 39.4076 64.893 43.6386 65.1813C47.8696 65.4697 51.5333 62.2735 51.8217 58.0425Z" fill="#B49A92"/>
<path opacity="0.6" d="M37.216 81.9355L61.1899 77.066C62.6596 76.7672 63.2103 74.9656 62.168 73.8877C59.4848 71.115 54.2731 67.2992 46.9376 69.0095C39.867 70.6573 36.5115 75.7422 35.008 79.2045C34.3695 80.6742 35.6455 82.2543 37.216 81.9355Z" fill="#B49A92"/>
<g opacity="0.6">
<path opacity="0.6" d="M116.055 33.059C116.805 32.9061 117.297 32.2564 117.147 31.6145C116.997 30.9726 116.258 30.5609 115.505 30.6998L73.3332 38.4853C72.5802 38.6243 72.2848 39.2757 72.6783 39.9333L72.9954 40.4631C73.3888 41.1207 74.3243 41.5342 75.0757 41.3813L116.055 33.059Z" fill="white"/>
</g>
<g opacity="0.6">
<path opacity="0.6" d="M74.658 45.0116C73.9049 45.1505 73.6095 45.802 74.003 46.4595L74.3201 46.9894C74.7135 47.647 75.6491 48.0604 76.4004 47.9075L117.38 39.5844C118.131 39.4315 118.622 38.7818 118.473 38.1399C118.323 37.498 117.583 37.0863 116.83 37.2252L74.658 45.0116Z" fill="white"/>
</g>
<g opacity="0.6">
<path opacity="0.6" d="M76.0026 51.6326C75.2495 51.7716 74.9541 52.4231 75.3476 53.0806L75.6647 53.6105C76.0581 54.268 76.9937 54.6815 77.745 54.5286L118.725 46.2055C119.475 46.0526 119.967 45.4029 119.818 44.761C119.667 44.1191 118.928 43.7073 118.175 43.8463L76.0026 51.6326Z" fill="white"/>
</g>
<g opacity="0.6">
<path opacity="0.6" d="M129.291 77.3045C130.041 77.1516 130.514 76.5062 130.34 75.8686C130.166 75.2311 129.409 74.8298 128.657 74.9766L30.0586 94.1948C29.3064 94.3416 29.1717 94.8645 29.7589 95.3562L30.7682 96.2031C31.3554 96.6956 32.4499 96.9736 33.2004 96.8207L129.291 77.3045Z" fill="#B49A92"/>
</g>
<g opacity="0.6">
<path opacity="0.6" d="M31.384 100.721C30.6318 100.868 30.4972 101.391 31.0843 101.882L32.0937 102.729C32.6809 103.222 33.7753 103.5 34.5258 103.347L130.616 83.8299C131.367 83.677 131.839 83.0316 131.665 82.394C131.492 81.7565 130.734 81.3552 129.982 81.502L31.384 100.721Z" fill="#B49A92"/>
</g>
<path opacity="0.6" d="M33.1526 111.706C35.4823 111.045 39.8984 110.06 42.3305 109.531C43.3616 109.306 44.41 109.822 44.8573 110.778C45.7251 112.634 47.0628 115.892 47.7108 119.501C47.9045 120.581 47.1983 121.618 46.1203 121.826L37.0971 123.558C35.987 123.771 34.896 123.111 34.5694 122.03L32.0573 113.721C31.7967 112.86 32.2892 111.952 33.1526 111.706Z" fill="#B49A92"/>
<g opacity="0.6">
<path opacity="0.6" d="M50.5094 111.803C49.7529 111.924 49.349 112.612 49.6113 113.332L50.1238 114.739C50.3861 115.459 51.2148 115.923 51.9661 115.771L73.8328 111.329C74.5833 111.177 75.0654 110.439 74.9038 109.69L74.8239 109.322C74.6623 108.573 73.911 108.06 73.1544 108.181L50.5094 111.803Z" fill="white"/>
</g>
<path opacity="0.6" d="M82.2037 101.744C84.5333 101.083 88.9494 100.098 91.3815 99.5686C92.4125 99.3445 93.461 99.8604 93.9083 100.816C94.776 102.672 96.1137 105.93 96.7617 109.539C96.9554 110.619 96.2492 111.656 95.1713 111.864L86.1481 113.596C85.0388 113.809 83.947 113.15 83.6204 112.068L81.1083 103.759C80.8477 102.898 81.3402 101.989 82.2037 101.744Z" fill="white"/>
<g opacity="0.6">
<path opacity="0.6" d="M99.5603 101.84C98.8038 101.961 98.3999 102.649 98.6622 103.369L99.1756 104.776C99.4379 105.496 100.267 105.96 101.018 105.808L122.885 101.367C123.635 101.214 124.117 100.476 123.956 99.7277L123.876 99.3594C123.714 98.6106 122.963 98.0964 122.206 98.218L99.5603 101.84Z" fill="white"/>
</g>
<path opacity="0.6" d="M52.6818 142.732C52.674 142.734 52.6671 142.736 52.6592 142.737L44.3352 144.344C43.1461 144.574 42.0004 143.956 41.6703 142.908L39.5239 136.086C39.398 135.685 39.4432 135.255 39.6508 134.874C39.8827 134.447 40.2996 134.125 40.7947 133.988C41.4853 133.798 42.4538 133.514 43.4788 133.213C45.6382 132.58 48.3257 131.791 49.8605 131.459C50.9759 131.227 52.0573 131.695 52.5177 132.614C53.2751 134.126 53.8527 137.163 54.426 140.406C54.6119 141.461 53.831 142.499 52.6818 142.732ZM40.9667 134.616C40.641 134.705 40.37 134.913 40.2214 135.185C40.099 135.409 40.072 135.66 40.1441 135.89L42.2905 142.712C42.5207 143.445 43.3467 143.872 44.211 143.705L52.535 142.097C52.5402 142.096 52.5463 142.095 52.5515 142.094C53.3567 141.931 53.9083 141.228 53.7832 140.52C53.2186 137.325 52.6523 134.34 51.9339 132.905C51.6117 132.263 50.8082 131.933 49.9969 132.096C48.4846 132.423 45.8102 133.208 43.6612 133.838C42.6336 134.139 41.6625 134.424 40.9667 134.616Z" fill="#B49A92"/>
<path opacity="0.6" d="M42.0065 135.154C43.7272 134.681 47.4432 133.524 49.2377 133.137C49.9978 132.973 50.7604 133.298 51.0731 133.922C51.6812 135.136 52.1546 137.704 52.5741 140.078C52.7001 140.79 52.165 141.486 51.3702 141.639L44.7183 142.924C43.9001 143.082 43.1096 142.662 42.8864 141.954L41.1709 136.501C40.9937 135.937 41.3689 135.329 42.0065 135.154Z" fill="white"/>
<g opacity="0.6">
<path opacity="0.6" d="M59.0393 136.621C59.465 137.484 60.4222 137.948 61.3638 137.749L138.102 121.481C138.97 121.297 139.521 120.439 139.324 119.573C139.134 118.731 138.308 118.194 137.462 118.362L60.5169 133.625C59.1592 133.894 58.427 135.38 59.0393 136.621Z" fill="white"/>
</g>
<path opacity="0.6" d="M56.2988 160.54C56.291 160.542 56.284 160.543 56.2762 160.544L47.9522 162.152C46.7631 162.381 45.6174 161.764 45.2873 160.715L43.1409 153.892C43.015 153.492 43.0602 153.062 43.2669 152.681C43.4988 152.254 43.9157 151.932 44.4109 151.795C45.1014 151.604 46.0699 151.32 47.0949 151.02C49.2543 150.387 51.9418 149.598 53.4767 149.266C53.488 149.263 53.4992 149.261 53.5097 149.259C54.6024 149.038 55.6777 149.512 56.1329 150.421C56.8903 151.934 57.468 154.97 58.0413 158.214C58.228 159.268 57.448 160.306 56.2988 160.54ZM44.5837 152.423C44.258 152.513 43.987 152.721 43.8384 152.992C43.716 153.217 43.689 153.468 43.7611 153.698L45.9075 160.52C46.1377 161.253 46.9637 161.679 47.828 161.513L56.152 159.905C56.1572 159.904 56.1633 159.902 56.1685 159.901C56.9737 159.738 57.5253 159.035 57.4002 158.327C56.8356 155.133 56.2693 152.147 55.5509 150.713C55.2287 150.071 54.4122 149.728 53.6139 149.904C52.1025 150.23 49.4272 151.015 47.2782 151.645C46.2506 151.947 45.2786 152.231 44.5837 152.423Z" fill="#B49A92"/>
<path opacity="0.6" d="M45.6234 152.961C47.3441 152.487 51.0601 151.331 52.8546 150.944C53.6147 150.779 54.3773 151.104 54.69 151.729C55.2981 152.942 55.7715 155.511 56.191 157.885C56.317 158.596 55.7819 159.293 54.9871 159.446L48.3352 160.73C47.5169 160.888 46.7265 160.47 46.5033 159.76L44.7877 154.308C44.6097 153.744 44.9858 153.136 45.6234 152.961Z" fill="white"/>
<g opacity="0.6">
<path opacity="0.6" d="M62.6562 154.428C63.0818 155.291 64.039 155.755 64.9806 155.556L141.719 139.288C142.587 139.103 143.137 138.245 142.941 137.379C142.751 136.537 141.925 136.001 141.079 136.168L64.1337 151.432C62.776 151.701 62.0438 153.186 62.6562 154.428Z" fill="white"/>
</g>
<path opacity="0.6" d="M59.9157 178.345C59.9079 178.347 59.9009 178.349 59.8931 178.35L51.5691 179.958C50.38 180.188 49.2343 179.57 48.9042 178.521L46.7578 171.699C46.6319 171.298 46.677 170.868 46.8846 170.486C47.1166 170.06 47.5335 169.737 48.0286 169.6C48.7192 169.41 49.6877 169.126 50.7127 168.825C52.872 168.192 55.5596 167.403 57.0944 167.072C57.1057 167.069 57.117 167.066 57.1274 167.065C58.2201 166.843 59.2955 167.317 59.7507 168.227C60.5081 169.739 61.0857 172.776 61.659 176.019C61.8449 177.075 61.064 178.113 59.9157 178.345ZM48.2006 170.229C47.8749 170.319 47.6039 170.526 47.4553 170.798C47.3329 171.022 47.3059 171.273 47.378 171.503L49.5244 178.326C49.7546 179.059 50.5806 179.485 51.4449 179.318L59.7698 177.711C59.775 177.71 59.7811 177.708 59.7863 177.707C60.5915 177.544 61.1431 176.841 61.018 176.133C60.4534 172.938 59.887 169.953 59.1687 168.519C58.8464 167.877 58.029 167.531 57.2317 167.709C55.7203 168.036 53.0449 168.821 50.8959 169.451C49.8666 169.753 48.8955 170.038 48.2006 170.229Z" fill="#B49A92"/>
<path opacity="0.6" d="M49.2404 170.767C50.9611 170.294 54.677 169.138 56.4716 168.75C57.2316 168.586 57.9943 168.911 58.307 169.536C58.915 170.749 59.3884 173.317 59.808 175.691C59.9339 176.403 59.3989 177.099 58.6041 177.252L51.9522 178.537C51.1339 178.695 50.3435 178.276 50.1203 177.566L48.4047 172.114C48.2267 171.551 48.6019 170.943 49.2404 170.767Z" fill="white"/>
<g opacity="0.6">
<path opacity="0.6" d="M66.2731 172.234C66.6987 173.098 67.656 173.562 68.5975 173.363L145.336 157.094C146.204 156.91 146.754 156.052 146.558 155.186C146.368 154.344 145.542 153.807 144.696 153.975L67.7506 169.238C66.393 169.508 65.6599 170.993 66.2731 172.234Z" fill="white"/>
</g>
<path d="M63.5327 196.152C63.5249 196.154 63.5179 196.156 63.5101 196.156L55.1861 197.764C53.9969 197.994 52.8512 197.377 52.5211 196.328L50.3748 189.505C50.2488 189.104 50.294 188.673 50.5016 188.292C50.7335 187.865 51.1505 187.543 51.6456 187.407C52.3361 187.217 53.3046 186.933 54.3296 186.632C56.489 185.999 59.1765 185.21 60.7114 184.878C60.7227 184.876 60.734 184.873 60.7444 184.871C61.8371 184.65 62.9125 185.124 63.3676 186.034C64.1251 187.546 64.7027 190.583 65.276 193.826C65.4619 194.881 64.681 195.919 63.5327 196.152ZM51.8167 188.036C51.491 188.125 51.2199 188.333 51.0714 188.605C50.9489 188.829 50.922 189.08 50.9941 189.31L53.1405 196.132C53.3707 196.865 54.1967 197.292 55.061 197.125L63.3859 195.517C63.3911 195.516 63.3972 195.515 63.4024 195.514C64.2076 195.35 64.7592 194.648 64.6341 193.94C64.0695 190.745 63.5031 187.76 62.7848 186.325C62.4625 185.683 61.6452 185.335 60.8478 185.516C59.3364 185.842 56.661 186.628 54.512 187.257C53.4836 187.56 52.5125 187.845 51.8167 188.036Z" fill="white"/>
<path opacity="0.6" d="M52.8563 188.574C54.5771 188.1 58.293 186.944 60.0876 186.557C60.8477 186.393 61.6103 186.718 61.923 187.342C62.5311 188.556 63.0045 191.124 63.424 193.498C63.55 194.209 63.0149 194.906 62.2201 195.059L55.5682 196.344C54.7499 196.502 53.9595 196.082 53.7362 195.373L52.0207 189.921C51.8435 189.356 52.2188 188.749 52.8563 188.574Z" fill="white"/>
<g opacity="0.6">
<path opacity="0.6" d="M69.8892 190.041C70.3148 190.904 71.2721 191.368 72.2136 191.169L148.952 174.901C149.82 174.717 150.37 173.859 150.174 172.992C149.984 172.151 149.158 171.614 148.312 171.782L71.3667 187.045C70.0099 187.314 69.2768 188.8 69.8892 190.041Z" fill="white"/>
</g>
<path d="M53.4324 189.595C53.9752 189.108 54.8135 189.162 55.2886 189.717L57.5244 192.322C57.7485 192.582 58.1733 192.476 58.2488 192.142L60.4751 182.267C60.5863 181.775 61.289 181.791 61.3828 182.287C61.9031 185.063 62.2375 190.474 58.7101 195.776C58.7101 195.776 56.0808 195.324 53.2421 191.412C52.8321 190.847 52.9129 190.061 53.4324 189.595Z" fill="url(#paint6_linear_245_6456)"/>
<path d="M50.4086 53.1033C50.4086 45.8407 56.2961 39.9541 63.5578 39.9541H175.381C181.55 39.9541 186.637 44.7888 186.951 50.95L195.205 213.072C195.451 217.894 191.655 221.961 186.828 222.048L58.6648 224.378C54.1297 224.46 50.4086 220.806 50.4086 216.27V53.1033Z" fill="#9A6D2B"/>
<path d="M59.5699 42.4485C59.556 40.125 61.5999 38.3269 63.9017 38.6387C79.1721 40.7095 131.683 47.1139 175.098 43.7819C177.078 43.6298 178.796 45.13 178.902 47.113L187.557 209.958C187.676 212.191 185.971 214.1 183.738 214.232C165.478 215.313 90.2791 219.49 63.457 216.681C61.8248 216.51 60.5853 215.136 60.5758 213.494L59.5699 42.4485Z" fill="#DECFBC"/>
<path opacity="0.6" d="M61.368 46.5295C61.355 44.2937 63.3215 42.5625 65.5374 42.8631C80.2327 44.8557 130.766 51.0194 172.547 47.8125C174.453 47.6666 176.106 49.1102 176.208 51.0177L184.537 207.731C184.651 209.88 183.01 211.717 180.862 211.845C163.29 212.884 90.9228 216.904 65.11 214.201C63.5387 214.037 62.3469 212.714 62.3374 211.134L61.368 46.5295Z" fill="white"/>
<path opacity="0.78" d="M74.9722 58.6114L76.5331 92.2088C76.5853 93.3258 77.4878 94.2145 78.6057 94.2466C84.8276 94.4221 104.217 94.8946 115.165 94.3239C116.404 94.2596 117.384 93.2572 117.424 92.0177C117.633 85.7167 118.09 67.3775 116.654 59.7119C116.422 58.4733 115.358 57.5665 114.098 57.5222L77.3201 56.2357C75.9937 56.1906 74.9106 57.2859 74.9722 58.6114Z" fill="white"/>
<path d="M96.1354 77.8465C100.124 77.8465 103.358 74.6129 103.358 70.6239C103.358 66.635 100.124 63.4014 96.1354 63.4014C92.1465 63.4014 88.9128 66.635 88.9128 70.6239C88.9128 74.6129 92.1465 77.8465 96.1354 77.8465Z" fill="#F08537"/>
<path d="M85.1646 91.8283H108.174C109.585 91.8283 110.43 90.2708 109.671 89.0817C107.717 86.0233 103.627 81.5308 96.5453 81.7332C89.7197 81.9286 85.6745 85.9868 83.6402 88.8976C82.7768 90.1336 83.6567 91.8283 85.1646 91.8283Z" fill="#F08537"/>
<path d="M75.8452 118.51C78.1167 118.337 82.3712 118.256 84.713 118.223C85.7049 118.209 86.5753 118.881 86.8081 119.845C87.2598 121.719 87.8834 124.973 87.8053 128.42C87.7818 129.451 86.9358 130.276 85.9039 130.265L77.262 130.172C76.1996 130.16 75.3171 129.348 75.2181 128.289L74.4581 120.16C74.379 119.32 75.0027 118.576 75.8452 118.51Z" fill="#8B6F66"/>
<path d="M122.924 118.51C125.195 118.337 129.45 118.256 131.791 118.223C132.783 118.209 133.654 118.881 133.887 119.845C134.338 121.719 134.962 124.973 134.884 128.42C134.86 129.451 134.014 130.276 132.982 130.265L124.34 130.172C123.278 130.16 122.395 129.348 122.296 128.289L121.536 120.16C121.458 119.32 122.082 118.576 122.924 118.51Z" fill="#8B6F66"/>
<path opacity="0.6" d="M88.0381 150.765C88.0311 150.765 88.0233 150.765 88.0164 150.765L80.0424 150.689C78.9028 150.677 77.9629 149.894 77.8544 148.865L77.1534 142.174C77.1125 141.782 77.2342 141.394 77.4965 141.081C77.7901 140.732 78.2348 140.512 78.7169 140.479C79.3883 140.433 80.3351 140.352 81.3367 140.267C83.4457 140.087 86.0706 139.864 87.5473 139.846C88.6192 139.841 89.5278 140.475 89.7805 141.408C90.1957 142.943 90.1592 145.85 90.0802 148.948C90.0541 149.954 89.1404 150.765 88.0381 150.765ZM78.7586 141.09C78.4415 141.112 78.1532 141.253 77.9655 141.475C77.8109 141.659 77.7388 141.885 77.7623 142.11L78.4633 148.801C78.5388 149.519 79.2198 150.068 80.0476 150.076L88.0216 150.153C88.0268 150.153 88.032 150.153 88.0372 150.153C88.8103 150.153 89.4496 149.608 89.467 148.932C89.5451 145.882 89.5816 143.024 89.1881 141.567C89.0118 140.915 88.3325 140.461 87.5542 140.458C86.0993 140.476 83.4865 140.699 81.3879 140.878C80.3838 140.963 79.4352 141.044 78.7586 141.09Z" fill="#B49A92"/>
<path d="M79.9565 142.83C80.5489 142.483 81.3107 142.69 81.6451 143.29L83.2182 146.109C83.3754 146.392 83.7871 146.373 83.92 146.079L87.821 137.394C88.0156 136.96 88.661 137.107 88.654 137.582C88.614 140.238 87.9096 145.289 83.6647 149.515C83.6647 149.515 81.3255 148.606 79.4414 144.469C79.1678 143.871 79.3902 143.162 79.9565 142.83Z" fill="#F08537"/>
<path opacity="0.6" d="M88.0381 167.857C88.0311 167.857 88.0233 167.857 88.0164 167.857L80.0424 167.78C78.9028 167.769 77.9629 166.986 77.8544 165.957L77.1534 159.266C77.1125 158.874 77.2342 158.485 77.4965 158.173C77.7901 157.823 78.2348 157.604 78.7169 157.571C79.3883 157.525 80.3351 157.444 81.3367 157.359C83.4457 157.179 86.0706 156.956 87.5473 156.938C87.5577 156.938 87.569 156.938 87.5794 156.938C88.6279 156.938 89.5304 157.576 89.7805 158.499C90.1957 160.035 90.1592 162.942 90.0802 166.04C90.0541 167.046 89.1404 167.857 88.0381 167.857ZM78.7586 158.182C78.4415 158.204 78.1532 158.345 77.9655 158.567C77.8109 158.751 77.7388 158.977 77.7623 159.202L78.4633 165.893C78.5388 166.611 79.2198 167.159 80.0476 167.168L88.0216 167.244C88.0268 167.244 88.032 167.244 88.0372 167.244C88.8103 167.244 89.4496 166.7 89.467 166.024C89.5451 162.974 89.5816 160.116 89.1881 158.659C89.0118 158.007 88.323 157.538 87.5542 157.55C86.0993 157.568 83.4874 157.79 81.3879 157.969C80.3838 158.055 79.4352 158.135 78.7586 158.182Z" fill="#B49A92"/>
<path d="M79.9565 159.921C80.5489 159.574 81.3107 159.781 81.6451 160.381L83.2182 163.2C83.3754 163.482 83.7871 163.464 83.92 163.17L87.821 154.484C88.0156 154.051 88.661 154.198 88.654 154.673C88.614 157.329 87.9096 162.379 83.6647 166.606C83.6647 166.606 81.3255 165.697 79.4414 161.56C79.1678 160.963 79.3902 160.254 79.9565 159.921Z" fill="#F08537"/>
<path opacity="0.6" d="M88.0381 184.947C88.0311 184.947 88.0233 184.947 88.0164 184.947L80.0424 184.87C78.9028 184.86 77.9629 184.076 77.8544 183.047L77.1534 176.356C77.1125 175.964 77.2342 175.575 77.4965 175.263C77.7901 174.913 78.2348 174.694 78.7169 174.661C79.3883 174.615 80.3351 174.534 81.3367 174.449C83.4457 174.269 86.0706 174.046 87.5473 174.027C87.5577 174.027 87.569 174.027 87.5794 174.027C88.6279 174.027 89.5304 174.666 89.7805 175.589C90.1957 177.125 90.1592 180.032 90.0802 183.13C90.0541 184.136 89.1404 184.947 88.0381 184.947ZM78.7586 175.272C78.4415 175.294 78.1532 175.435 77.9655 175.657C77.8109 175.841 77.7388 176.067 77.7623 176.293L78.4633 182.984C78.5388 183.702 79.2198 184.25 80.0476 184.258L88.0216 184.334C88.0268 184.334 88.032 184.334 88.0372 184.334C88.8103 184.334 89.4496 183.79 89.467 183.114C89.5451 180.063 89.5816 177.206 89.1881 175.749C89.0118 175.097 88.323 174.625 87.5542 174.64C86.0993 174.658 83.4874 174.88 81.3879 175.059C80.3838 175.145 79.4352 175.226 78.7586 175.272Z" fill="#B49A92"/>
<path d="M79.9565 177.012C80.5489 176.665 81.3107 176.872 81.6451 177.471L83.2182 180.291C83.3754 180.573 83.7871 180.555 83.92 180.261L87.821 171.575C88.0156 171.142 88.661 171.289 88.654 171.764C88.614 174.42 87.9096 179.47 83.6647 183.697C83.6647 183.697 81.3255 182.788 79.4414 178.651C79.1678 178.053 79.3902 177.345 79.9565 177.012Z" fill="#F08537"/>
<path opacity="0.6" d="M88.0381 202.038C88.0311 202.038 88.0233 202.038 88.0164 202.038L80.0424 201.961C78.9028 201.951 77.9629 201.167 77.8544 200.138L77.1534 193.447C77.1125 193.054 77.2342 192.666 77.4965 192.353C77.7901 192.004 78.2348 191.784 78.7169 191.751C79.3883 191.705 80.3351 191.625 81.3367 191.539C83.4457 191.36 86.0706 191.136 87.5473 191.118C87.5577 191.118 87.569 191.118 87.5794 191.118C88.6279 191.118 89.5304 191.757 89.7805 192.68C90.1957 194.216 90.1592 197.123 90.0802 200.221C90.0541 201.227 89.1404 202.038 88.0381 202.038ZM78.7586 192.363C78.4415 192.385 78.1532 192.525 77.9655 192.748C77.8109 192.932 77.7388 193.158 77.7623 193.384L78.4633 200.075C78.5388 200.793 79.2198 201.341 80.0476 201.349L88.0216 201.425C88.0268 201.425 88.032 201.425 88.0372 201.425C88.8103 201.425 89.4496 200.881 89.467 200.205C89.5451 197.154 89.5816 194.296 89.1881 192.84C89.0118 192.187 88.323 191.714 87.5542 191.731C86.0993 191.749 83.4874 191.971 81.3879 192.15C80.3838 192.236 79.4352 192.317 78.7586 192.363Z" fill="#B49A92"/>
<path opacity="0.6" d="M166.985 61.5371C167.706 61.5371 168.28 61.0298 168.263 60.4097C168.245 59.7895 167.64 59.2718 166.92 59.2596L126.59 58.5412C125.87 58.5282 125.476 59.0737 125.715 59.7538L125.908 60.3019C126.148 60.9821 126.933 61.538 127.653 61.538H166.985V61.5371Z" fill="#B49A92"/>
<g opacity="0.6">
<path opacity="0.6" d="M126.59 64.8039C125.87 64.7909 125.476 65.3364 125.715 66.0165L125.908 66.5646C126.148 67.2447 126.933 67.8007 127.653 67.8007H166.985C167.706 67.8007 168.28 67.2934 168.263 66.6732C168.245 66.053 167.64 65.5353 166.92 65.5232L126.59 64.8039Z" fill="#B49A92"/>
</g>
<g opacity="0.6">
<path opacity="0.6" d="M126.59 71.1575C125.87 71.1444 125.476 71.6899 125.715 72.3701L125.908 72.9182C126.148 73.5983 126.933 74.1542 127.653 74.1542H166.985C167.706 74.1542 168.28 73.647 168.263 73.0268C168.245 72.4066 167.64 71.8888 166.92 71.8767L126.59 71.1575Z" fill="#B49A92"/>
</g>
<g opacity="0.6">
<path opacity="0.6" d="M170.903 104.798C171.624 104.798 172.18 104.291 172.139 103.671C172.098 103.05 171.475 102.539 170.754 102.534L76.2717 101.789C75.5508 101.783 75.3284 102.24 75.7775 102.804L76.5497 103.773C76.9988 104.337 77.9551 104.798 78.6761 104.798H170.903Z" fill="#B49A92"/>
</g>
<g opacity="0.6">
<path opacity="0.6" d="M76.2717 108.052C75.5508 108.046 75.3284 108.503 75.7775 109.066L76.5497 110.036C76.9988 110.599 77.9551 111.061 78.6761 111.061H170.904C171.625 111.061 172.181 110.553 172.14 109.933C172.099 109.313 171.476 108.801 170.755 108.796L76.2717 108.052Z" fill="#B49A92"/>
</g>
<g opacity="0.6">
<path opacity="0.6" d="M91.8261 121.849C91.106 121.818 90.6048 122.377 90.7116 123.09L90.921 124.483C91.0278 125.196 91.7053 125.779 92.4254 125.779H113.413C114.134 125.779 114.716 125.189 114.707 124.469L114.703 124.115C114.694 123.394 114.098 122.78 113.377 122.75L91.8261 121.849Z" fill="#B49A92"/>
</g>
<g opacity="0.6">
<path opacity="0.6" d="M138.905 121.849C138.185 121.818 137.683 122.377 137.79 123.09L138 124.483C138.106 125.196 138.784 125.779 139.504 125.779H160.492C161.213 125.779 161.795 125.189 161.786 124.469L161.782 124.115C161.773 123.394 161.176 122.78 160.456 122.75L138.905 121.849Z" fill="#B49A92"/>
</g>
<g opacity="0.6">
<path opacity="0.6" d="M95.0418 146.322C95.2728 147.198 96.0676 147.805 96.9736 147.797L170.754 147.168C171.589 147.161 172.257 146.472 172.239 145.639C172.221 144.827 171.56 144.178 170.749 144.174L96.9658 143.838C95.6628 143.832 94.71 145.063 95.0418 146.322Z" fill="#B49A92"/>
</g>
<g opacity="0.6">
<path opacity="0.6" d="M95.0418 163.413C95.2728 164.289 96.0676 164.896 96.9736 164.888L170.754 164.259C171.589 164.252 172.257 163.563 172.239 162.729C172.221 161.918 171.56 161.268 170.749 161.265L96.9658 160.929C95.6628 160.922 94.71 162.154 95.0418 163.413Z" fill="#B49A92"/>
</g>
<g opacity="0.6">
<path opacity="0.6" d="M95.0418 180.505C95.2728 181.38 96.0676 181.988 96.9736 181.98L170.754 181.351C171.589 181.344 172.257 180.655 172.239 179.821C172.221 179.01 171.56 178.36 170.749 178.357L96.9658 178.021C95.6628 178.014 94.71 179.245 95.0418 180.505Z" fill="#B49A92"/>
</g>
<g opacity="0.6">
<path opacity="0.6" d="M95.0418 197.597C95.2728 198.472 96.0676 199.079 96.9736 199.071L170.754 198.443C171.589 198.436 172.257 197.747 172.239 196.913C172.221 196.102 171.56 195.452 170.749 195.448L96.9658 195.112C95.6628 195.105 94.71 196.337 95.0418 197.597Z" fill="#B49A92"/>
</g>
<path d="M79.9565 194.103C80.5489 193.755 81.3107 193.963 81.6451 194.562L83.2182 197.382C83.3754 197.664 83.7871 197.646 83.92 197.351L87.821 188.666C88.0156 188.233 88.661 188.379 88.654 188.855C88.614 191.511 87.9096 196.561 83.6647 200.788C83.6647 200.788 81.3255 199.878 79.4414 195.742C79.1678 195.144 79.3902 194.435 79.9565 194.103Z" fill="#F08537"/>
<path d="M126.404 17.8497C122.365 15.0397 118.852 15.0953 116.38 15.8249C114.125 16.4903 112.663 18.6679 112.878 21.0097L113.945 32.6475L126.633 33.7732C126.632 33.7732 134.326 23.3602 126.404 17.8497ZM120.825 27.2386C119.078 27.2386 117.662 25.8219 117.662 24.0751C117.662 22.3274 119.078 20.9115 120.825 20.9115C122.573 20.9115 123.989 22.3283 123.989 24.0751C123.989 25.8219 122.572 27.2386 120.825 27.2386Z" fill="#B49A92"/>
<path d="M115.212 27.7512C115.056 27.7512 114.922 27.6322 114.907 27.4733L114.737 25.6196C114.721 25.4511 114.846 25.3026 115.014 25.2869C115.186 25.2704 115.332 25.3955 115.347 25.564L115.516 27.4177C115.532 27.5862 115.408 27.7347 115.239 27.7504C115.23 27.7512 115.221 27.7512 115.212 27.7512ZM114.879 24.1195C114.723 24.1195 114.589 24.0005 114.575 23.8416L114.445 22.4344C114.241 20.2038 115.645 18.1269 117.782 17.4954C119.296 17.0481 120.857 16.9847 122.419 17.3052C122.585 17.3391 122.692 17.5006 122.657 17.6665C122.623 17.8316 122.462 17.9375 122.296 17.9045C120.832 17.6049 119.372 17.6648 117.955 18.0826C116.096 18.6316 114.877 20.4383 115.054 22.3788L115.183 23.786C115.198 23.9545 115.074 24.103 114.905 24.1186C114.898 24.1195 114.888 24.1195 114.879 24.1195Z" fill="white"/>
<path d="M96.6279 40.1676V34.3165C96.6279 32.297 98.3018 30.6788 100.32 30.7483L140.662 32.1302C142.452 32.1919 143.902 33.6043 144.009 35.3928L144.346 41.0145L96.6279 40.1676Z" fill="#B49A92"/>
<path d="M111.671 32.9533H109.936C109.767 32.9533 109.63 32.8161 109.63 32.6475C109.63 32.4782 109.767 32.3418 109.936 32.3418H111.671C111.84 32.3418 111.976 32.479 111.976 32.6475C111.976 32.8161 111.839 32.9533 111.671 32.9533Z" fill="white"/>
<path d="M98.8116 38.3309C98.6422 38.3309 98.5059 38.1937 98.5059 38.0252V35.6582C98.5059 33.8289 99.9938 32.3418 101.822 32.3418H108.201C108.37 32.3418 108.506 32.479 108.506 32.6476C108.506 32.8169 108.369 32.9533 108.201 32.9533H101.822C100.331 32.9533 99.1182 34.1668 99.1182 35.6573V38.0243C99.1174 38.1937 98.981 38.3309 98.8116 38.3309Z" fill="white"/>
<path d="M155.026 78.3871L145.53 70.6434L136.033 78.3871C136.79 71.1038 137.143 62.977 136.743 54.1587C136.615 51.3505 136.418 48.63 136.165 46.0032C136.133 45.6653 136.244 45.3301 136.472 45.079C136.701 44.828 137.024 44.6855 137.363 44.6855C142.871 44.6855 148.38 44.6855 153.887 44.6855C154.527 44.6855 155.054 45.1859 155.088 45.8234C155.299 49.8582 155.436 54.0328 155.481 58.3403C155.557 65.3674 155.382 72.061 155.026 78.3871Z" fill="#C5964F"/>
<path d="M80.191 41.6458C80.2883 39.6193 81.9595 38.0271 83.9878 38.0271L154.532 38.0254C157.068 38.0254 159.237 39.8504 159.67 42.3503L159.73 42.6951C160.204 45.433 158.096 47.9364 155.317 47.9364H82.9428C81.2803 47.9364 79.9548 46.5457 80.0347 44.8849L80.191 41.6458Z" fill="#8B6F66"/>
<path d="M203.345 236.931C199.65 237.101 196.072 236.995 193.684 236.871C195.858 235.323 200.868 231.956 205.06 230.615L207.938 230.443C207.938 230.443 208.914 231.926 209.261 235.32C208.784 235.915 207.391 236.745 203.345 236.931Z" fill="#4F3A31"/>
<path d="M193.655 236.893C193.664 236.886 193.675 236.879 193.684 236.872C196.072 236.994 199.65 237.101 203.345 236.932C207.39 236.746 208.784 235.915 209.261 235.32C209.277 235.477 209.293 235.632 209.307 235.796C209.367 236.541 208.814 237.195 208.069 237.251C205.043 237.48 197.539 237.998 193.92 237.808C193.443 237.783 193.266 237.17 193.655 236.893Z" fill="#4F3A31"/>
<path d="M229.776 235.942C230.047 234.207 230.481 231.698 230.816 231.057C231.342 230.052 233.143 231.057 233.143 231.057C233.143 231.057 234.407 231.647 234.989 232.63C235.36 233.256 236.385 235.038 237.08 236.247C237.16 236.386 237.193 236.535 237.19 236.678L229.979 236.93C229.803 236.648 229.72 236.303 229.776 235.942Z" fill="#4F3A31"/>
<path d="M237.189 236.679C237.177 237.09 236.85 237.464 236.39 237.477L231.253 237.619C230.71 237.633 230.24 237.352 229.979 236.931L237.189 236.679Z" fill="#4F3A31"/>
<path d="M229.225 225.292C229.288 225.5 230.219 230.016 230.627 231.999C230.74 232.547 231.234 232.932 231.792 232.903C232.097 232.888 232.452 232.861 232.824 232.812C233.484 232.727 233.987 232.175 234.013 231.51C234.079 229.774 234.112 226.44 233.475 225.148C232.595 223.366 229.225 225.292 229.225 225.292Z" fill="#FFC297"/>
<path d="M208.504 226.585C208.105 226.572 208.664 228.648 208.06 230.688C207.923 231.149 207.579 231.51 207.099 231.516C206.788 231.521 206.42 231.514 206.045 231.484C205.483 231.439 205.03 231.002 204.978 230.44L204.486 225.147L208.504 226.585Z" fill="#FFC297"/>
<path d="M197.327 170.328C197.505 171.197 203.801 207.916 204.183 226.917C204.189 227.236 204.424 227.502 204.74 227.547C205.539 227.658 207.096 227.801 208.604 227.522C208.811 227.483 208.967 227.313 208.98 227.103C209.199 223.562 210.969 193.624 208.802 179.531C208.802 179.531 226.702 217.204 229.416 227.592C229.482 227.845 229.714 228.015 229.974 228.001C230.741 227.96 232.335 227.823 233.601 227.356C234.054 227.19 234.313 226.713 234.198 226.243C232.683 220.026 222.058 177.195 214.845 167.758L197.327 170.328Z" fill="#FBC16B"/>
<path d="M208.801 179.767C208.86 179.767 208.92 179.744 208.966 179.7C209.059 179.609 209.06 179.46 208.969 179.368L206.573 176.917C206.482 176.824 206.333 176.822 206.24 176.913C206.147 177.003 206.145 177.153 206.236 177.246L208.633 179.697C208.68 179.743 208.741 179.767 208.801 179.767Z" fill="url(#paint7_linear_245_6456)"/>
<path d="M191.273 122.942C196.628 122.137 207.138 120.984 213.994 122.995L213.251 144.185L188.412 141.507L186.305 138.512C186.305 138.512 187.281 123.543 191.273 122.942Z" fill="#C5964F"/>
<path d="M203.644 111.598C203.644 111.598 204.14 120.026 204.046 122.647C204.046 122.647 197.146 123.777 195.504 122.596L196.802 112.605L203.644 111.598Z" fill="#FFC297"/>
<path d="M196.477 114.67C196.477 114.67 196.331 116.474 196.083 118.158C199.278 118.557 201.399 115.92 202.332 114.42L196.477 114.67Z" fill="#D5956B"/>
<path d="M196.936 103.158C196.936 103.158 194.158 108.035 193.72 110.704C193.281 113.373 192.515 115.053 195.561 115.929C198.608 116.803 201.39 115.539 203.095 113.016C203.095 113.016 205.76 109.133 205.443 107.392C205.127 105.649 196.936 103.158 196.936 103.158Z" fill="#FFC297"/>
<path d="M202.242 110.978L201.849 110.935C201.849 110.935 203.823 107.792 202.465 107.056C201.106 106.32 195.601 104.566 194.601 102.437C193.638 100.386 194.95 98.0109 196.587 97.4828C196.69 97.4498 196.802 97.5089 196.842 97.6096L196.946 97.8685C197.016 98.0457 197.267 98.0474 197.339 97.8702C197.408 97.7026 197.645 97.6904 197.723 97.8529C198.031 98.4904 198.933 99.5701 201.579 100.359C205.334 101.478 207.7 103.302 207.477 105.956C207.463 106.125 207.632 106.236 207.784 106.165C208.086 106.023 208.547 105.991 209.097 106.564C210.053 107.562 209.376 109.81 206.867 111.449C206.748 111.528 206.731 111.699 206.841 111.788C207.23 112.105 207.784 112.82 206.076 113.51C204.329 114.215 203.361 114.014 203.003 113.879C202.906 113.842 202.849 113.745 202.866 113.644L203.264 111.313C203.285 111.192 203.199 111.079 203.077 111.066L202.242 110.978Z" fill="#55443C"/>
<path d="M202.092 111.458C202.092 111.458 203.294 108.282 204.661 109.355C206.027 110.43 203.506 112.936 202.315 112.931L202.092 111.458Z" fill="#FFC297"/>
<path d="M172.341 139.518L172.999 136.928C173.325 135.648 174.599 134.849 175.895 135.113L237.926 147.769C239.339 148.057 240.247 149.44 239.949 150.85L236.167 168.777L172.341 139.518Z" fill="#F08537"/>
<path d="M166.46 170.963L171.125 137.431C171.221 136.737 171.889 136.274 172.573 136.425L236.285 150.573C237.644 150.876 238.497 152.227 238.184 153.585L232.837 176.763L166.46 170.963Z" fill="white"/>
<path d="M168.142 169.444L169.929 139.514C169.975 138.744 170.694 138.196 171.448 138.356L235.83 151.979C236.738 152.171 237.336 153.041 237.191 153.957L233.761 175.577L168.142 169.444Z" fill="white"/>
<path d="M163.479 176.519L167.532 144.101C167.734 142.485 169.257 141.375 170.857 141.676L236.875 154.137C238.213 154.39 239.094 155.679 238.841 157.018L233.266 186.56C233.002 187.954 231.695 188.898 230.289 188.71L166.29 180.163C164.511 179.927 163.256 178.3 163.479 176.519Z" fill="#F08537"/>
<path d="M194.087 146.061C193.827 147.436 192.502 148.341 191.127 148.081L176.407 145.303C175.032 145.044 174.127 143.718 174.387 142.343C174.646 140.968 175.972 140.063 177.347 140.323L192.067 143.101C193.442 143.36 194.347 144.686 194.087 146.061Z" fill="#F08537"/>
<path d="M207.066 132.235L213.994 122.995C213.994 122.995 225.127 134.821 227.262 149.832L220.318 153.219C218.163 148.164 214.196 141.317 207.066 132.235Z" fill="#C5964F"/>
<path d="M216.993 173.856C217.814 172.482 219.416 169.869 220.195 169.053C220.195 169.053 219.483 168.603 218.116 168.771C216.749 168.938 215.678 168.272 215.719 167.528L222.241 165.527C222.534 164.915 223.824 161.441 220.318 153.219L227.262 149.832C228.062 155.452 227.604 161.517 224.823 167.576C224.823 167.576 222.666 174.274 220.189 175.76C213.723 179.639 216.677 174.383 216.993 173.856Z" fill="#FFC297"/>
<g opacity="0.6">
<path d="M51.1581 86.9474L49.79 88.6803L49.7848 88.6864C49.6849 88.8123 49.5017 88.834 49.3757 88.7341C49.2498 88.6342 49.228 88.451 49.3279 88.325C49.3288 88.3233 49.3314 88.3207 49.3323 88.3198L50.7516 86.6078C50.8446 86.4948 51.0113 86.4792 51.1243 86.573C51.2346 86.6651 51.2519 86.8284 51.1633 86.9404L51.1581 86.9474Z" fill="#B49A92"/>
<path d="M46.5328 93.2566L44.2136 96.9569L44.2023 96.9743C44.085 97.1619 43.8375 97.2184 43.6498 97.1011C43.4622 96.9838 43.4058 96.7363 43.523 96.5487C43.5239 96.5469 43.5265 96.5434 43.5274 96.5417L45.9395 92.8536C46.0481 92.6876 46.2696 92.6416 46.4355 92.7502C46.5988 92.857 46.6466 93.075 46.5432 93.2401L46.5328 93.2566Z" fill="#B49A92"/>
<path d="M41.519 101.879L39.6585 105.824L39.6472 105.848C39.5316 106.093 39.2398 106.197 38.9948 106.082C38.7499 105.967 38.6456 105.675 38.7603 105.43C38.7612 105.428 38.7629 105.424 38.7638 105.422L40.7156 101.465C40.8259 101.241 41.096 101.149 41.3193 101.26C41.5399 101.368 41.632 101.634 41.5277 101.855L41.519 101.879Z" fill="#B49A92"/>
<path d="M37.5869 111.031L36.2362 115.173L36.2257 115.204C36.1267 115.508 35.8001 115.674 35.4961 115.575C35.1921 115.476 35.0262 115.149 35.1252 114.845C35.1261 114.842 35.1278 114.837 35.1287 114.835L36.5732 110.659C36.6705 110.378 36.978 110.228 37.2594 110.326C37.5382 110.422 37.6868 110.723 37.5964 111.002L37.5869 111.031Z" fill="#B49A92"/>
<path d="M34.8454 120.591L34.0402 124.865L34.0333 124.903C33.9673 125.253 33.6302 125.482 33.281 125.417C32.931 125.351 32.7017 125.014 32.7677 124.665L32.7685 124.658L33.6354 120.319C33.7023 119.983 34.0298 119.765 34.3651 119.833C34.6986 119.9 34.9158 120.222 34.8533 120.555L34.8454 120.591Z" fill="#B49A92"/>
<path d="M33.3818 130.416L33.169 134.756L33.1664 134.798C33.1473 135.184 32.8198 135.481 32.4342 135.462C32.0485 135.443 31.7514 135.115 31.7705 134.73L31.7714 134.722L32.0363 130.301C32.0589 129.93 32.3786 129.646 32.7503 129.668C33.1195 129.69 33.4018 130.005 33.3844 130.374L33.3818 130.416Z" fill="#B49A92"/>
<path d="M33.2802 140.339L33.665 144.665L33.6694 144.71C33.7059 145.125 33.4001 145.49 32.9858 145.528C32.5714 145.564 32.2057 145.258 32.1684 144.844L32.1675 144.836L31.8227 140.418C31.7914 140.016 32.0911 139.665 32.4924 139.634C32.8911 139.603 33.2403 139.898 33.275 140.296L33.2802 140.339Z" fill="#B49A92"/>
<path d="M34.5406 150.178L35.5126 154.408L35.523 154.455C35.6229 154.889 35.3519 155.322 34.9167 155.422C34.4816 155.522 34.049 155.251 33.9482 154.816L33.9465 154.807L32.9997 150.475C32.9076 150.052 33.1752 149.635 33.5982 149.542C34.0177 149.45 34.4329 149.714 34.5285 150.132L34.5406 150.178Z" fill="#B49A92"/>
<path d="M37.1265 159.747L38.6431 163.812L38.6604 163.859C38.8246 164.298 38.6014 164.787 38.1619 164.95C37.7232 165.115 37.2342 164.891 37.07 164.452L37.0683 164.447L35.5386 160.283C35.3788 159.849 35.602 159.368 36.0364 159.208C36.4707 159.048 36.9519 159.271 37.1117 159.706L37.1265 159.747Z" fill="#B49A92"/>
<path d="M40.9267 168.902L42.9541 172.738L42.9767 172.781C43.1999 173.204 43.0383 173.729 42.6144 173.953C42.1914 174.177 41.6668 174.014 41.4435 173.591L41.4418 173.589L39.384 169.659C39.1643 169.239 39.3258 168.72 39.7463 168.5C40.1667 168.28 40.6861 168.441 40.9059 168.862L40.9267 168.902Z" fill="#B49A92"/>
<path d="M45.8665 177.496L48.3604 181.048L48.3882 181.088C48.6687 181.487 48.5723 182.04 48.1727 182.32C47.7723 182.601 47.2207 182.504 46.9393 182.105L46.9376 182.102L44.402 178.463C44.125 178.065 44.2231 177.519 44.6201 177.242C45.017 176.964 45.5643 177.063 45.8414 177.46L45.8665 177.496Z" fill="#B49A92"/>
<path d="M51.8435 185.403L54.7604 188.613L54.7942 188.651C55.1295 189.02 55.1026 189.59 54.7334 189.926C54.3643 190.261 53.7936 190.234 53.4583 189.865L53.4557 189.862L50.4832 186.568C50.1523 186.201 50.1818 185.635 50.5484 185.304C50.9158 184.973 51.4813 185.001 51.8122 185.369L51.8435 185.403Z" fill="#B49A92"/>
<path d="M58.7656 192.49L62.0733 195.289L62.1158 195.325C62.5041 195.653 62.5519 196.234 62.2235 196.623C61.8952 197.011 61.3141 197.059 60.9258 196.73L60.9232 196.728L57.5426 193.846C57.1595 193.519 57.1126 192.943 57.4401 192.559C57.7675 192.175 58.3434 192.129 58.7274 192.457L58.7656 192.49Z" fill="#B49A92"/>
<path d="M66.5623 198.573L68.3959 199.717L69.3123 200.288C69.6198 200.476 69.9186 200.677 70.2339 200.851C70.6882 201.102 70.8533 201.673 70.6022 202.127C70.3512 202.581 69.7805 202.746 69.3262 202.495L69.3227 202.494L69.2976 202.48C68.9727 202.299 68.6652 202.091 68.349 201.896L67.4066 201.304L65.5225 200.118C65.0873 199.844 64.9562 199.269 65.2298 198.834C65.5034 198.399 66.0776 198.268 66.5136 198.541L66.5623 198.573Z" fill="#B49A92"/>
<path d="M75.1756 203.379C76.4846 203.977 77.8153 204.532 79.1634 205.039C79.6515 205.224 79.8982 205.768 79.715 206.256C79.5308 206.745 78.9879 206.992 78.4998 206.809C77.1108 206.289 75.7376 205.723 74.3869 205.106C73.91 204.888 73.6998 204.325 73.9178 203.849C74.1349 203.371 74.6987 203.162 75.1756 203.379Z" fill="#B49A92"/>
<path d="M84.4446 206.774L88.6444 207.816L88.7008 207.83C89.2003 207.954 89.5051 208.459 89.3809 208.958C89.2576 209.458 88.7538 209.762 88.2552 209.639L83.9373 208.58C83.4344 208.457 83.1269 207.95 83.2502 207.447C83.3736 206.944 83.8809 206.636 84.3838 206.76L84.3864 206.761L84.4446 206.774Z" fill="#B49A92"/>
<path d="M94.1288 208.773L98.4388 209.231L98.491 209.237C98.9948 209.29 99.3596 209.742 99.3066 210.246C99.2536 210.75 98.8045 211.115 98.2999 211.062L93.8838 210.606C93.3757 210.554 93.0065 210.1 93.0586 209.592C93.1107 209.084 93.565 208.715 94.0732 208.767H94.0766L94.1288 208.773Z" fill="#B49A92"/>
<path d="M104.009 209.479L108.35 209.408L108.395 209.407C108.881 209.4 109.281 209.787 109.289 210.273C109.297 210.756 108.913 211.154 108.431 211.166L103.999 211.271C103.504 211.284 103.094 210.892 103.082 210.397C103.07 209.902 103.461 209.491 103.956 209.479H103.963L104.009 209.479Z" fill="#B49A92"/>
<path d="M113.92 208.997L118.232 208.438L118.271 208.433C118.732 208.373 119.154 208.698 119.214 209.159C119.273 209.618 118.951 210.037 118.495 210.101L114.109 210.704C113.639 210.769 113.206 210.44 113.141 209.971C113.077 209.501 113.405 209.068 113.874 209.004L113.881 209.003L113.92 208.997Z" fill="#B49A92"/>
<path d="M123.736 207.446L127.975 206.459L128.007 206.451C128.419 206.355 128.832 206.612 128.928 207.024C129.024 207.433 128.772 207.842 128.366 207.943L124.076 209.01C123.647 209.117 123.214 208.855 123.107 208.427C123 207.999 123.262 207.564 123.69 207.458C123.692 207.457 123.695 207.457 123.697 207.456L123.736 207.446Z" fill="#B49A92"/>
<path d="M133.36 204.924L137.49 203.533L137.517 203.524C137.88 203.401 138.274 203.597 138.396 203.96C138.517 204.32 138.327 204.71 137.97 204.835L133.807 206.307C133.429 206.441 133.014 206.243 132.88 205.864C132.746 205.486 132.944 205.071 133.323 204.937C133.325 204.936 133.327 204.935 133.329 204.935L133.36 204.924Z" fill="#B49A92"/>
<path d="M142.716 201.503L146.709 199.744L146.731 199.734C147.044 199.596 147.41 199.739 147.548 200.051C147.685 200.362 147.546 200.724 147.239 200.865L143.228 202.703C142.901 202.853 142.514 202.709 142.363 202.381C142.213 202.054 142.357 201.666 142.685 201.516C142.686 201.515 142.688 201.514 142.69 201.513L142.716 201.503Z" fill="#B49A92"/>
<path d="M151.751 197.277L155.594 195.201L155.611 195.192C155.857 195.059 156.165 195.15 156.298 195.397C156.429 195.639 156.341 195.942 156.103 196.079L152.278 198.267C152.009 198.421 151.667 198.328 151.513 198.058C151.36 197.79 151.453 197.448 151.722 197.294C151.724 197.292 151.728 197.291 151.731 197.289L151.751 197.277Z" fill="#B49A92"/>
<path d="M160.424 192.328L164.089 189.943L164.101 189.936C164.28 189.819 164.519 189.87 164.636 190.049C164.75 190.225 164.703 190.46 164.531 190.578L160.9 193.068C160.7 193.205 160.426 193.154 160.288 192.954C160.151 192.754 160.202 192.481 160.402 192.344C160.405 192.342 160.406 192.34 160.409 192.339L160.424 192.328Z" fill="#B49A92"/>
<path d="M168.704 186.694L170.475 185.367L170.479 185.365C170.596 185.277 170.762 185.3 170.849 185.418C170.935 185.532 170.913 185.694 170.803 185.783L169.067 187.172C168.938 187.275 168.749 187.255 168.644 187.125C168.541 186.996 168.562 186.806 168.691 186.702C168.693 186.7 168.696 186.699 168.698 186.697L168.704 186.694Z" fill="#B49A92"/>
</g>
</g>
<defs>
<linearGradient id="paint0_linear_245_6456" x1="159.464" y1="38.62" x2="84.9845" y2="111.076" gradientUnits="userSpaceOnUse">
<stop stop-color="#FDF53F"/>
<stop offset="1" stop-color="#D93C65"/>
</linearGradient>
<linearGradient id="paint1_linear_245_6456" x1="167.774" y1="47.1638" x2="93.2962" y2="119.618" gradientUnits="userSpaceOnUse">
<stop stop-color="#FDF53F"/>
<stop offset="1" stop-color="#D93C65"/>
</linearGradient>
<linearGradient id="paint2_linear_245_6456" x1="146.585" y1="92.4273" x2="88.9884" y2="155.801" gradientUnits="userSpaceOnUse">
<stop stop-color="#A737D5"/>
<stop offset="1" stop-color="#EF497A"/>
</linearGradient>
<linearGradient id="paint3_linear_245_6456" x1="153.382" y1="98.6043" x2="95.7844" y2="161.977" gradientUnits="userSpaceOnUse">
<stop stop-color="#A737D5"/>
<stop offset="1" stop-color="#EF497A"/>
</linearGradient>
<linearGradient id="paint4_linear_245_6456" x1="156.146" y1="117.802" x2="84.0321" y2="183.771" gradientUnits="userSpaceOnUse">
<stop stop-color="#A737D5"/>
<stop offset="1" stop-color="#EF497A"/>
</linearGradient>
<linearGradient id="paint5_linear_245_6456" x1="166.976" y1="110.96" x2="109.379" y2="174.333" gradientUnits="userSpaceOnUse">
<stop stop-color="#A737D5"/>
<stop offset="1" stop-color="#EF497A"/>
</linearGradient>
<linearGradient id="paint6_linear_245_6456" x1="86.0574" y1="105.691" x2="58.3362" y2="186.714" gradientUnits="userSpaceOnUse">
<stop stop-color="#A737D5"/>
<stop offset="1" stop-color="#EF497A"/>
</linearGradient>
<linearGradient id="paint7_linear_245_6456" x1="198.511" y1="166.551" x2="214.959" y2="187.815" gradientUnits="userSpaceOnUse">
<stop stop-color="#CB236D"/>
<stop offset="1" stop-color="#4C246D"/>
</linearGradient>
<clipPath id="clip0_245_6456">
<rect width="240" height="240" fill="white" transform="translate(0 0.388672)"/>
</clipPath>
</defs>
</svg>
