<svg width="18" height="18" viewBox="0 0 18 18" fill="none" xmlns="http://www.w3.org/2000/svg">
<path fill-rule="evenodd" clip-rule="evenodd" d="M2 4.75758C2 3.23461 3.23461 2 4.75758 2H10.4141C11.9371 2 13.1717 3.23461 13.1717 4.75758V10.4141C13.1717 11.9371 11.9371 13.1717 10.4141 13.1717H4.75758C3.23461 13.1717 2 11.9371 2 10.4141V4.75758ZM4.75758 3.27273C3.93752 3.27273 3.27273 3.93752 3.27273 4.75758V10.4141C3.27273 11.2342 3.93752 11.899 4.75758 11.899H10.4141C11.2342 11.899 11.899 11.2342 11.899 10.4141V4.75758C11.899 3.93752 11.2342 3.27273 10.4141 3.27273H4.75758Z" fill="#C5BEBE"/>
<path d="M6.17163 7.58632C6.17163 6.80531 6.80476 6.17218 7.58577 6.17218H13.9494C14.7304 6.17218 15.3636 6.80531 15.3636 7.58632V13.95C15.3636 14.731 14.7304 15.3641 13.9494 15.3641H7.58577C6.80476 15.3641 6.17163 14.731 6.17163 13.95V7.58632Z" fill="#C5BEBE"/>
<path fill-rule="evenodd" clip-rule="evenodd" d="M5.53528 7.58621C5.53528 6.45375 6.45332 5.53571 7.58578 5.53571H13.9494C15.0819 5.53571 15.9999 6.45375 15.9999 7.58621V13.9498C15.9999 15.0823 15.0819 16.0004 13.9494 16.0004H7.58578C6.45332 16.0004 5.53528 15.0823 5.53528 13.9498V7.58621ZM7.58578 6.80843C7.15623 6.80843 6.80801 7.15666 6.80801 7.58621V13.9498C6.80801 14.3794 7.15623 14.7276 7.58578 14.7276H13.9494C14.379 14.7276 14.7272 14.3794 14.7272 13.9498V7.58621C14.7272 7.15666 14.379 6.80843 13.9494 6.80843H7.58578Z" fill="#C5BEBE"/>
</svg>
