<svg width="299" height="188" viewBox="0 0 299 188" fill="none" xmlns="http://www.w3.org/2000/svg">
<g clip-path="url(#clip0_245_6652)">
<path d="M287.519 184.36C290.143 179.313 296.745 163.416 298.076 144.746C300.577 109.749 282.639 82.2925 256.75 68.5584C245.801 62.7319 234.708 61.0679 222.591 62.5309C210.815 63.947 201.037 67.8478 194.131 67.3559C180.5 66.3848 174.658 40.492 144.624 25.7565C122.591 14.947 88.526 12.4396 64.7833 18.8742C40.1763 25.5415 22.7808 42.4064 32.0751 75.0347C34.3228 82.9272 37.8334 90.7034 41.7209 97.8638C63.971 138.907 5.87146 126.934 -0.0201073 167.206C-0.917422 173.335 -0.45798 178.333 0.547215 184.36H287.519Z" fill="#E9E9E9"/>
<path d="M64.9165 18.4714C40.346 25.1423 22.9709 41.9833 32.2083 74.5649C32.7806 74.5094 33.3371 74.3459 33.8483 74.0831C37.4453 72.2722 40.0518 69.6709 42.1521 66.962C42.4286 63.067 41.6651 58.1527 41.6651 58.1527C42.1471 59.3933 44.0382 61.1018 45.4169 62.2298C48.3417 57.6772 50.5727 54.0275 54.6872 54.9532C62.3189 56.668 71.81 54.3297 74.4875 46.5511C72.7803 43.5438 69.7172 41.5938 69.7172 41.5938C71.9571 41.8113 74.0651 42.6927 75.6366 43.54C79.0167 37.1461 87.2585 35.32 87.2585 35.32C87.6364 35.2137 88.0034 35.0957 88.3594 34.9659C88.3366 30.345 87.1671 25.9871 87.1671 25.9871C90.3976 27.6715 91.9032 30.3892 92.6134 32.4771C97.8023 27.9245 98.4301 19.2315 98.0597 15.0367C86.3021 14.6801 74.7284 15.8107 64.9165 18.4714Z" fill="#DEDEDE"/>
<path d="M256.757 68.1651C246.103 62.492 235.316 60.7658 223.578 62.0279V125.132L256.8 68.1866L256.757 68.1651Z" fill="#F4F4F4"/>
<path d="M230.027 171.3C230.534 178.806 238.106 182.167 238.106 182.167H288.396C288.668 181.578 289 180.847 289.368 179.986C293.629 170.011 303.301 142.553 295.155 114.754C292.065 116.155 288.153 118.295 284.453 121.33C287.729 124.16 290.196 128.193 290.196 128.193C286.242 125.606 283.022 124.863 280.773 124.779C277.907 127.848 275.436 131.592 273.96 136.108C268.152 153.885 256.54 152.043 246.183 154.979C245.62 155.138 245.067 155.308 244.534 155.485C247.732 157.933 251.103 161.934 251.103 161.934C244.663 159.012 239.969 158.689 237.161 158.935C235.323 160.14 233.801 161.502 232.639 163.003C236.318 162.345 242.152 163.107 243.488 163.22C239.084 162.892 232.864 165.417 230.686 166.517C230.137 168.049 229.912 169.678 230.027 171.3Z" fill="#C8C8C8"/>
<path d="M289.356 180.354H222.012V62.3589C220.52 62.5515 219.062 62.7821 217.637 63.0368V180.354H68.7826V17.6094C67.5151 17.8932 66.2708 18.2002 65.0498 18.5305L64.4097 18.7079V184.36H287.495C287.86 183.672 288.56 182.219 289.356 180.354Z" fill="#D8D8D8"/>
<path d="M257.684 119.147C259.951 119.712 274.488 119.527 274.111 121.407C273.733 123.287 263.914 126.302 258.44 124.606C258.44 124.606 264.481 139.478 272.411 138.726C280.341 137.974 282.795 133.078 287.705 132.701C292.615 132.324 296.203 133.642 293.746 134.96C291.289 136.278 282.984 135.394 279.019 138.754C275.054 142.114 271.845 144.192 279.208 145.693C284.503 146.775 292.825 146.593 298.065 144.302C298.448 139.113 298.381 133.901 297.864 128.724C297.76 127.695 297.633 126.661 297.484 125.625C296.97 121.948 296.19 118.313 295.15 114.749C293.909 110.495 292.276 106.364 290.273 102.41C286.094 100.861 281.513 99.5012 278.831 99.7541C278.831 99.7541 288.081 115.379 285.06 115.003C282.039 114.627 271.655 98.8158 271.655 98.8158C271.655 98.8158 256.364 95.9932 253.909 105.029C251.455 114.065 255.419 118.583 257.684 119.147Z" fill="#B49A92"/>
<path d="M110.548 15.959L69.7474 82.5413V122.364L130.943 20.0829C124.51 18.1771 117.593 16.8012 110.548 15.959Z" fill="#F4F4F4"/>
<path d="M138.865 178.768H169.488L214.37 98.2893L213.777 63.6387C209.718 64.4948 205.981 65.4471 202.615 66.1199L138.865 178.768Z" fill="#F3F3F3"/>
<path d="M297.606 149.102C297.521 149.812 297.43 150.515 297.333 151.21C296.293 150.418 295.383 149.81 295.383 149.81C296.08 149.453 296.831 149.214 297.606 149.102V149.102Z" fill="#7C7C7C"/>
<path d="M242.606 162.868C242.554 162.868 242.503 162.858 242.451 162.855L242.606 162.868Z" fill="#EEEEEE"/>
<path d="M283.805 156.048C283.805 156.048 291.591 157.593 292.589 156.807C293.587 156.02 286.193 154.188 286.193 154.188C287.74 152.278 294.261 149.934 294.261 149.934C294.261 149.934 295.646 151.436 297.099 152.761C296.884 154.14 296.648 155.489 296.392 156.808C296.346 157.048 296.299 157.285 296.252 157.52C295.434 161.604 294.446 165.361 293.433 168.672C290.849 168.871 287.656 167.557 287.656 167.557C289.77 166.419 291.748 162.615 291.295 161.951C290.843 161.287 286.633 165.672 285.797 166.182C284.961 166.691 282.446 166.546 280.459 163.163C278.471 159.78 283.805 156.048 283.805 156.048Z" fill="#7C7C7C"/>
<path d="M155.727 73.6289H178.57C182.539 73.6289 186.469 74.4084 190.136 75.9229C193.803 77.4373 197.135 79.6571 199.942 82.4555C202.748 85.2539 204.975 88.5761 206.494 92.2323C208.013 95.8886 208.794 99.8073 208.794 103.765V149.544H148.345V80.9903C148.345 80.0236 148.535 79.0664 148.906 78.1733C149.277 77.2802 149.821 76.4687 150.506 75.7851C151.192 75.1015 152.006 74.5592 152.901 74.1893C153.797 73.8193 154.757 73.6289 155.727 73.6289V73.6289Z" fill="#F08537"/>
<path d="M148.345 149.549H87.8939V103.77C87.8939 95.777 91.0783 88.1118 96.7466 82.4602C102.415 76.8086 110.103 73.6336 118.119 73.6336H140.962C141.931 73.6336 142.891 73.824 143.787 74.1939C144.682 74.5637 145.496 75.1059 146.181 75.7893C146.867 76.4728 147.411 77.2842 147.782 78.1771C148.153 79.0701 148.344 80.0272 148.344 80.9937V149.549H148.345Z" fill="#F08537"/>
<path d="M77.9514 89.2012C79.2576 89.2012 80.551 89.4578 81.7578 89.9564C82.9645 90.455 84.0608 91.1858 84.9841 92.107C85.9075 93.0282 86.6397 94.1218 87.139 95.3252C87.6383 96.5287 87.8949 97.8185 87.894 99.1209V147.935C87.893 150.564 86.845 153.084 84.9806 154.943C83.1161 156.801 80.5877 157.845 77.9514 157.845V157.845C75.3151 157.845 72.7868 156.801 70.9223 154.943C69.0578 153.084 68.0098 150.564 68.0088 147.935V99.1209C68.008 97.8185 68.2645 96.5287 68.7638 95.3252C69.2631 94.1218 69.9953 93.0282 70.9187 92.107C71.842 91.1858 72.9384 90.455 74.1451 89.9564C75.3518 89.4578 76.6452 89.2012 77.9514 89.2012V89.2012Z" fill="#D5722B"/>
<path d="M218.721 89.2012C220.027 89.2012 221.32 89.4578 222.527 89.9564C223.734 90.455 224.83 91.1858 225.753 92.107C226.677 93.0282 227.409 94.1218 227.908 95.3252C228.407 96.5287 228.664 97.8185 228.663 99.1209V147.935C228.663 150.564 227.616 153.086 225.751 154.945C223.886 156.804 221.357 157.849 218.721 157.849C216.083 157.849 213.554 156.804 211.69 154.945C209.825 153.086 208.777 150.564 208.777 147.935V99.1209C208.776 97.8184 209.033 96.5286 209.532 95.3251C210.032 94.1217 210.764 93.0281 211.687 92.1069C212.611 91.1857 213.707 90.4549 214.914 89.9564C216.121 89.4578 217.414 89.2012 218.721 89.2012V89.2012Z" fill="#D5722B"/>
<path d="M208.778 149.668H87.9117V184.361H208.778V149.668Z" fill="#A24706"/>
<path d="M55.4568 139.718C55.4568 135.529 57.1665 131.513 60.2097 128.551C63.2529 125.59 67.3804 123.926 71.6842 123.926C75.988 123.926 80.1155 125.59 83.1588 128.551C86.202 131.513 87.9117 135.529 87.9117 139.718V184.359H67.9695V155.094C64.4087 154.278 61.2354 152.315 58.9642 149.525C56.693 146.734 55.4571 143.278 55.4568 139.718V139.718Z" fill="#C96721"/>
<path d="M241.233 139.718C241.233 135.529 239.523 131.513 236.48 128.551C233.437 125.59 229.309 123.926 225.006 123.926C220.702 123.926 216.574 125.59 213.531 128.551C210.488 131.513 208.778 135.529 208.778 139.718V184.359H228.72V155.094C232.281 154.278 235.454 152.315 237.726 149.525C239.997 146.734 241.233 143.278 241.233 139.718Z" fill="#C96721"/>
<path d="M224.185 143.504C225.97 143.504 227.418 142.06 227.418 140.28C227.418 138.5 225.97 137.057 224.185 137.057C222.399 137.057 220.952 138.5 220.952 140.28C220.952 142.06 222.399 143.504 224.185 143.504Z" fill="#DAAD8C"/>
<path d="M71.2353 143.504C73.0208 143.504 74.4683 142.06 74.4683 140.28C74.4683 138.5 73.0208 137.057 71.2353 137.057C69.4497 137.057 68.0022 138.5 68.0022 140.28C68.0022 142.06 69.4497 143.504 71.2353 143.504Z" fill="#DAAD8C"/>
<path d="M148.345 80.9902L148.979 146.697L147.99 145.711L148.345 80.9902Z" fill="white" fill-opacity="0.36"/>
<path d="M143.849 141.748H92.3903C89.9071 141.748 87.894 143.755 87.894 146.231V152.864C87.894 155.34 89.9071 157.347 92.3903 157.347H143.849C146.332 157.347 148.345 155.34 148.345 152.864V146.231C148.345 143.755 146.332 141.748 143.849 141.748Z" fill="#C96721"/>
<path d="M204.299 141.748H152.841C150.358 141.748 148.345 143.755 148.345 146.231V152.864C148.345 155.34 150.358 157.347 152.841 157.347H204.299C206.783 157.347 208.796 155.34 208.796 152.864V146.231C208.796 143.755 206.783 141.748 204.299 141.748Z" fill="#C96721"/>
<path d="M51.2642 118.126C51.2642 118.126 56.0966 121.708 57.039 121.492C57.9814 121.276 53.5079 117.624 53.5079 117.624C55.191 116.817 60.4242 117.323 60.4242 117.323C60.4242 117.323 62.1669 122.927 63.0269 122.486C63.8868 122.045 61.2296 117.602 61.2296 117.602C63.1042 117.49 65.4038 118.877 65.4038 118.877C68.5531 121.357 65.197 125.259 65.197 125.259C65.197 125.259 65.8439 127.188 67.8314 128.946C67.8314 128.946 70.6712 131.039 70.8691 134.781L70.3529 134.826C70.3529 134.826 69.536 131.341 68.0508 129.693C67.9937 129.634 67.91 129.549 67.8073 129.44C67.5638 129.216 67.3951 129.048 67.2809 128.923C66.5415 128.215 65.5204 127.314 65.0296 127.227C65.0474 127.144 65.0542 127.059 65.0499 126.974C65.0499 127.054 65.0359 127.135 65.0296 127.227C64.8609 129.199 61.0229 130.922 58.6612 131.274C56.2995 131.625 57.0301 130.661 57.8431 129.225C58.6561 127.79 61.2322 127.149 61.8194 126.487C62.4066 125.826 61.1916 125.825 59.7698 126.473C58.3479 127.122 58.1526 128.848 55.8696 129.938C53.5865 131.029 50.1531 127.251 50.1531 127.251C51.9719 127.16 54.5695 125.19 54.4756 124.588C54.3818 123.986 50.0669 125.627 49.33 125.706C48.593 125.784 46.9137 124.87 46.6537 121.912C46.3937 118.954 51.2642 118.126 51.2642 118.126Z" fill="#7C7C7C"/>
<path d="M76.9278 120.35C76.9278 120.35 71.5905 117.369 74.0816 113.325C74.0816 113.325 76.0742 110.841 78.2088 110.202C78.2088 110.202 77.0673 116.233 78.2088 116.376C79.3504 116.519 78.9914 109.564 78.9914 109.564C78.9914 109.564 84.614 106.868 86.8197 107.08C86.8197 107.08 83.333 112.969 84.472 112.828C85.611 112.686 89.5239 106.726 89.5239 106.726C89.5239 106.726 95.2885 105.661 96.2132 109.068C97.1378 112.475 95.6437 114.176 94.7901 114.39C93.9365 114.603 88.4572 114.531 88.5992 115.241C88.7413 115.95 92.4423 117.086 94.506 116.447C94.506 116.447 92.2229 122.052 89.2397 121.769C86.2566 121.485 85.3256 119.639 83.4751 119.492C81.6245 119.346 80.2724 119.848 81.1984 120.345C82.1243 120.842 85.2571 120.506 86.7487 121.774C88.2403 123.041 89.4528 123.821 86.6777 124.389C83.9025 124.957 78.9204 124.601 77.926 122.473L76.9278 120.35Z" fill="#C9B3AC"/>
<path d="M75.505 125.53C76.9991 122.763 76.9281 120.345 76.9281 120.345C78.6365 114.951 93.5802 110.127 93.5802 110.127C74.5804 117.791 77.925 122.473 77.925 122.473C77.4177 122.771 76.6452 124.191 76.1125 125.281C76.0364 125.466 75.9159 125.722 75.732 126.071C75.6597 126.228 75.6052 126.357 75.5621 126.451C74.5842 128.891 75.1017 133.106 75.1017 133.106L74.5144 133.27C73.2004 129.02 75.505 125.53 75.505 125.53Z" fill="#A8866D"/>
<path d="M68.4388 116.242C68.4388 116.242 75.4744 112.312 72.1906 106.982C72.1906 106.982 69.5639 103.708 66.7494 102.866C66.7494 102.866 68.2511 110.816 66.7494 111.004C65.2477 111.191 65.7182 102.025 65.7182 102.025C65.7182 102.025 58.306 98.4699 55.3976 98.7456C55.3976 98.7456 59.9941 106.509 58.4937 106.322C56.9932 106.135 51.8336 98.2777 51.8336 98.2777C51.8336 98.2777 44.2348 96.8752 43.016 101.365C41.7971 105.854 43.7656 108.099 44.8918 108.379C46.0181 108.66 53.2402 108.567 53.0524 109.502C52.8647 110.438 47.9866 111.934 45.2673 111.092C45.2673 111.092 48.2682 118.481 52.209 118.107C56.1498 117.733 57.3674 115.301 59.8064 115.114C62.2455 114.926 64.0288 115.581 62.8086 116.237C61.5885 116.892 57.4612 116.45 55.4915 118.121C53.5217 119.791 51.9274 120.82 55.5853 121.567C59.2433 122.314 65.8108 121.848 67.1273 119.038L68.4388 116.242Z" fill="#B49A92"/>
<path d="M46.4863 102.771C46.4863 102.771 66.1864 109.133 68.4377 116.241C68.4377 116.241 68.3439 119.42 70.3136 123.07C70.3136 123.07 73.3577 127.669 71.62 133.268L70.8374 133.059C70.8374 133.059 71.5211 127.504 70.2312 124.287C70.1792 124.168 70.1043 123.998 70.0067 123.791C69.772 123.33 69.6135 122.993 69.5133 122.749C68.8106 121.312 67.7985 119.44 67.1237 119.047C67.1237 119.046 71.5325 112.873 46.4863 102.771Z" fill="#A8866D"/>
<path d="M68.3276 145.191C64.6173 145.191 61.0589 143.776 58.4353 141.258C55.8117 138.739 54.3378 135.323 54.3378 131.762H82.3161C82.3163 133.525 81.9546 135.272 81.2517 136.901C80.5488 138.53 79.5184 140.011 78.2194 141.258C76.9204 142.505 75.3783 143.494 73.6811 144.169C71.9838 144.844 70.1647 145.191 68.3276 145.191V145.191Z" fill="#F1A34F"/>
<path d="M65.5291 145.089C67.49 145.324 69.4803 145.154 71.3681 144.592C73.256 144.03 74.9984 143.087 76.4797 141.827C77.9611 140.567 79.1477 139.018 79.9609 137.283C80.7742 135.548 81.1955 133.666 81.1969 131.762H77.7337C77.7336 135.034 76.4934 138.194 74.2461 140.648C71.9989 143.102 68.8991 144.681 65.5291 145.089V145.089Z" fill="#FFB973"/>
<path d="M56.4022 144.412H80.946C81.1693 144.412 81.3905 144.456 81.5967 144.541C81.803 144.626 81.9904 144.751 82.1483 144.909C82.3061 145.066 82.4313 145.253 82.5166 145.459C82.602 145.665 82.6458 145.885 82.6456 146.108H54.7026C54.7025 145.885 54.7463 145.665 54.8316 145.459C54.917 145.253 55.0421 145.066 55.2 144.909C55.3578 144.751 55.5452 144.626 55.7515 144.541C55.9578 144.456 56.1789 144.412 56.4022 144.412V144.412Z" fill="#F1A34F"/>
<path d="M102.22 184.323C102 184.323 101.785 184.261 101.6 184.143C101.415 184.025 101.268 183.856 101.177 183.656L85.4245 149.491C85.3615 149.355 85.3261 149.207 85.3204 149.057C85.3146 148.907 85.3385 148.757 85.3908 148.616C85.4431 148.475 85.5227 148.346 85.6251 148.236C85.7275 148.126 85.8507 148.037 85.9876 147.974C86.1245 147.911 86.2725 147.876 86.4231 147.87C86.5737 147.864 86.7239 147.888 86.8653 147.94C87.0066 147.992 87.1362 148.072 87.2468 148.174C87.3574 148.276 87.4467 148.399 87.5096 148.535L103.261 182.702C103.343 182.876 103.379 183.067 103.367 183.259C103.354 183.451 103.293 183.637 103.189 183.798C103.085 183.96 102.942 184.093 102.772 184.185C102.603 184.277 102.413 184.324 102.22 184.323V184.323Z" fill="#4F3A31"/>
<path d="M138.924 184.322C138.704 184.322 138.489 184.259 138.304 184.141C138.12 184.023 137.973 183.855 137.881 183.656L122.129 149.491C122.002 149.215 121.99 148.901 122.095 148.616C122.201 148.332 122.415 148.101 122.692 147.974C122.968 147.847 123.284 147.835 123.569 147.94C123.854 148.045 124.086 148.259 124.213 148.535L139.965 182.701C140.047 182.875 140.083 183.067 140.07 183.259C140.058 183.451 139.997 183.636 139.893 183.798C139.789 183.96 139.645 184.093 139.476 184.184C139.306 184.276 139.116 184.324 138.924 184.322V184.322Z" fill="#4F3A31"/>
<path d="M136.783 180.137H100.29C99.9854 180.137 99.6936 180.017 99.4785 179.802C99.2633 179.588 99.1425 179.297 99.1425 178.993C99.1425 178.69 99.2633 178.399 99.4785 178.185C99.6936 177.97 99.9854 177.85 100.29 177.85H136.783C137.087 177.85 137.379 177.97 137.594 178.185C137.809 178.399 137.93 178.69 137.93 178.993C137.93 179.297 137.809 179.588 137.594 179.802C137.379 180.017 137.087 180.137 136.783 180.137Z" fill="#4F3A31"/>
<path d="M49.7622 184.323C49.5694 184.324 49.3795 184.277 49.21 184.185C49.0406 184.093 48.8972 183.96 48.7932 183.798C48.6892 183.637 48.6281 183.451 48.6154 183.259C48.6028 183.067 48.6391 182.876 48.7209 182.702L64.4726 148.535C64.5355 148.399 64.6248 148.276 64.7354 148.174C64.846 148.072 64.9756 147.992 65.117 147.94C65.2583 147.888 65.4085 147.864 65.5591 147.87C65.7097 147.876 65.8577 147.911 65.9946 147.974C66.1315 148.037 66.2547 148.126 66.3571 148.236C66.4595 148.346 66.5391 148.475 66.5914 148.616C66.6437 148.757 66.6676 148.907 66.6619 149.057C66.6561 149.207 66.6207 149.355 66.5577 149.491L50.8086 183.656C50.7167 183.856 50.5691 184.025 50.3836 184.143C50.1981 184.261 49.9824 184.323 49.7622 184.323Z" fill="#4F3A31"/>
<path d="M13.0588 184.322C12.866 184.324 12.676 184.276 12.5066 184.184C12.3371 184.093 12.1937 183.96 12.0898 183.798C11.9858 183.636 11.9246 183.451 11.912 183.259C11.8994 183.067 11.9356 182.875 12.0175 182.701L27.7691 148.535C27.8963 148.259 28.128 148.045 28.4133 147.94C28.6987 147.835 29.0142 147.847 29.2905 147.974C29.5669 148.101 29.7814 148.332 29.8869 148.616C29.9924 148.901 29.9802 149.215 29.8531 149.491L14.1014 183.656C14.0097 183.855 13.8628 184.023 13.678 184.141C13.4932 184.259 13.2783 184.322 13.0588 184.322Z" fill="#4F3A31"/>
<path d="M51.6965 180.137H15.1997C14.8955 180.137 14.6037 180.017 14.3885 179.802C14.1734 179.588 14.0525 179.297 14.0525 178.993C14.0525 178.69 14.1734 178.399 14.3885 178.185C14.6037 177.97 14.8955 177.85 15.1997 177.85H51.6965C52.0007 177.85 52.2925 177.97 52.5077 178.185C52.7228 178.399 52.8437 178.69 52.8437 178.993C52.8437 179.297 52.7228 179.588 52.5077 179.802C52.2925 180.017 52.0007 180.137 51.6965 180.137Z" fill="#4F3A31"/>
<path d="M128.016 149.67H22.0661C21.4239 149.67 20.808 149.493 20.3539 149.178C19.8998 148.864 19.6447 148.437 19.6447 147.992V147.992C19.6447 147.547 19.8997 147.12 20.3538 146.805C20.8078 146.49 21.4237 146.313 22.0661 146.312H128.016C128.658 146.312 129.275 146.489 129.729 146.804C130.184 147.119 130.439 147.546 130.439 147.992C130.438 148.437 130.183 148.864 129.728 149.178C129.274 149.493 128.658 149.67 128.016 149.67V149.67Z" fill="#725C53"/>
</g>
<path d="M135.642 185.999C135.641 185.912 135.647 185.824 135.669 185.735C136.989 180.5 142.388 177.816 142.388 177.816L144.985 178.02C146.478 182.634 147.442 184.886 147.201 186.147C147.194 186.182 147.184 186.215 147.174 186.25C145.032 186.442 140.623 186.566 135.642 185.999Z" fill="#4F3A31"/>
<path d="M147.174 186.246C147.058 186.667 146.748 186.995 146.35 187.078C143.303 187.719 138.459 187.203 136.426 186.937C135.978 186.879 135.649 186.464 135.642 185.995C140.623 186.563 145.032 186.438 147.174 186.246Z" fill="#4F3A31"/>
<path d="M140.25 173.772L141.387 179.246C141.47 179.647 141.779 179.948 142.152 179.983C142.609 180.026 143.259 180.051 143.913 179.954C144.5 179.868 144.908 179.272 144.804 178.632L144.014 173.772H140.25V173.772Z" fill="#D5956B"/>
<path d="M169.241 186.203C166.467 186.125 165.033 185.798 164.291 185.495C164.289 185.771 164.291 186.052 164.3 186.343C164.309 186.653 164.539 186.901 164.822 186.899L180.051 186.801C180.537 186.798 180.821 186.234 180.611 185.789C178.614 185.954 173.529 186.322 169.241 186.203Z" fill="#4F3A31"/>
<path d="M180.61 185.788C180.592 185.749 180.576 185.71 180.55 185.673C179.205 183.794 175.78 180.052 169.011 178.428L165.764 178.326C165.764 178.326 164.318 180.84 164.29 185.495C165.032 185.798 166.466 186.125 169.24 186.202C173.529 186.322 178.614 185.953 180.61 185.788Z" fill="#4F3A31"/>
<path d="M165.162 173.406C165.198 173.648 165.643 177.327 165.815 178.753C165.856 179.091 166.102 179.354 166.411 179.391C166.964 179.457 167.859 179.517 168.642 179.357C169.064 179.27 169.369 178.865 169.369 178.393V172.618L165.162 173.406Z" fill="#D5956B"/>
<path d="M142.419 101.894C142.419 101.894 137.223 148.081 140.11 176.948C140.11 176.948 143.574 176.948 145.306 176.371C145.306 176.371 150.705 131.211 152.452 118.289C152.518 117.801 153.213 117.779 153.309 118.262C155.464 129.134 163.929 171.767 164.936 175.793C164.936 175.793 167.823 176.947 170.131 175.793C170.131 175.793 165.513 114.018 162.049 103.048L142.419 101.894Z" fill="#FBC16B"/>
<path d="M132.027 48.2002C132.027 48.2002 153.967 44.7363 171.286 49.3545L170.131 67.2519C170.131 67.2519 165.513 92.0775 162.049 103.047C162.049 103.047 148.77 105.357 142.419 101.893C142.419 101.893 137.222 70.7164 134.336 66.0975C134.337 66.0975 131.45 53.9734 132.027 48.2002Z" fill="#7C7C7C"/>
<path d="M164.802 70.3064C164.802 70.3064 229.01 43.9245 171.809 33.9551L171.287 40.1329C171.287 40.1329 194.466 46.7873 169.629 49.0455C169.629 49.0455 164.579 66.576 164.802 70.3064Z" fill="#7C7C7C"/>
<path d="M147.268 32.4258L145.082 47.2059C145.082 47.2059 151.188 50.0108 155.464 47.0855L154.543 36.6549L147.268 32.4258Z" fill="#FFC297"/>
<path d="M154.963 41.4495C154.347 41.439 153.729 41.8634 152.503 41.2631C152.096 41.0641 151.419 39.2557 150.842 38.3191C150.613 37.9476 149.97 35.174 149.613 33.58C149.401 33.4364 149.202 33.3068 149.024 33.1978C148.889 33.3784 148.744 33.4139 148.652 32.9842C148.761 33.0409 148.886 33.1131 149.024 33.1978C149.204 32.9577 149.366 32.4609 149.366 32.4609C149.366 32.4609 149.465 32.9191 149.613 33.58C151.118 34.599 153.289 36.3262 153.289 36.4232C153.289 36.5749 154.439 38.6673 154.633 38.9715C154.789 39.2148 154.886 40.3605 154.963 41.4495Z" fill="#D5956B"/>
<path d="M132.027 48.1992C132.027 48.1992 97.9639 85.1489 138.089 99.2944V96.4074C138.089 96.4074 123.078 83.7058 134.626 66.3853C134.626 66.3853 133.182 49.9311 132.027 48.1992Z" fill="#7C7C7C"/>
<path d="M138.378 96.6944C138.378 96.6944 143.574 93.2306 145.883 94.385C148.193 95.5394 148.193 97.2713 148.193 97.2713C148.193 97.2713 147.038 99.5807 145.306 99.0032C143.574 98.4256 139.532 99.5807 137.801 99.0032C137.801 99.0032 137.224 96.6944 138.378 96.6944Z" fill="#FFC297"/>
<path d="M182.359 57.458C187.666 64.7727 186.14 72.6683 175.498 77.9805C174.748 77.2993 174.538 76.6612 175.291 75.2207C183.772 69.1143 182.474 63.5725 177.26 60.0542L182.359 57.458Z" fill="#FFC297"/>
<path d="M171.277 60.7852C175.526 68.3657 174.596 74.281 162.382 78.1985C161.712 76.4693 161.99 75.5101 163.028 75.1689C172.274 70.5237 169.916 66.8741 165.326 62.9344L171.277 60.7852Z" fill="#FFC297"/>
<path d="M162.383 75.5305C162.035 76.9938 162.196 77.7511 163.306 78.054C163.975 80.4509 163.606 81.7776 162.461 82.3047C161.035 80.2786 159.955 78.1038 159.605 75.616C160.663 75.2242 162.13 74.883 162.383 75.5305Z" fill="#4F3A31"/>
<path d="M175.291 75.2206C174.945 76.6752 175.105 77.4284 176.208 77.7293C176.873 80.1114 176.506 81.4307 175.368 81.9544C173.951 79.9404 172.877 77.7784 172.529 75.3054C173.581 74.9163 175.039 74.5771 175.291 75.2206Z" fill="#4F3A31"/>
<path d="M159.885 47.1656C159.16 52.1089 161.369 58.3803 165.263 63.5215C168.024 63.8271 171.021 63.5646 173.337 62.108L170.407 55.4637L171.788 55.0518L177.53 60.9381C180.117 61.3177 181.846 60.0052 183.868 58.6805C181.617 53.7177 176.497 51.4001 175.176 44.4678L159.885 47.1656Z" fill="#DFA44C"/>
<path fill-rule="evenodd" clip-rule="evenodd" d="M153.086 26.735C153.086 26.735 147.02 23.9039 143.687 8.3853L145.345 7.53516C145.345 7.53516 151.785 20.2071 155.108 23.0948C158.432 25.9824 153.086 26.735 153.086 26.735Z" fill="#FFC297"/>
<path fill-rule="evenodd" clip-rule="evenodd" d="M144.97 9.40307L143.687 8.38532C143.687 8.38532 141.936 6.68572 141.321 5.24122C140.707 3.79673 142.512 2.49493 143.192 2.18799C143.873 1.88106 144.246 2.52791 144.11 3.97981C144.11 3.97981 145.66 5.7824 145.438 8.41023L144.97 9.40307Z" fill="#FFC297"/>
<path fill-rule="evenodd" clip-rule="evenodd" d="M180.204 26.7274C180.204 26.7274 187.063 16.0418 188.303 7.16752L186.644 6.31738C186.644 6.31738 179.784 20.6822 176.461 23.5699C173.137 26.4569 180.204 26.7274 180.204 26.7274Z" fill="#FFC297"/>
<path fill-rule="evenodd" clip-rule="evenodd" d="M187.019 8.18529L188.303 7.16755C188.303 7.16755 190.053 5.46795 190.668 4.02345C191.283 2.57896 189.478 1.27716 188.797 0.970221C188.117 0.663282 187.743 1.31014 187.879 2.76204C187.879 2.76204 186.329 4.56463 186.552 7.19245L187.019 8.18529Z" fill="#FFC297"/>
<path fill-rule="evenodd" clip-rule="evenodd" d="M175.958 12.6788C175.958 12.6788 175.476 11.3184 176.704 11.0761C177.933 10.8338 176.761 14.445 176.761 14.445L175.958 12.6788Z" fill="#FFC297"/>
<path fill-rule="evenodd" clip-rule="evenodd" d="M153.491 21.0738C153.491 21.0738 159.153 24.714 166.028 24.3094C171.762 23.9722 175.246 22.5095 177.182 20.8604C177.875 20.2708 178.86 20.1745 179.625 20.6666C180.462 21.205 181.576 22.0431 182.747 23.2668C183.042 23.5737 183.101 24.0442 182.877 24.4057C181.207 27.1035 179.426 28.9902 177.538 30.0867C176.899 30.7908 176.556 31.715 176.582 32.6654L176.93 45.9183C176.94 46.2858 176.685 46.6055 176.324 46.6742C173.811 47.1514 164.273 48.812 158.344 47.7653V33.4718C158.344 32.409 157.756 31.4424 156.827 30.9268C155.582 30.2355 153.728 28.8812 151.873 26.3315L153.491 21.0738Z" fill="#C96721"/>
<path fill-rule="evenodd" clip-rule="evenodd" d="M163.312 18.0166L162.69 24.8406C162.69 24.8406 166.292 26.9447 169.39 25.1051L168.84 19.1447L163.312 18.0166Z" fill="#FFC297"/>
<path d="M169.023 20.5214C169.023 20.5214 169.116 22.4166 169.321 24.1893C165.961 24.5033 164.648 20.6229 163.719 19.0206L169.023 20.5214Z" fill="#D5956B"/>
<path fill-rule="evenodd" clip-rule="evenodd" d="M176.616 13.1655C176.616 13.1655 178.195 10.4623 176.184 9.04136C176.184 9.04136 177.262 6.66326 175.223 4.94279C175.223 4.94279 171.974 -2.66067 165.155 2.67306C165.155 2.67306 159.284 0.927012 157.395 8.22892C157.395 8.22892 155.442 9.32474 156.337 12.0529C156.337 12.0529 156.117 22.1724 164.98 18.7611L176.616 13.1655Z" fill="#55443C"/>
<path fill-rule="evenodd" clip-rule="evenodd" d="M173.698 7.51238C173.698 7.51238 181.211 18.8334 173.448 22.3006C166.122 25.5733 163.035 18.056 163.035 18.056C163.035 18.056 159.813 14.718 160.896 12.1488C161.978 9.5795 171.867 6.10625 173.698 7.51238Z" fill="#FFC297"/>
<path fill-rule="evenodd" clip-rule="evenodd" d="M162.303 16.2749C162.303 16.2749 169.656 13.9473 169.027 9.60436C169.027 9.60436 170.3 9.73158 170.692 8.23122C170.692 8.23122 174.3 11.4776 175.251 9.20723C175.251 9.20723 174.619 3.58675 170.211 5.40819C165.802 7.22963 161.776 9.08203 160.596 10.3791C159.415 11.6755 158.436 14.8136 162.303 16.2749Z" fill="#55443C"/>
<path fill-rule="evenodd" clip-rule="evenodd" d="M163.999 19.0686L162.693 15.4775C162.693 15.4775 160.169 14.3177 160.501 16.2711C160.834 18.2251 163.102 19.3041 163.999 19.0686Z" fill="#FFC297"/>
<path d="M153.652 21.5685C153.8 21.7078 159.885 33.6562 159.885 33.6562L152.989 36.9854L145.539 26.5172C145.539 26.5172 151.18 19.2415 153.652 21.5685Z" fill="#FFC297"/>
<path d="M148.59 26.8065C148.467 27.1248 148.497 27.4802 148.673 27.7724L152.112 33.5059C152.165 33.5928 152.227 33.6715 152.301 33.7408C152.71 34.1218 154.111 35.2304 155.194 33.7213C156.117 32.435 156.983 31.2658 157.911 30.7832C158.453 30.5018 159.12 30.7266 159.395 31.2719C159.962 32.3953 161.06 34.6845 161.749 36.8553C161.922 37.3992 161.641 37.9835 161.112 38.1982C159.715 38.7636 156.955 39.7874 154.506 40.1253C154.104 40.1812 153.706 40.0109 153.467 39.6831C152.413 38.2399 149.443 34.206 148.43 33.1963C147.488 32.258 145.75 32.612 144.967 32.8368C144.67 32.9223 144.353 32.8813 144.088 32.7217C143.294 32.2432 141.907 31.0518 143.175 29.0338C143.491 28.5323 143.33 27.8639 142.835 27.5381C141.948 26.9545 140.985 25.8594 141.902 24.0857C142.831 22.2899 144.489 22.129 145.618 22.267C146.117 22.3282 146.625 22.0657 146.817 21.6006C146.902 21.394 147.071 21.2169 147.384 21.1537C147.976 21.0339 148.364 20.4927 148.249 19.8997C148.049 18.8833 148.199 17.5633 149.822 16.6714C152.797 15.0358 155.404 17.7013 156.066 19.9515C156.729 22.2017 153.402 23.7923 151.309 24.0575C149.772 24.2513 148.929 25.9294 148.59 26.8065Z" fill="#55443C"/>
<path d="M149.721 35.2993C149.721 35.2993 148.398 31.4276 146.705 31.5703C145.011 31.7123 143.678 33.3998 145.777 35.2966C148.388 37.6558 149.721 35.2993 149.721 35.2993Z" fill="#FFC297"/>
<path d="M171.808 33.9512L171.286 40.129C171.286 40.129 176.331 41.5775 179.192 43.3518C181.761 41.4079 184.411 39.6558 187.103 38.0174C183.445 36.4861 178.445 35.1082 171.808 33.9512Z" fill="#7C7C7C"/>
<path d="M173.971 34.5678C172.941 32.154 171.54 31.2985 170.285 30.9269C170.15 30.8872 170.018 31.0016 170.037 31.1416C170.224 32.5155 170.58 32.7046 170.002 32.4239L173.971 34.5678Z" fill="#FFC297"/>
<path d="M174.82 37.9409C174.82 37.9409 174.673 32.9875 171.287 32.4234C167.9 31.8587 163.254 34.2125 162.69 35.9061C162.126 37.5996 168.819 41.0238 171.987 40.7155C174.493 40.4718 174.82 37.9409 174.82 37.9409Z" fill="#FFC297"/>
<path d="M224.69 53.0073C224.69 53.0073 216.193 64.6918 202.223 69.1593C188.253 73.6267 187.53 57.4559 187.53 57.4559C187.53 57.4559 186.89 52.6236 185.444 49.7804C183.997 46.9372 191.283 49.0339 191.603 52.5314C191.923 56.0289 188.573 54.8085 191.639 59.4301C194.625 63.9326 202.711 65.9364 213.344 52.1706C213.96 51.373 214.779 50.6952 215.741 50.2287C222.456 46.9742 227.191 48.3002 224.69 53.0073Z" fill="#FFC297"/>
<path d="M217.522 52.9789C218.612 50.8485 220.508 49.4458 221.655 47.3571C223.099 44.7266 223.157 41.2486 222.223 38.3253C221.447 35.9001 220.061 33.8081 219.27 31.3896C218.206 28.1351 218.189 26.7337 218.686 23.461C219.124 20.5787 220.074 17.5073 222.407 15.8481C225.293 13.7958 228.816 13.3973 232.111 14.127C235.531 14.8842 238.844 16.6 241.341 19.4674C243.837 22.3349 245.459 26.3641 245.407 30.4997C245.372 33.2978 244.606 36.1841 245.354 38.8328C245.936 40.8919 247.458 42.5329 249.241 43.0223C251.222 43.5661 253.285 42.755 255.322 42.7799C257.34 42.8048 259.339 43.688 260.875 45.2321C262.236 46.5998 263.243 48.5216 263.468 50.6264C263.692 52.7312 263.069 54.9982 261.703 56.3768C260.768 57.3191 259.455 57.9599 259.108 59.3539C258.719 60.9142 259.845 62.4772 261.103 63.1059C262.361 63.7352 263.779 63.785 265.059 64.3478C267.925 65.6071 269.653 69.4405 269.419 73.0666C269.186 76.6919 267.246 79.9794 264.709 82.0277C262.171 84.076 259.095 85.0021 256.044 85.3064C252.993 85.6106 249.928 85.3313 246.871 85.1698C243.375 84.9846 239.808 84.9409 236.495 83.6182C233.145 82.2814 230.254 79.7129 227.56 77.0043C226.284 75.722 224.99 74.3185 224.42 72.45C224.007 71.0937 224.009 69.5846 223.533 68.2579C222.511 65.4099 219.662 64.2071 218.018 61.8074C216.352 59.3755 216.144 55.6727 217.522 52.9789Z" fill="#55443C"/>
<path d="M258.725 55.0149C258.732 55.0149 258.738 55.0142 258.744 55.0122C260.177 54.6635 261.404 53.4492 261.871 51.9192C262.338 50.3886 262.029 48.5947 261.083 47.3481C259.679 45.4971 257.318 45.0959 255.019 44.8428L250.854 44.3844C248.504 44.126 246.09 43.7194 244.672 41.869C243.16 39.8948 243.339 37.1115 243.511 34.4197C243.531 34.1114 243.55 33.8058 243.567 33.5043C243.78 29.6601 243.288 26.3437 242.102 23.6486C240.654 20.3605 238.103 17.9992 235.276 17.3321C235.218 17.3173 235.163 17.3584 235.15 17.4216C235.138 17.4842 235.175 17.5462 235.233 17.5596C237.996 18.2119 240.492 20.5254 241.911 23.7489C243.081 26.4077 243.568 29.6844 243.356 33.4881C243.34 33.789 243.32 34.0946 243.3 34.4015C243.125 37.1404 242.943 39.9722 244.511 42.0185C245.981 43.9362 248.441 44.3535 250.835 44.6167L255 45.0751C257.255 45.3228 259.569 45.7138 260.922 47.4969C261.821 48.6823 262.115 50.3886 261.671 51.8439C261.227 53.2991 260.06 54.4535 258.697 54.7853C258.641 54.7995 258.605 54.8614 258.618 54.924C258.629 54.9792 258.675 55.0169 258.725 55.0149Z" fill="white"/>
<path d="M257.157 53.4504C257.209 53.4484 257.26 53.4255 257.299 53.3824C257.785 52.8405 258.336 52.2253 258.647 51.4613C258.93 50.7674 259.045 49.7496 258.519 48.9722C258.177 48.466 257.638 48.1887 257.108 47.9652C255.82 47.4213 254.475 47.0484 253.108 46.8579C252.219 46.7334 251.312 46.6856 250.435 46.6392C249.303 46.5793 248.132 46.5173 247.005 46.2892C245.658 46.0165 243.228 45.2196 242.095 42.9499C241.181 41.1156 241.413 39.0209 241.659 36.8037C241.858 35.0058 242.064 33.1467 241.615 31.4053C241.583 31.2815 241.465 31.2081 241.354 31.2431C241.241 31.2774 241.177 31.4053 241.208 31.5292C241.634 33.1803 241.433 34.9923 241.239 36.7438C240.996 38.9368 240.745 41.2045 241.726 43.1713C242.943 45.6113 245.509 46.4581 246.932 46.7462C248.087 46.9798 249.272 47.043 250.418 47.1036C251.287 47.1494 252.186 47.1972 253.058 47.3183C254.391 47.5048 255.704 47.8683 256.96 48.3987C257.399 48.5838 257.891 48.8174 258.182 49.2475C258.525 49.7543 258.556 50.5473 258.263 51.2675C257.982 51.9561 257.482 52.5141 256.999 53.0532C256.917 53.1448 256.919 53.2915 257.002 53.3824C257.044 53.4302 257.101 53.4524 257.157 53.4504Z" fill="white"/>
<path d="M221.177 47.3253C223.468 46.5983 230.15 45.2157 236.622 50.9971C237.719 51.9778 238.185 53.4869 237.822 54.9132C236.212 61.2452 231.993 79.9449 236.084 87.9408C236.084 87.9408 229.227 95.7495 221.51 89.6693C221.51 89.6693 217.853 74.8306 213.271 68.364C210.108 63.8999 217.926 51.3336 219.906 48.2959C220.206 47.8348 220.654 47.4909 221.177 47.3253Z" fill="#F1A34F"/>
<path d="M227.332 34.6973C227.332 34.6973 230.892 44.2729 231.217 48.5176C231.217 48.5176 227.482 50.2892 223.889 47.4581C223.889 47.4581 223.362 37.8447 222.797 36.131L227.332 34.6973Z" fill="#FFC297"/>
<path d="M222.883 36.0786C222.883 36.0786 223.175 37.9534 223.333 39.7308C226.688 39.3583 227.513 35.8661 228.098 34.1091L222.883 36.0786Z" fill="#D5956B"/>
<path d="M222.391 21.6415C222.391 21.6415 213.686 34.2475 219.068 37.7814C224.449 41.3152 230.646 32.3568 230.646 32.3568C230.646 32.3568 232.603 25.5025 230.404 23.2233C228.207 20.9442 222.391 21.6415 222.391 21.6415Z" fill="#FFC297"/>
<path d="M226.465 18.5975C226.465 18.5975 222.39 19.6328 221.846 21.4932C221.303 23.3537 227.705 24.9672 229.493 25.0224L231.053 32.469C231.053 32.469 235.194 25.3737 233.443 21.3431C231.692 17.3112 226.465 18.5975 226.465 18.5975Z" fill="#55443C"/>
<path d="M228.905 31.4684C228.905 31.4684 232.307 27.3981 233.728 29.9929C235.148 32.5878 230.682 34.6253 229.103 33.3652L228.905 31.4684Z" fill="#FFC297"/>
<path d="M213.123 121.082C213.16 121.758 212.059 127.14 211.459 130.012C211.217 131.167 211.418 132.369 212.02 133.383L235.002 170.681C235.28 171.132 235.486 171.623 235.613 172.137C236.052 173.898 236.972 178.215 236.591 182.162L235.473 184.585L240.461 183.368L241.333 169.907L239.902 169.065C238.665 168.338 237.694 167.238 237.127 165.921C235.025 161.039 229.799 148.61 228.406 142.533C226.823 135.628 219.037 130.124 219.037 130.124L220.338 126.906L213.123 121.082Z" fill="#FFC297"/>
<path d="M245.95 178.651C245.95 178.651 243.177 174.409 242.833 172.746C242.488 171.082 241.555 168.15 239.903 169.064C239.903 169.064 239.248 177.181 239.569 180.344C239.891 183.506 236.039 183.466 236.039 183.466C236.039 183.466 234.98 183.632 234.215 184.422C233.688 184.967 234.086 185.892 234.844 185.928C236.106 185.989 238.107 185.978 240.202 185.539C240.934 185.385 241.469 184.751 241.501 184.004L241.906 174.668L245.385 178.919L245.95 178.651Z" fill="#4F3A31"/>
<path d="M226.586 126.869C226.586 126.869 227.918 160.541 228.102 165.324C228.286 170.106 227.595 180.722 222.85 183.968L224.962 185.479C224.962 185.479 227.534 183.22 230.013 178.914C232.799 174.075 233.649 173.186 233.649 173.186L232.668 171.256C232.239 170.411 232.101 169.45 232.277 168.518C233.231 163.485 236.42 146.745 237.305 143.137C238.35 138.878 238.338 133.213 234.388 128.534C230.439 123.856 226.586 126.869 226.586 126.869Z" fill="#FFC297"/>
<path d="M231.983 186.883C232.131 186.882 232.256 186.773 232.275 186.626C232.416 185.5 233.008 180.987 233.533 179.813C234.134 178.468 236.078 172.815 233.412 172.381C233.412 172.381 226.959 182.143 225.711 183.465C224.463 184.788 222.849 183.966 222.849 183.966C222.849 183.966 221.618 184.351 220.705 185.557C220.271 186.131 220.697 186.956 221.418 186.952L225.869 186.923C227.163 186.914 228.312 186.11 228.774 184.902C229.526 182.933 230.826 180.04 232.374 178.741L231.684 186.559C231.67 186.734 231.808 186.884 231.983 186.883Z" fill="#4F3A31"/>
<path d="M220.398 86.0512C220.398 86.0512 221.453 89.2324 219.997 94.523L210.975 128.06C210.833 128.587 211.125 129.132 211.641 129.307C214.517 130.287 223.964 133.037 236.782 131.945C237.427 131.89 237.962 131.424 238.092 130.79C238.876 126.97 241.552 113.939 242.103 111.261C244.202 101.059 246.553 90.0542 235.329 83.6045C230.241 85.8816 225.483 87.2521 220.398 86.0512Z" fill="#A24706"/>
<path d="M239.744 55.527C239.744 55.527 237.502 70.6983 227.494 81.4202C219.516 89.9667 212.539 81.6161 209.157 78.2559C208.44 77.5438 207.374 76.9084 207.133 75.857C206.796 74.3896 206.621 73.2318 203.085 72.0337C200.064 71.0099 208.651 68.3774 210.638 71.2731C212.626 74.1688 209.106 74.7403 214.039 77.2759C218.844 79.7455 226.879 77.5451 229.434 60.3398C229.582 59.3422 229.965 58.3514 230.577 57.4743C234.847 51.3544 239.627 50.198 239.744 55.527Z" fill="#FFC297"/>
<defs>
<clipPath id="clip0_245_6652">
<rect width="299" height="170" fill="white" transform="translate(0 14.3887)"/>
</clipPath>
</defs>
</svg>
