<svg  viewBox="0 0 25 24" fill="none" xmlns="http://www.w3.org/2000/svg">
<path opacity="0.5" d="M11.1549 2.72548C11.7051 1.61061 13.2949 1.61061 13.8451 2.72548L15.6777 6.43873C15.8962 6.88145 16.3185 7.1883 16.8071 7.2593L20.9049 7.85474C22.1353 8.03352 22.6265 9.54548 21.7363 10.4133L18.771 13.3037C18.4175 13.6483 18.2562 14.1448 18.3396 14.6313L19.0396 18.7126C19.2498 19.938 17.9637 20.8724 16.8632 20.2939L13.198 18.367C12.761 18.1372 12.239 18.1372 11.802 18.367L8.13679 20.2939C7.03635 20.8724 5.7502 19.938 5.96036 18.7126L6.66035 14.6314C6.74381 14.1448 6.58249 13.6483 6.22896 13.3037L3.26375 10.4133C2.37347 9.54548 2.86474 8.03352 4.09507 7.85475L8.19289 7.2593C8.68145 7.1883 9.1038 6.88145 9.32229 6.43873L11.1549 2.72548Z" fill="#C5BEBE"/>
<path fill-rule="evenodd" clip-rule="evenodd" d="M12.5 1.88934C11.965 1.88934 11.43 2.16806 11.1549 2.7255L9.32225 6.43875C9.10376 6.88146 8.68141 7.18832 8.19284 7.25931L4.09502 7.85476C2.86469 8.03354 2.37343 9.5455 3.2637 10.4133L6.22891 13.3037C6.58244 13.6483 6.74377 14.1448 6.66031 14.6314L5.96032 18.7126C5.75015 19.938 7.0363 20.8724 8.13674 20.2939L11.8019 18.367C12.0204 18.2521 12.2602 18.1947 12.5 18.1947V1.88934Z" fill="#F38434"/>
</svg>
