<svg width="20" height="20" viewBox="0 0 20 20" fill="none" xmlns="http://www.w3.org/2000/svg">
<path d="M20 16.8635V10.4617C20 8.97373 20 8.22974 19.8083 7.54364C19.6384 6.93586 19.3592 6.36363 18.9842 5.85461C18.5608 5.28001 17.9729 4.81898 16.797 3.89697L15.2181 2.65888C13.3539 1.19714 12.4218 0.466267 11.3902 0.185663C10.4802 -0.0618876 9.51983 -0.0618876 8.60977 0.185663C7.5782 0.466267 6.64611 1.19714 4.78195 2.65887L3.203 3.89697C2.02713 4.81899 1.4392 5.28 1.01583 5.85461C0.640785 6.36363 0.361588 6.93586 0.191737 7.54364C0 8.22974 0 8.97373 0 10.4617V16.8635C0 17.8378 0 18.3249 0.160254 18.7092C0.373925 19.2215 0.783765 19.6286 1.29961 19.8408C1.6865 20 2.17697 20 3.15789 20H4.07895C4.20112 20 4.26221 20 4.31383 19.9975C5.39531 19.9447 6.26012 19.0858 6.31325 18.0116C6.31579 17.9603 6.31579 17.8997 6.31579 17.7783V13.7725C6.31579 11.7516 7.96527 10.1133 10 10.1133C12.0347 10.1133 13.6842 11.7516 13.6842 13.7725V17.7783C13.6842 17.8997 13.6842 17.9603 13.6867 18.0116C13.7399 19.0858 14.6047 19.9447 15.6862 19.9975C15.7378 20 15.7989 20 15.9211 20H16.8421C17.823 20 18.3135 20 18.7004 19.8408C19.2162 19.6286 19.6261 19.2215 19.8397 18.7092C20 18.3249 20 17.8378 20 16.8635Z" fill="#F38434"/>
</svg>
