<svg width="16" height="16" viewBox="0 0 16 16" fill="none" xmlns="http://www.w3.org/2000/svg">
<path opacity="0.85" d="M15.875 13.5066V9.03335C15.875 7.66963 15.875 6.98777 15.7076 6.35727C15.5431 5.73749 15.2609 5.15515 14.8764 4.64198C14.4852 4.11992 13.9501 3.69741 12.8797 2.8524C11.1831 1.51297 10.3348 0.843259 9.4011 0.570699C8.48613 0.303605 7.51387 0.303605 6.5989 0.570699C5.66521 0.843259 4.8169 1.51297 3.1203 2.85239L3.1203 2.8524C2.04994 3.69741 1.51477 4.11992 1.12361 4.64198C0.739099 5.15515 0.456893 5.73749 0.29237 6.35727C0.125 6.98777 0.125 7.66963 0.125 9.03335V13.5066C0.125 13.959 0.125 14.1852 0.161439 14.3735C0.316582 15.175 0.943382 15.8018 1.74496 15.957C1.93323 15.9934 2.15944 15.9934 2.61184 15.9934H3.33717C4.31003 15.9934 5.09868 15.2048 5.09868 14.2319V11.8487C5.09868 10.2463 6.39765 8.94737 8 8.94737C9.60235 8.94737 10.9013 10.2463 10.9013 11.8487V14.2319C10.9013 15.2048 11.69 15.9934 12.6628 15.9934H13.3882C13.8406 15.9934 14.0668 15.9934 14.255 15.957C15.0566 15.8018 15.6834 15.175 15.8386 14.3735C15.875 14.1852 15.875 13.959 15.875 13.5066Z" fill="#C5BEBE"/>
</svg>
