<svg width="241" height="240" viewBox="0 0 241 240" fill="none" xmlns="http://www.w3.org/2000/svg">
<g clip-path="url(#clip0_301_13626)">
<path d="M211.088 206.136C167.332 252.31 100.123 238.65 90.1885 236.455C77.6726 233.69 47.8954 227.111 25.6743 201.133C-8.34609 161.361 -4.91069 99.2035 21.3634 57.2978C29.0081 45.1041 54.7358 8.8678 103.049 0.989409C105.873 0.52904 156.324 -6.86814 196.916 27.1914C202.389 31.7838 211.223 40.0999 218.966 52.2094C242.985 89.7738 254.352 160.48 211.088 206.136Z" fill="#F4F4F4"/>
<path d="M116.278 12.4062C116.773 9.98619 119.293 8.56339 121.62 9.39292C137.052 14.8956 190.275 33.0715 236.171 39.1232C238.265 39.3994 239.723 41.3365 239.398 43.4229L212.698 214.73C212.332 217.078 210.14 218.692 207.788 218.339C188.555 215.459 109.409 203.318 82.1216 194.514C80.4608 193.978 79.4731 192.277 79.8232 190.567L116.278 12.4062Z" fill="#DECFBC"/>
<path opacity="0.6" d="M117.255 17.0455C117.732 14.7167 120.157 13.3469 122.395 14.146C137.246 19.4411 188.465 36.9326 232.633 42.7567C234.647 43.0225 236.051 44.8865 235.738 46.8939L210.044 211.75C209.691 214.01 207.581 215.562 205.319 215.223C186.811 212.452 110.645 200.768 84.3844 192.295C82.7861 191.779 81.8358 190.142 82.172 188.497L117.255 17.0455Z" fill="white"/>
<path opacity="0.78" d="M131.722 30.6417C130.352 30.3029 128.984 31.2054 128.758 32.5978L123.015 67.8916C122.824 69.0651 123.569 70.1874 124.725 70.4654C131.16 72.0124 151.226 76.755 162.741 78.5618C164.043 78.7659 165.282 77.939 165.597 76.6586C167.195 70.1501 171.692 51.1715 171.879 42.8814C171.909 41.542 171.001 40.365 169.7 40.0428L131.722 30.6417Z" fill="white"/>
<path d="M148.14 57.4129C152.381 57.4129 155.819 53.9751 155.819 49.7343C155.819 45.4935 152.381 42.0557 148.14 42.0557C143.899 42.0557 140.462 45.4935 140.462 49.7343C140.462 53.9751 143.899 57.4129 148.14 57.4129Z" fill="url(#paint0_linear_301_13626)"/>
<path d="M132.079 69.3886L156.016 74.4336C157.484 74.7428 158.704 73.3078 158.175 71.9041C156.812 68.2942 153.543 62.7237 146.131 61.3817C138.988 60.0883 133.889 63.4229 131.135 66.0053C129.966 67.1015 130.51 69.0577 132.079 69.3886Z" fill="url(#paint1_linear_301_13626)"/>
<g opacity="0.6">
<path opacity="0.6" d="M223.839 55.8142C224.588 55.9722 225.297 55.5709 225.414 54.9221C225.532 54.2732 225.017 53.6018 224.27 53.4307L182.472 43.8402C181.725 43.6691 181.196 44.1503 181.295 44.9095L181.376 45.5219C181.476 46.281 182.171 47.0324 182.921 47.1905L223.839 55.8142Z" fill="#B49A92"/>
</g>
<g opacity="0.6">
<path opacity="0.6" d="M181.099 50.3559C180.352 50.1847 179.823 50.666 179.923 51.4251L180.004 52.0375C180.104 52.7967 180.799 53.548 181.549 53.7061L222.466 62.3298C223.216 62.4879 223.925 62.0866 224.042 61.4377C224.159 60.7889 223.644 60.1174 222.897 59.9463L181.099 50.3559Z" fill="#B49A92"/>
</g>
<g opacity="0.6">
<path opacity="0.6" d="M179.706 56.9672C178.959 56.7961 178.43 57.2773 178.53 58.0365L178.611 58.6488C178.71 59.408 179.405 60.1594 180.156 60.3175L221.073 68.9411C221.823 69.0992 222.532 68.6979 222.649 68.0491C222.766 67.4002 222.251 66.7287 221.504 66.5576L179.706 56.9672Z" fill="#B49A92"/>
</g>
<g opacity="0.6">
<path opacity="0.6" d="M218.429 101.68C219.179 101.838 219.868 101.432 219.962 100.778C220.056 100.124 219.519 99.4555 218.771 99.2913L120.643 77.8008C119.894 77.6366 119.563 78.0631 119.907 78.7485L120.497 79.9263C120.84 80.6108 121.735 81.3005 122.485 81.4586L218.429 101.68Z" fill="#B49A92"/>
</g>
<g opacity="0.6">
<path opacity="0.6" d="M119.269 84.3164C118.52 84.1522 118.189 84.5787 118.532 85.2641L119.123 86.4419C119.466 87.1264 120.361 87.8161 121.11 87.9742L217.055 108.196C217.805 108.354 218.494 107.948 218.588 107.294C218.682 106.64 218.145 105.971 217.397 105.807L119.269 84.3164Z" fill="#B49A92"/>
</g>
<path opacity="0.6" d="M116.533 95.1028C118.935 95.4198 123.378 96.2685 125.821 96.7479C126.856 96.9512 127.615 97.8415 127.645 98.896C127.704 100.944 127.64 104.466 126.803 108.034C126.552 109.102 125.491 109.775 124.42 109.537L115.451 107.545C114.347 107.3 113.607 106.261 113.737 105.139L114.729 96.5151C114.83 95.6231 115.642 94.9855 116.533 95.1028Z" fill="white"/>
<g opacity="0.6">
<path opacity="0.6" d="M132.426 102.079C131.683 101.89 131.04 102.36 130.995 103.126L130.907 104.621C130.862 105.387 131.438 106.142 132.188 106.3L154.022 110.902C154.771 111.06 155.506 110.574 155.655 109.823L155.728 109.453C155.876 108.701 155.391 107.932 154.648 107.742L132.426 102.079Z" fill="white"/>
</g>
<path opacity="0.6" d="M165.509 105.424C167.911 105.741 172.354 106.59 174.797 107.069C175.833 107.272 176.591 108.163 176.621 109.217C176.681 111.266 176.616 114.787 175.779 118.355C175.528 119.424 174.468 120.096 173.396 119.858L164.427 117.866C163.324 117.621 162.585 116.582 162.713 115.46L163.705 106.836C163.808 105.945 164.62 105.307 165.509 105.424Z" fill="white"/>
<g opacity="0.6">
<path opacity="0.6" d="M181.402 112.401C180.66 112.212 180.016 112.683 179.971 113.448L179.883 114.944C179.838 115.709 180.415 116.464 181.164 116.622L202.998 121.224C203.748 121.382 204.483 120.896 204.631 120.145L204.704 119.775C204.853 119.024 204.367 118.254 203.624 118.065L181.402 112.401Z" fill="white"/>
</g>
<path d="M122.146 131.331C122.138 131.329 122.131 131.327 122.123 131.326L113.845 129.498C112.661 129.237 111.855 128.215 111.968 127.121L112.706 120.007C112.749 119.59 112.961 119.213 113.303 118.945C113.685 118.646 114.195 118.515 114.704 118.586C115.412 118.686 116.415 118.81 117.475 118.941C119.709 119.216 122.488 119.559 124.029 119.864C125.145 120.093 125.951 120.952 126.01 121.978C126.105 123.667 125.429 126.684 124.668 129.888C124.421 130.929 123.293 131.572 122.146 131.331ZM114.613 119.231C114.279 119.184 113.948 119.267 113.704 119.458C113.502 119.615 113.378 119.834 113.353 120.074L112.615 127.188C112.536 127.953 113.124 128.672 113.984 128.862L122.263 130.69C122.268 130.691 122.274 130.692 122.28 130.693C123.083 130.863 123.868 130.437 124.034 129.738C124.784 126.582 125.449 123.617 125.359 122.015C125.318 121.297 124.712 120.675 123.902 120.503C122.385 120.203 119.618 119.862 117.395 119.587C116.332 119.456 115.328 119.332 114.613 119.231Z" fill="white"/>
<path opacity="0.6" d="M115.354 120.138C117.122 120.386 120.991 120.8 122.792 121.156C123.556 121.307 124.126 121.907 124.165 122.605C124.242 123.96 123.657 126.506 123.101 128.851C122.934 129.554 122.166 129.98 121.375 129.806L114.759 128.345C113.945 128.165 113.386 127.466 113.462 126.726L114.052 121.041C114.114 120.455 114.699 120.046 115.354 120.138Z" fill="white"/>
<g opacity="0.6">
<path opacity="0.6" d="M130.406 128.245C130.454 129.207 131.148 130.013 132.092 130.203L208.985 145.725C209.854 145.901 210.7 145.331 210.864 144.459C211.024 143.611 210.479 142.79 209.635 142.609L132.952 126.081C131.598 125.79 130.336 126.862 130.406 128.245Z" fill="white"/>
</g>
<path d="M115.478 121.304C116.17 121.072 116.917 121.455 117.133 122.152L118.151 125.43C118.253 125.758 118.685 125.829 118.888 125.552L124.85 117.372C125.147 116.964 125.786 117.259 125.675 117.75C125.052 120.506 123.211 125.604 117.868 129.071C117.868 129.071 115.634 127.613 114.581 122.896C114.43 122.215 114.816 121.525 115.478 121.304Z" fill="url(#paint2_linear_301_13626)"/>
<path d="M118.399 149.111C118.391 149.109 118.384 149.108 118.376 149.106L110.097 147.278C108.914 147.017 108.108 145.995 108.221 144.902L108.959 137.788C109.002 137.37 109.214 136.993 109.555 136.725C109.938 136.427 110.448 136.295 110.956 136.367C111.665 136.467 112.668 136.59 113.728 136.721C115.961 136.996 118.741 137.34 120.282 137.644C120.293 137.647 120.305 137.649 120.316 137.651C121.407 137.882 122.205 138.743 122.263 139.76C122.359 141.448 121.683 144.465 120.922 147.669C120.674 148.709 119.545 149.353 118.399 149.111ZM110.866 137.011C110.532 136.964 110.201 137.047 109.957 137.238C109.755 137.395 109.631 137.614 109.606 137.855L108.868 144.969C108.789 145.733 109.377 146.452 110.237 146.643L118.516 148.47C118.521 148.471 118.527 148.473 118.533 148.474C119.336 148.643 120.121 148.217 120.287 147.518C121.037 144.362 121.702 141.397 121.612 139.795C121.571 139.078 120.958 138.438 120.155 138.283C118.638 137.983 115.871 137.642 113.648 137.367C112.585 137.235 111.581 137.112 110.866 137.011Z" fill="white"/>
<path opacity="0.6" d="M111.607 137.918C113.375 138.167 117.243 138.58 119.045 138.936C119.809 139.087 120.379 139.688 120.418 140.385C120.495 141.74 119.91 144.286 119.353 146.631C119.187 147.334 118.419 147.761 117.628 147.587L111.012 146.126C110.198 145.946 109.639 145.248 109.715 144.508L110.305 138.822C110.367 138.234 110.952 137.826 111.607 137.918Z" fill="white"/>
<g opacity="0.6">
<path opacity="0.6" d="M126.659 146.024C126.707 146.986 127.401 147.792 128.344 147.982L205.237 163.505C206.107 163.68 206.953 163.11 207.117 162.238C207.277 161.39 206.731 160.569 205.888 160.388L129.204 143.861C127.851 143.569 126.589 144.642 126.659 146.024Z" fill="white"/>
</g>
<path d="M111.73 139.083C112.423 138.851 113.17 139.234 113.386 139.931L114.404 143.209C114.506 143.537 114.938 143.609 115.141 143.332L121.103 135.152C121.4 134.743 122.039 135.038 121.928 135.53C121.304 138.285 119.464 143.384 114.121 146.85C114.121 146.85 111.887 145.392 110.834 140.675C110.683 139.993 111.068 139.305 111.73 139.083Z" fill="url(#paint3_linear_301_13626)"/>
<path d="M114.651 166.89C114.644 166.888 114.637 166.886 114.629 166.884L106.35 165.057C105.167 164.796 104.361 163.775 104.474 162.681L105.211 155.567C105.255 155.149 105.467 154.772 105.808 154.505C106.19 154.206 106.701 154.075 107.209 154.146C107.918 154.246 108.92 154.369 109.981 154.5C112.214 154.776 114.994 155.119 116.535 155.424C116.546 155.426 116.557 155.428 116.568 155.431C117.659 155.661 118.458 156.522 118.516 157.538C118.611 159.227 117.936 162.243 117.175 165.448C116.926 166.488 115.798 167.132 114.651 166.89ZM107.119 154.79C106.784 154.744 106.453 154.826 106.209 155.017C106.008 155.174 105.884 155.393 105.858 155.634L105.121 162.748C105.042 163.512 105.63 164.232 106.49 164.421L114.769 166.249C114.774 166.25 114.78 166.252 114.785 166.253C115.589 166.422 116.374 165.996 116.54 165.297C117.289 162.142 117.955 159.176 117.864 157.574C117.824 156.857 117.21 156.216 116.408 156.062C114.89 155.762 112.124 155.421 109.901 155.147C108.838 155.015 107.834 154.89 107.119 154.79Z" fill="white"/>
<path opacity="0.6" d="M107.86 155.698C109.627 155.946 113.496 156.359 115.298 156.716C116.061 156.867 116.632 157.467 116.671 158.164C116.748 159.52 116.163 162.065 115.606 164.411C115.439 165.113 114.672 165.54 113.881 165.366L107.265 163.905C106.451 163.725 105.891 163.027 105.968 162.287L106.558 156.602C106.619 156.014 107.205 155.605 107.86 155.698Z" fill="white"/>
<g opacity="0.6">
<path opacity="0.6" d="M122.911 163.805C122.96 164.766 123.654 165.572 124.597 165.763L201.49 181.285C202.36 181.46 203.206 180.89 203.37 180.018C203.53 179.171 202.984 178.35 202.141 178.168L125.457 161.641C124.104 161.349 122.842 162.422 122.911 163.805Z" fill="white"/>
</g>
<path d="M107.983 156.863C108.675 156.631 109.422 157.014 109.639 157.711L110.657 160.989C110.758 161.318 111.191 161.389 111.393 161.112L117.355 152.932C117.653 152.524 118.292 152.818 118.181 153.31C117.557 156.065 115.716 161.164 110.374 164.631C110.374 164.631 108.139 163.172 107.087 158.456C106.935 157.774 107.321 157.085 107.983 156.863Z" fill="url(#paint4_linear_301_13626)"/>
<path d="M110.904 184.67C110.896 184.668 110.889 184.666 110.882 184.665L102.603 182.838C101.42 182.577 100.614 181.556 100.727 180.462L101.464 173.348C101.507 172.93 101.719 172.553 102.061 172.286C102.443 171.987 102.954 171.856 103.462 171.927C104.171 172.027 105.173 172.15 106.234 172.282C108.467 172.557 111.246 172.9 112.787 173.205C112.799 173.208 112.81 173.209 112.821 173.212C113.912 173.442 114.711 174.304 114.769 175.319C114.864 177.008 114.188 180.024 113.428 183.229C113.179 184.269 112.051 184.912 110.904 184.67ZM103.372 172.571C103.037 172.524 102.706 172.606 102.462 172.798C102.261 172.955 102.136 173.174 102.111 173.414L101.374 180.528C101.295 181.293 101.883 182.012 102.743 182.201L111.021 184.03C111.027 184.031 111.033 184.032 111.038 184.033C111.841 184.203 112.627 183.777 112.793 183.078C113.542 179.922 114.208 176.956 114.117 175.355C114.076 174.637 113.464 173.994 112.661 173.843C111.143 173.543 108.377 173.201 106.154 172.927C105.091 172.795 104.086 172.671 103.372 172.571Z" fill="white"/>
<path opacity="0.6" d="M104.112 173.478C105.88 173.726 109.749 174.14 111.55 174.496C112.314 174.647 112.885 175.247 112.924 175.945C113 177.3 112.416 179.846 111.859 182.191C111.692 182.894 110.924 183.32 110.134 183.146L103.517 181.685C102.704 181.506 102.144 180.807 102.221 180.067L102.81 174.382C102.872 173.794 103.458 173.386 104.112 173.478Z" fill="white"/>
<g opacity="0.6">
<path opacity="0.6" d="M119.164 181.584C119.213 182.546 119.907 183.352 120.85 183.542L197.743 199.064C198.612 199.239 199.458 198.67 199.623 197.798C199.782 196.95 199.237 196.129 198.394 195.947L121.71 179.42C120.357 179.128 119.095 180.2 119.164 181.584Z" fill="white"/>
</g>
<path d="M104.236 174.643C104.928 174.411 105.675 174.794 105.891 175.491L106.909 178.769C107.011 179.097 107.444 179.168 107.646 178.891L113.608 170.711C113.905 170.303 114.545 170.598 114.433 171.089C113.81 173.844 111.969 178.943 106.626 182.41C106.626 182.41 104.392 180.952 103.339 176.235C103.188 175.553 103.574 174.864 104.236 174.643Z" fill="url(#paint5_linear_301_13626)"/>
<path d="M0.599822 35.5139C0.0942848 33.0957 1.84195 30.7904 4.3071 30.628C20.6554 29.5543 76.7214 25.1148 121.25 12.4547C123.281 11.877 125.389 13.0766 125.918 15.1205L169.396 182.955C169.992 185.256 168.62 187.607 166.322 188.217C147.526 193.207 70.0608 213.472 41.5206 216.221C39.7833 216.389 38.2016 215.219 37.8446 213.51L0.599822 35.5139Z" fill="#DECFBC"/>
<path opacity="0.6" d="M3.33683 39.385C2.84954 37.0579 4.53293 34.8386 6.90513 34.6831C22.6376 33.6495 76.5929 29.3776 119.445 17.1943C121.399 16.6384 123.427 17.7928 123.936 19.7594L165.777 181.274C166.35 183.489 165.03 185.75 162.818 186.337C144.73 191.139 70.1816 210.642 42.7158 213.287C41.0445 213.448 39.5219 212.322 39.1779 210.679L3.33683 39.385Z" fill="white"/>
<path opacity="0.78" d="M20.0673 49.0952L28.803 83.7697C29.094 84.9232 30.2224 85.6572 31.3941 85.454C37.914 84.3204 58.2154 80.7096 69.5014 77.7988C70.7782 77.4696 71.5869 76.2188 71.3672 74.9185C70.251 68.3091 66.8469 49.1056 63.7285 41.4218C63.2247 40.1806 61.9235 39.4605 60.6024 39.6811L22.0113 46.1237C20.6198 46.3565 19.7233 47.7272 20.0673 49.0952Z" fill="white"/>
<path opacity="0.6" d="M52.3217 57.6539C52.6101 53.4228 49.4139 49.7591 45.1829 49.4708C40.9519 49.1824 37.2882 52.3785 36.9998 56.6096C36.7114 60.8406 39.9076 64.5043 44.1386 64.7927C48.3696 65.081 52.0333 61.8849 52.3217 57.6539Z" fill="#B49A92"/>
<path opacity="0.6" d="M37.716 81.5468L61.6899 76.6773C63.1596 76.3785 63.7103 74.577 62.668 73.499C59.9848 70.7264 54.7731 66.9105 47.4376 68.6208C40.367 70.2686 37.0115 75.3535 35.508 78.8158C34.8695 80.2855 36.1455 81.8656 37.716 81.5468Z" fill="#B49A92"/>
<g opacity="0.6">
<path opacity="0.6" d="M116.555 32.6703C117.305 32.5175 117.797 31.8677 117.647 31.2258C117.497 30.5839 116.758 30.1722 116.005 30.3112L73.8332 38.0966C73.0802 38.2356 72.7848 38.8871 73.1783 39.5446L73.4954 40.0745C73.8888 40.732 74.8243 41.1455 75.5757 40.9926L116.555 32.6703Z" fill="white"/>
</g>
<g opacity="0.6">
<path opacity="0.6" d="M75.158 44.6229C74.4049 44.7619 74.1095 45.4133 74.503 46.0709L74.8201 46.6007C75.2135 47.2583 76.1491 47.6717 76.9004 47.5189L117.88 39.1957C118.631 39.0429 119.122 38.3931 118.973 37.7512C118.823 37.1093 118.083 36.6976 117.33 36.8366L75.158 44.6229Z" fill="white"/>
</g>
<g opacity="0.6">
<path opacity="0.6" d="M76.5026 51.244C75.7495 51.383 75.4541 52.0344 75.8476 52.692L76.1647 53.2218C76.5581 53.8794 77.4937 54.2928 78.245 54.14L119.225 45.8168C119.975 45.664 120.467 45.0142 120.318 44.3723C120.167 43.7304 119.428 43.3187 118.675 43.4577L76.5026 51.244Z" fill="white"/>
</g>
<g opacity="0.6">
<path opacity="0.6" d="M129.791 76.9158C130.541 76.7629 131.014 76.1175 130.84 75.48C130.666 74.8424 129.909 74.4411 129.157 74.5879L30.5586 93.8062C29.8064 93.953 29.6717 94.4759 30.2589 94.9675L31.2682 95.8144C31.8554 96.3069 32.9499 96.5849 33.7004 96.432L129.791 76.9158Z" fill="#B49A92"/>
</g>
<g opacity="0.6">
<path opacity="0.6" d="M31.884 100.332C31.1318 100.479 30.9972 101.002 31.5843 101.494L32.5937 102.341C33.1809 102.833 34.2753 103.111 35.0258 102.958L131.116 83.4412C131.867 83.2883 132.339 82.6429 132.165 82.0054C131.992 81.3678 131.234 80.9665 130.482 81.1133L31.884 100.332Z" fill="#B49A92"/>
</g>
<path opacity="0.6" d="M33.6526 111.318C35.9823 110.656 40.3984 109.672 42.8305 109.142C43.8616 108.918 44.91 109.434 45.3573 110.389C46.2251 112.245 47.5628 115.504 48.2108 119.112C48.4045 120.192 47.6983 121.23 46.6203 121.437L37.5971 123.169C36.487 123.382 35.396 122.723 35.0694 121.641L32.5573 113.332C32.2967 112.471 32.7892 111.564 33.6526 111.318Z" fill="#B49A92"/>
<g opacity="0.6">
<path opacity="0.6" d="M51.0094 111.414C50.2529 111.535 49.849 112.223 50.1113 112.943L50.6238 114.35C50.8861 115.07 51.7148 115.534 52.4661 115.382L74.3328 110.941C75.0833 110.788 75.5654 110.05 75.4038 109.302L75.3239 108.933C75.1623 108.185 74.411 107.671 73.6544 107.792L51.0094 111.414Z" fill="white"/>
</g>
<path opacity="0.6" d="M82.7037 101.356C85.0333 100.694 89.4494 99.7098 91.8815 99.1799C92.9125 98.9558 93.961 99.4718 94.4083 100.427C95.276 102.284 96.6137 105.542 97.2617 109.15C97.4554 110.231 96.7492 111.268 95.6713 111.475L86.6481 113.207C85.5388 113.42 84.447 112.761 84.1204 111.679L81.6083 103.37C81.3477 102.509 81.8402 101.601 82.7037 101.356Z" fill="white"/>
<g opacity="0.6">
<path opacity="0.6" d="M100.06 101.451C99.3038 101.572 98.8999 102.26 99.1622 102.98L99.6756 104.387C99.9379 105.108 100.767 105.571 101.518 105.419L123.385 100.978C124.135 100.825 124.617 100.088 124.456 99.339L124.376 98.9707C124.214 98.222 123.463 97.7077 122.706 97.8293L100.06 101.451Z" fill="white"/>
</g>
<path opacity="0.6" d="M53.1818 142.344C53.174 142.345 53.1671 142.347 53.1592 142.348L44.8352 143.956C43.6461 144.185 42.5004 143.567 42.1703 142.519L40.0239 135.697C39.898 135.296 39.9432 134.866 40.1508 134.485C40.3827 134.059 40.7996 133.736 41.2947 133.599C41.9853 133.409 42.9538 133.125 43.9788 132.824C46.1382 132.191 48.8257 131.402 50.3605 131.071C51.4759 130.839 52.5573 131.307 53.0177 132.225C53.7751 133.737 54.3527 136.774 54.926 140.017C55.1119 141.072 54.331 142.11 53.1818 142.344ZM41.4667 134.227C41.141 134.317 40.87 134.524 40.7214 134.796C40.599 135.02 40.572 135.271 40.6441 135.501L42.7905 142.324C43.0207 143.057 43.8467 143.483 44.711 143.316L53.035 141.709C53.0402 141.708 53.0463 141.706 53.0515 141.705C53.8567 141.542 54.4083 140.839 54.2832 140.131C53.7186 136.936 53.1523 133.951 52.4339 132.517C52.1117 131.874 51.3082 131.545 50.4969 131.707C48.9846 132.034 46.3102 132.819 44.1612 133.449C43.1336 133.75 42.1625 134.035 41.4667 134.227Z" fill="#B49A92"/>
<path opacity="0.6" d="M42.5065 134.765C44.2272 134.292 47.9432 133.136 49.7377 132.748C50.4978 132.584 51.2604 132.909 51.5731 133.534C52.1812 134.747 52.6546 137.316 53.0741 139.69C53.2001 140.401 52.665 141.098 51.8702 141.25L45.2183 142.535C44.4001 142.693 43.6096 142.274 43.3864 141.565L41.6709 136.113C41.4937 135.549 41.8689 134.941 42.5065 134.765Z" fill="white"/>
<g opacity="0.6">
<path opacity="0.6" d="M59.5393 136.232C59.965 137.096 60.9222 137.56 61.8638 137.361L138.602 121.092C139.47 120.908 140.021 120.05 139.824 119.184C139.634 118.342 138.808 117.805 137.962 117.973L61.0169 133.236C59.6592 133.506 58.927 134.991 59.5393 136.232Z" fill="white"/>
</g>
<path opacity="0.6" d="M56.7988 160.151C56.791 160.153 56.784 160.155 56.7762 160.156L48.4522 161.763C47.2631 161.993 46.1174 161.375 45.7873 160.327L43.6409 153.504C43.515 153.103 43.5602 152.673 43.7669 152.292C43.9988 151.865 44.4157 151.543 44.9109 151.406C45.6014 151.216 46.5699 150.932 47.5949 150.631C49.7543 149.998 52.4418 149.209 53.9767 148.877C53.988 148.875 53.9992 148.872 54.0097 148.87C55.1024 148.649 56.1777 149.123 56.6329 150.033C57.3903 151.545 57.968 154.582 58.5413 157.825C58.728 158.88 57.948 159.918 56.7988 160.151ZM45.0837 152.035C44.758 152.124 44.487 152.332 44.3384 152.604C44.216 152.828 44.189 153.079 44.2611 153.309L46.4075 160.131C46.6377 160.864 47.4637 161.291 48.328 161.124L56.652 159.516C56.6572 159.515 56.6633 159.514 56.6685 159.513C57.4737 159.349 58.0253 158.647 57.9002 157.939C57.3356 154.744 56.7693 151.759 56.0509 150.324C55.7287 149.683 54.9122 149.339 54.1139 149.515C52.6025 149.842 49.9272 150.627 47.7782 151.256C46.7506 151.558 45.7786 151.843 45.0837 152.035Z" fill="#B49A92"/>
<path opacity="0.6" d="M46.1234 152.572C47.8441 152.098 51.5601 150.942 53.3546 150.555C54.1147 150.391 54.8773 150.716 55.19 151.34C55.7981 152.554 56.2715 155.122 56.691 157.496C56.817 158.207 56.2819 158.904 55.4871 159.057L48.8352 160.342C48.0169 160.5 47.2265 160.081 47.0033 159.371L45.2877 153.919C45.1097 153.355 45.4858 152.747 46.1234 152.572Z" fill="white"/>
<g opacity="0.6">
<path opacity="0.6" d="M63.1562 154.039C63.5818 154.902 64.539 155.366 65.4806 155.167L142.219 138.899C143.087 138.715 143.637 137.857 143.441 136.991C143.251 136.149 142.425 135.612 141.579 135.78L64.6337 151.043C63.276 151.312 62.5438 152.798 63.1562 154.039Z" fill="white"/>
</g>
<path opacity="0.6" d="M60.4157 177.957C60.4079 177.959 60.4009 177.96 60.3931 177.961L52.0691 179.569C50.88 179.799 49.7343 179.182 49.4042 178.132L47.2578 171.31C47.1319 170.91 47.177 170.479 47.3846 170.098C47.6166 169.671 48.0335 169.349 48.5286 169.212C49.2192 169.021 50.1877 168.737 51.2127 168.437C53.372 167.804 56.0596 167.015 57.5944 166.683C57.6057 166.68 57.617 166.678 57.6274 166.676C58.7202 166.455 59.7955 166.929 60.2507 167.838C61.0081 169.351 61.5857 172.387 62.159 175.631C62.3449 176.686 61.564 177.724 60.4157 177.957ZM48.7006 169.84C48.3749 169.93 48.1039 170.138 47.9553 170.409C47.8329 170.633 47.8059 170.885 47.878 171.115L50.0244 177.937C50.2546 178.67 51.0806 179.096 51.9449 178.93L60.2698 177.322C60.275 177.321 60.2811 177.319 60.2863 177.318C61.0915 177.155 61.6431 176.452 61.518 175.744C60.9534 172.55 60.387 169.564 59.6687 168.13C59.3464 167.488 58.529 167.142 57.7317 167.321C56.2203 167.647 53.5449 168.432 51.3959 169.062C50.3666 169.364 49.3955 169.649 48.7006 169.84Z" fill="#B49A92"/>
<path opacity="0.6" d="M49.7404 170.379C51.4611 169.905 55.177 168.749 56.9716 168.362C57.7316 168.197 58.4943 168.522 58.807 169.147C59.415 170.36 59.8884 172.929 60.308 175.303C60.4339 176.014 59.8989 176.711 59.1041 176.864L52.4522 178.148C51.6339 178.306 50.8435 177.887 50.6203 177.177L48.9047 171.725C48.7267 171.162 49.1019 170.554 49.7404 170.379Z" fill="white"/>
<g opacity="0.6">
<path opacity="0.6" d="M66.7731 171.846C67.1987 172.709 68.156 173.173 69.0975 172.974L145.836 156.706C146.704 156.521 147.254 155.663 147.058 154.797C146.868 153.955 146.042 153.419 145.196 153.586L68.2506 168.85C66.893 169.119 66.1599 170.604 66.7731 171.846Z" fill="white"/>
</g>
<path d="M64.0327 195.763C64.0249 195.765 64.0179 195.767 64.0101 195.768L55.6861 197.376C54.4969 197.606 53.3512 196.988 53.0211 195.939L50.8748 189.116C50.7488 188.715 50.794 188.285 51.0016 187.903C51.2335 187.477 51.6505 187.155 52.1456 187.018C52.8361 186.828 53.8046 186.544 54.8296 186.243C56.989 185.61 59.6765 184.821 61.2114 184.49C61.2227 184.487 61.234 184.484 61.2444 184.483C62.3371 184.261 63.4125 184.735 63.8676 185.645C64.6251 187.157 65.2027 190.194 65.776 193.437C65.9619 194.493 65.181 195.531 64.0327 195.763ZM52.3167 187.647C51.991 187.737 51.7199 187.944 51.5714 188.216C51.4489 188.44 51.422 188.691 51.4941 188.921L53.6405 195.743C53.8707 196.477 54.6967 196.903 55.561 196.736L63.8859 195.128C63.8911 195.128 63.8972 195.126 63.9024 195.125C64.7076 194.962 65.2592 194.259 65.1341 193.551C64.5695 190.356 64.0031 187.371 63.2848 185.937C62.9625 185.294 62.1452 184.947 61.3478 185.127C59.8364 185.454 57.161 186.239 55.012 186.869C53.9836 187.171 53.0125 187.456 52.3167 187.647Z" fill="white"/>
<path opacity="0.6" d="M53.3563 188.185C55.0771 187.712 58.793 186.556 60.5876 186.168C61.3477 186.004 62.1103 186.329 62.423 186.953C63.0311 188.167 63.5045 190.735 63.924 193.109C64.05 193.821 63.5149 194.517 62.7201 194.67L56.0682 195.955C55.2499 196.113 54.4595 195.693 54.2362 194.985L52.5207 189.532C52.3435 188.968 52.7188 188.361 53.3563 188.185Z" fill="white"/>
<g opacity="0.6">
<path opacity="0.6" d="M70.3892 189.652C70.8148 190.516 71.7721 190.98 72.7136 190.781L149.452 174.512C150.32 174.328 150.87 173.47 150.674 172.604C150.484 171.762 149.658 171.225 148.812 171.393L71.8667 186.656C70.5099 186.926 69.7768 188.411 70.3892 189.652Z" fill="white"/>
</g>
<path d="M53.9324 189.206C54.4752 188.719 55.3135 188.774 55.7886 189.328L58.0244 191.933C58.2485 192.194 58.6733 192.088 58.7488 191.753L60.9751 181.879C61.0863 181.386 61.789 181.402 61.8828 181.899C62.4031 184.675 62.7375 190.085 59.2101 195.387C59.2101 195.387 56.5808 194.935 53.7421 191.024C53.3321 190.458 53.4129 189.672 53.9324 189.206Z" fill="url(#paint6_linear_301_13626)"/>
<path d="M50.9086 52.7146C50.9086 45.4521 56.7961 39.5654 64.0578 39.5654H175.881C182.05 39.5654 187.137 44.4002 187.451 50.5613L195.705 212.683C195.951 217.505 192.155 221.572 187.328 221.66L59.1648 223.989C54.6297 224.072 50.9086 220.418 50.9086 215.882V52.7146V52.7146Z" fill="#9A6D2B"/>
<path d="M60.0699 42.0599C60.056 39.7363 62.0999 37.9382 64.4017 38.2501C79.6721 40.3209 132.183 46.7252 175.598 43.3932C177.578 43.2412 179.296 44.7413 179.402 46.7243L188.057 209.569C188.176 211.802 186.471 213.712 184.238 213.844C165.978 214.924 90.7791 219.101 63.957 216.292C62.3248 216.121 61.0853 214.747 61.0758 213.105L60.0699 42.0599Z" fill="#DECFBC"/>
<path opacity="0.6" d="M61.868 46.1409C61.855 43.905 63.8215 42.1739 66.0374 42.4744C80.7327 44.467 131.266 50.6308 173.047 47.4238C174.953 47.2779 176.606 48.7215 176.708 50.629L185.037 207.342C185.151 209.491 183.51 211.328 181.362 211.456C163.79 212.496 91.4228 216.516 65.61 213.812C64.0387 213.648 62.8469 212.325 62.8374 210.745L61.868 46.1409Z" fill="white"/>
<path opacity="0.78" d="M75.4722 58.2227L77.0331 91.8201C77.0853 92.9372 77.9878 93.8258 79.1057 93.8579C85.3276 94.0334 104.717 94.5059 115.665 93.9352C116.904 93.871 117.884 92.8686 117.924 91.629C118.133 85.3281 118.59 66.9889 117.154 59.3233C116.922 58.0846 115.858 57.1778 114.598 57.1335L77.8201 55.8471C76.4937 55.8019 75.4106 56.8972 75.4722 58.2227Z" fill="white"/>
<path d="M96.6354 77.4579C100.624 77.4579 103.858 74.2242 103.858 70.2353C103.858 66.2463 100.624 63.0127 96.6354 63.0127C92.6465 63.0127 89.4128 66.2463 89.4128 70.2353C89.4128 74.2242 92.6465 77.4579 96.6354 77.4579Z" fill="#F08537"/>
<path d="M85.6646 91.4396H108.674C110.085 91.4396 110.93 89.8822 110.171 88.693C108.217 85.6346 104.127 81.1421 97.0453 81.3445C90.2197 81.5399 86.1745 85.5981 84.1402 88.5089C83.2768 89.7449 84.1567 91.4396 85.6646 91.4396Z" fill="#F08537"/>
<path d="M76.3452 118.122C78.6167 117.948 82.8712 117.867 85.213 117.834C86.2049 117.82 87.0753 118.493 87.3081 119.457C87.7598 121.33 88.3834 124.584 88.3053 128.031C88.2818 129.063 87.4358 129.887 86.4039 129.876L77.762 129.783C76.6996 129.772 75.8171 128.959 75.7181 127.901L74.9581 119.771C74.879 118.931 75.5027 118.187 76.3452 118.122Z" fill="#8B6F66"/>
<path d="M123.424 118.122C125.695 117.948 129.95 117.867 132.291 117.834C133.283 117.82 134.154 118.493 134.387 119.457C134.838 121.33 135.462 124.584 135.384 128.031C135.36 129.063 134.514 129.887 133.482 129.876L124.84 129.783C123.778 129.772 122.895 128.959 122.796 127.901L122.036 119.771C121.958 118.931 122.582 118.187 123.424 118.122Z" fill="#8B6F66"/>
<path opacity="0.6" d="M88.5381 150.376C88.5311 150.376 88.5233 150.376 88.5164 150.376L80.5424 150.3C79.4028 150.289 78.4629 149.505 78.3544 148.477L77.6534 141.786C77.6125 141.393 77.7342 141.005 77.9965 140.692C78.2901 140.343 78.7348 140.123 79.2169 140.09C79.8883 140.044 80.8351 139.963 81.8367 139.878C83.9457 139.699 86.5706 139.475 88.0473 139.457C89.1192 139.452 90.0278 140.086 90.2805 141.019C90.6957 142.555 90.6592 145.462 90.5802 148.559C90.5541 149.565 89.6404 150.376 88.5381 150.376ZM79.2586 140.702C78.9415 140.724 78.6532 140.864 78.4655 141.087C78.3109 141.271 78.2388 141.497 78.2623 141.722L78.9633 148.412C79.0388 149.131 79.7198 149.679 80.5476 149.688L88.5216 149.764C88.5268 149.764 88.532 149.764 88.5372 149.764C89.3103 149.764 89.9496 149.219 89.967 148.544C90.0451 145.493 90.0816 142.635 89.6881 141.179C89.5118 140.526 88.8325 140.072 88.0542 140.069C86.5993 140.088 83.9865 140.31 81.8879 140.489C80.8838 140.574 79.9352 140.655 79.2586 140.702Z" fill="#B49A92"/>
<path d="M80.4565 142.442C81.0489 142.094 81.8107 142.302 82.1451 142.901L83.7182 145.721C83.8754 146.003 84.2871 145.985 84.42 145.69L88.321 137.005C88.5156 136.572 89.161 136.718 89.154 137.193C89.114 139.85 88.4096 144.9 84.1647 149.127C84.1647 149.127 81.8255 148.217 79.9414 144.081C79.6678 143.482 79.8902 142.773 80.4565 142.442Z" fill="#F08537"/>
<path opacity="0.6" d="M88.5381 167.468C88.5311 167.468 88.5233 167.468 88.5164 167.468L80.5424 167.392C79.4028 167.38 78.4629 166.597 78.3544 165.569L77.6534 158.878C77.6125 158.485 77.7342 158.097 77.9965 157.784C78.2901 157.435 78.7348 157.215 79.2169 157.182C79.8883 157.136 80.8351 157.055 81.8367 156.97C83.9457 156.79 86.5706 156.567 88.0473 156.549C88.0577 156.549 88.069 156.549 88.0794 156.549C89.1279 156.549 90.0304 157.187 90.2805 158.111C90.6957 159.646 90.6592 162.554 90.5802 165.651C90.5541 166.657 89.6404 167.468 88.5381 167.468ZM79.2586 157.794C78.9415 157.815 78.6532 157.956 78.4655 158.178C78.3109 158.362 78.2388 158.588 78.2623 158.813L78.9633 165.504C79.0388 166.223 79.7198 166.771 80.5476 166.779L88.5216 166.856C88.5268 166.856 88.532 166.856 88.5372 166.856C89.3103 166.856 89.9496 166.311 89.967 165.635C90.0451 162.585 90.0816 159.727 89.6881 158.27C89.5118 157.618 88.823 157.149 88.0542 157.161C86.5993 157.179 83.9874 157.402 81.8879 157.581C80.8838 157.666 79.9352 157.747 79.2586 157.794Z" fill="#B49A92"/>
<path d="M80.4565 159.532C81.0489 159.185 81.8107 159.393 82.1451 159.992L83.7182 162.812C83.8754 163.094 84.2871 163.076 84.42 162.781L88.321 154.096C88.5156 153.662 89.161 153.809 89.154 154.284C89.114 156.94 88.4096 161.991 84.1647 166.217C84.1647 166.217 81.8255 165.308 79.9414 161.172C79.6678 160.574 79.8902 159.865 80.4565 159.532Z" fill="#F08537"/>
<path opacity="0.6" d="M88.5381 184.558C88.5311 184.558 88.5233 184.558 88.5164 184.558L80.5424 184.482C79.4028 184.471 78.4629 183.687 78.3544 182.658L77.6534 175.967C77.6125 175.575 77.7342 175.187 77.9965 174.874C78.2901 174.525 78.7348 174.305 79.2169 174.272C79.8883 174.226 80.8351 174.145 81.8367 174.06C83.9457 173.88 86.5706 173.657 88.0473 173.639C88.0577 173.639 88.069 173.639 88.0794 173.639C89.1279 173.639 90.0304 174.277 90.2805 175.2C90.6957 176.736 90.6592 179.643 90.5802 182.741C90.5541 183.748 89.6404 184.558 88.5381 184.558ZM79.2586 174.883C78.9415 174.905 78.6532 175.046 78.4655 175.268C78.3109 175.452 78.2388 175.678 78.2623 175.904L78.9633 182.595C79.0388 183.313 79.7198 183.861 80.5476 183.869L88.5216 183.946C88.5268 183.946 88.532 183.946 88.5372 183.946C89.3103 183.946 89.9496 183.401 89.967 182.725C90.0451 179.675 90.0816 176.817 89.6881 175.36C89.5118 174.708 88.823 174.236 88.0542 174.251C86.5993 174.269 83.9874 174.492 81.8879 174.671C80.8838 174.757 79.9352 174.837 79.2586 174.883Z" fill="#B49A92"/>
<path d="M80.4565 176.623C81.0489 176.276 81.8107 176.483 82.1451 177.083L83.7182 179.902C83.8754 180.185 84.2871 180.166 84.42 179.872L88.321 171.187C88.5156 170.753 89.161 170.9 89.154 171.375C89.114 174.031 88.4096 179.082 84.1647 183.308C84.1647 183.308 81.8255 182.399 79.9414 178.262C79.6678 177.665 79.8902 176.956 80.4565 176.623Z" fill="#F08537"/>
<path opacity="0.6" d="M88.5381 201.649C88.5311 201.649 88.5233 201.649 88.5164 201.649L80.5424 201.573C79.4028 201.562 78.4629 200.778 78.3544 199.749L77.6534 193.058C77.6125 192.666 77.7342 192.277 77.9965 191.965C78.2901 191.615 78.7348 191.396 79.2169 191.363C79.8883 191.317 80.8351 191.236 81.8367 191.151C83.9457 190.971 86.5706 190.748 88.0473 190.729C88.0577 190.729 88.069 190.729 88.0794 190.729C89.1279 190.729 90.0304 191.368 90.2805 192.291C90.6957 193.827 90.6592 196.734 90.5802 199.832C90.5541 200.839 89.6404 201.649 88.5381 201.649ZM79.2586 191.974C78.9415 191.996 78.6532 192.137 78.4655 192.359C78.3109 192.543 78.2388 192.769 78.2623 192.995L78.9633 199.686C79.0388 200.404 79.7198 200.952 80.5476 200.96L88.5216 201.037C88.5268 201.037 88.532 201.037 88.5372 201.037C89.3103 201.037 89.9496 200.492 89.967 199.816C90.0451 196.766 90.0816 193.908 89.6881 192.451C89.5118 191.799 88.823 191.325 88.0542 191.342C86.5993 191.36 83.9874 191.582 81.8879 191.761C80.8838 191.847 79.9352 191.928 79.2586 191.974Z" fill="#B49A92"/>
<path opacity="0.6" d="M167.485 61.1484C168.206 61.1484 168.78 60.6412 168.763 60.021C168.745 59.4008 168.14 58.8831 167.42 58.8709L127.09 58.1526C126.37 58.1395 125.976 58.685 126.215 59.3652L126.408 59.9133C126.648 60.5934 127.433 61.1493 128.153 61.1493H167.485V61.1484Z" fill="#B49A92"/>
<g opacity="0.6">
<path opacity="0.6" d="M127.09 64.4153C126.37 64.4022 125.976 64.9477 126.215 65.6279L126.408 66.176C126.648 66.8561 127.433 67.412 128.153 67.412H167.485C168.206 67.412 168.78 66.9047 168.763 66.2845C168.745 65.6643 168.14 65.1466 167.42 65.1345L127.09 64.4153Z" fill="#B49A92"/>
</g>
<g opacity="0.6">
<path opacity="0.6" d="M127.09 70.7688C126.37 70.7558 125.976 71.3013 126.215 71.9814L126.408 72.5295C126.648 73.2096 127.433 73.7656 128.153 73.7656H167.485C168.206 73.7656 168.78 73.2583 168.763 72.6381C168.745 72.0179 168.14 71.5002 167.42 71.488L127.09 70.7688Z" fill="#B49A92"/>
</g>
<g opacity="0.6">
<path opacity="0.6" d="M171.403 104.409C172.124 104.409 172.68 103.902 172.639 103.282C172.598 102.662 171.975 102.15 171.254 102.145L76.7717 101.4C76.0508 101.394 75.8284 101.851 76.2775 102.415L77.0497 103.384C77.4988 103.948 78.4551 104.409 79.1761 104.409H171.403V104.409Z" fill="#B49A92"/>
</g>
<g opacity="0.6">
<path opacity="0.6" d="M76.7717 107.663C76.0508 107.657 75.8284 108.114 76.2775 108.678L77.0497 109.647C77.4988 110.211 78.4551 110.672 79.1761 110.672H171.404C172.125 110.672 172.681 110.165 172.64 109.545C172.599 108.924 171.976 108.413 171.255 108.408L76.7717 107.663Z" fill="#B49A92"/>
</g>
<g opacity="0.6">
<path opacity="0.6" d="M92.3261 121.46C91.606 121.43 91.1048 121.988 91.2116 122.701L91.421 124.095C91.5278 124.807 92.2053 125.391 92.9254 125.391H113.913C114.634 125.391 115.216 124.801 115.207 124.081L115.203 123.726C115.194 123.005 114.598 122.391 113.877 122.362L92.3261 121.46Z" fill="#B49A92"/>
</g>
<g opacity="0.6">
<path opacity="0.6" d="M139.405 121.46C138.685 121.43 138.183 121.988 138.29 122.701L138.5 124.095C138.606 124.807 139.284 125.391 140.004 125.391H160.992C161.713 125.391 162.295 124.801 162.286 124.081L162.282 123.726C162.273 123.005 161.676 122.391 160.956 122.362L139.405 121.46Z" fill="#B49A92"/>
</g>
<g opacity="0.6">
<path opacity="0.6" d="M95.5418 145.934C95.7728 146.809 96.5676 147.416 97.4736 147.408L171.254 146.78C172.089 146.773 172.757 146.084 172.739 145.25C172.721 144.439 172.06 143.789 171.249 143.785L97.4658 143.449C96.1628 143.443 95.21 144.674 95.5418 145.934Z" fill="#B49A92"/>
</g>
<g opacity="0.6">
<path opacity="0.6" d="M95.5418 163.024C95.7728 163.9 96.5676 164.507 97.4736 164.499L171.254 163.87C172.089 163.864 172.757 163.175 172.739 162.341C172.721 161.529 172.06 160.88 171.249 160.876L97.4658 160.54C96.1628 160.533 95.21 161.765 95.5418 163.024Z" fill="#B49A92"/>
</g>
<g opacity="0.6">
<path opacity="0.6" d="M95.5418 180.116C95.7728 180.992 96.5676 181.599 97.4736 181.591L171.254 180.962C172.089 180.955 172.757 180.266 172.739 179.433C172.721 178.621 172.06 177.972 171.249 177.968L97.4658 177.632C96.1628 177.625 95.21 178.857 95.5418 180.116Z" fill="#B49A92"/>
</g>
<g opacity="0.6">
<path opacity="0.6" d="M95.5418 197.208C95.7728 198.083 96.5676 198.691 97.4736 198.683L171.254 198.054C172.089 198.047 172.757 197.358 172.739 196.524C172.721 195.713 172.06 195.063 171.249 195.06L97.4658 194.724C96.1628 194.717 95.21 195.948 95.5418 197.208Z" fill="#B49A92"/>
</g>
<path d="M80.4565 193.714C81.0489 193.367 81.8107 193.574 82.1451 194.174L83.7182 196.993C83.8754 197.275 84.2871 197.257 84.42 196.963L88.321 188.277C88.5156 187.844 89.161 187.991 89.154 188.466C89.114 191.122 88.4096 196.172 84.1647 200.399C84.1647 200.399 81.8255 199.489 79.9414 195.353C79.6678 194.756 79.8902 194.047 80.4565 193.714Z" fill="#F08537"/>
<path d="M126.904 17.461C122.865 14.651 119.352 14.7066 116.88 15.4362C114.625 16.1016 113.163 18.2792 113.378 20.621L114.445 32.2588L127.133 33.3845C127.132 33.3845 134.826 22.9715 126.904 17.461ZM121.325 26.8499C119.578 26.8499 118.162 25.4332 118.162 23.6864C118.162 21.9387 119.578 20.5229 121.325 20.5229C123.073 20.5229 124.489 21.9396 124.489 23.6864C124.489 25.4332 123.072 26.8499 121.325 26.8499Z" fill="#B49A92"/>
<path d="M115.712 27.3626C115.556 27.3626 115.422 27.2436 115.407 27.0846L115.237 25.231C115.221 25.0624 115.346 24.9139 115.514 24.8983C115.686 24.8818 115.832 25.0069 115.847 25.1754L116.016 27.029C116.032 27.1975 115.908 27.346 115.739 27.3617C115.73 27.3626 115.721 27.3626 115.712 27.3626ZM115.379 23.7308C115.223 23.7308 115.089 23.6118 115.075 23.4529L114.945 22.0457C114.741 19.8151 116.145 17.7382 118.282 17.1067C119.796 16.6594 121.357 16.596 122.919 16.9165C123.085 16.9504 123.192 17.112 123.157 17.2779C123.123 17.4429 122.962 17.5489 122.796 17.5159C121.332 17.2162 119.872 17.2761 118.455 17.6939C116.596 18.2429 115.377 20.0496 115.554 21.9901L115.683 23.3973C115.698 23.5658 115.574 23.7143 115.405 23.73C115.398 23.7308 115.388 23.7308 115.379 23.7308Z" fill="white"/>
<path d="M97.1279 39.7789V33.9279C97.1279 31.9083 98.8018 30.2901 100.82 30.3596L141.162 31.7416C142.952 31.8032 144.402 33.2156 144.509 35.0041L144.846 40.6258L97.1279 39.7789Z" fill="#B49A92"/>
<path d="M112.171 32.5646H110.436C110.267 32.5646 110.13 32.4274 110.13 32.2589C110.13 32.0895 110.267 31.9531 110.436 31.9531H112.171C112.34 31.9531 112.476 32.0904 112.476 32.2589C112.476 32.4274 112.339 32.5646 112.171 32.5646Z" fill="white"/>
<path d="M99.3116 37.9423C99.1422 37.9423 99.0059 37.805 99.0059 37.6365V35.2695C99.0059 33.4402 100.494 31.9531 102.322 31.9531H108.701C108.87 31.9531 109.006 32.0904 109.006 32.2589C109.006 32.4283 108.869 32.5646 108.701 32.5646H102.322C100.831 32.5646 99.6182 33.7781 99.6182 35.2686V37.6356C99.6174 37.805 99.481 37.9423 99.3116 37.9423Z" fill="white"/>
<path d="M155.526 77.9985L146.03 70.2547L136.533 77.9985C137.29 70.7151 137.643 62.5883 137.243 53.77C137.115 50.9618 136.918 48.2413 136.665 45.6146C136.633 45.2767 136.744 44.9414 136.972 44.6904C137.201 44.4393 137.524 44.2969 137.863 44.2969C143.371 44.2969 148.88 44.2969 154.387 44.2969C155.027 44.2969 155.554 44.7972 155.588 45.4348C155.799 49.4695 155.936 53.6441 155.981 57.9516C156.057 64.9787 155.882 71.6723 155.526 77.9985Z" fill="#C5964F"/>
<path d="M80.691 41.2571C80.7883 39.2306 82.4595 37.6385 84.4878 37.6385L155.032 37.6367C157.568 37.6367 159.737 39.4617 160.17 41.9616L160.23 42.3064C160.704 45.0443 158.596 47.5477 155.817 47.5477H83.4428C81.7803 47.5477 80.4548 46.157 80.5347 44.4962L80.691 41.2571Z" fill="#8B6F66"/>
<path d="M203.845 236.542C200.15 236.713 196.572 236.606 194.184 236.483C196.358 234.935 201.368 231.567 205.56 230.227L208.438 230.055C208.438 230.055 209.414 231.537 209.761 234.931C209.284 235.526 207.891 236.357 203.845 236.542Z" fill="#4F3A31"/>
<path d="M194.155 236.504C194.164 236.497 194.175 236.49 194.184 236.483C196.572 236.606 200.15 236.712 203.845 236.543C207.89 236.357 209.284 235.527 209.761 234.932C209.777 235.088 209.793 235.243 209.807 235.408C209.867 236.152 209.314 236.806 208.569 236.863C205.543 237.091 198.039 237.61 194.42 237.419C193.943 237.394 193.766 236.781 194.155 236.504Z" fill="#4F3A31"/>
<path d="M230.276 235.553C230.547 233.818 230.981 231.31 231.316 230.669C231.842 229.663 233.643 230.669 233.643 230.669C233.643 230.669 234.907 231.259 235.489 232.241C235.86 232.867 236.885 234.65 237.58 235.859C237.66 235.998 237.693 236.146 237.69 236.29L230.479 236.541C230.303 236.259 230.22 235.914 230.276 235.553Z" fill="#4F3A31"/>
<path d="M237.689 236.29C237.677 236.702 237.35 237.075 236.89 237.088L231.753 237.23C231.21 237.245 230.74 236.963 230.479 236.543L237.689 236.29Z" fill="#4F3A31"/>
<path d="M229.725 224.903C229.788 225.111 230.719 229.627 231.127 231.61C231.24 232.159 231.734 232.543 232.292 232.515C232.597 232.499 232.952 232.472 233.324 232.423C233.984 232.338 234.487 231.787 234.513 231.121C234.579 229.385 234.612 226.051 233.975 224.76C233.095 222.977 229.725 224.903 229.725 224.903Z" fill="#FFC297"/>
<path d="M209.004 226.196C208.605 226.183 209.164 228.259 208.56 230.3C208.423 230.76 208.079 231.121 207.599 231.128C207.288 231.132 206.92 231.126 206.545 231.095C205.983 231.05 205.53 230.613 205.478 230.051L204.986 224.759L209.004 226.196Z" fill="#FFC297"/>
<path d="M197.827 169.939C198.005 170.808 204.301 207.527 204.683 226.528C204.689 226.847 204.924 227.114 205.24 227.158C206.039 227.269 207.596 227.413 209.104 227.133C209.311 227.095 209.467 226.924 209.48 226.714C209.699 223.174 211.469 193.236 209.302 179.142C209.302 179.142 227.202 216.815 229.916 227.203C229.982 227.456 230.214 227.626 230.474 227.612C231.241 227.571 232.835 227.434 234.101 226.968C234.554 226.801 234.813 226.324 234.698 225.854C233.183 219.637 222.558 176.806 215.345 167.369L197.827 169.939Z" fill="#FBC16B"/>
<path d="M209.301 179.378C209.36 179.378 209.42 179.355 209.466 179.311C209.559 179.221 209.56 179.071 209.469 178.979L207.073 176.528C206.982 176.435 206.833 176.433 206.74 176.524C206.647 176.615 206.645 176.764 206.736 176.857L209.133 179.308C209.18 179.354 209.241 179.378 209.301 179.378Z" fill="url(#paint7_linear_301_13626)"/>
<path d="M191.773 122.554C197.128 121.748 207.638 120.595 214.494 122.607L213.751 143.796L188.912 141.118L186.805 138.123C186.805 138.124 187.781 123.154 191.773 122.554Z" fill="#C5964F"/>
<path d="M204.144 111.209C204.144 111.209 204.64 119.637 204.546 122.259C204.546 122.259 197.646 123.388 196.004 122.207L197.302 112.217L204.144 111.209Z" fill="#FFC297"/>
<path d="M196.977 114.281C196.977 114.281 196.831 116.085 196.583 117.769C199.778 118.169 201.899 115.531 202.832 114.031L196.977 114.281Z" fill="#D5956B"/>
<path d="M197.436 102.77C197.436 102.77 194.658 107.646 194.22 110.315C193.781 112.985 193.015 114.664 196.061 115.54C199.108 116.415 201.89 115.15 203.595 112.628C203.595 112.628 206.26 108.745 205.943 107.003C205.627 105.261 197.436 102.77 197.436 102.77Z" fill="#FFC297"/>
<path d="M202.742 110.589L202.349 110.547C202.349 110.547 204.323 107.403 202.965 106.667C201.606 105.932 196.101 104.178 195.101 102.049C194.138 99.9971 195.45 97.6223 197.087 97.0941C197.19 97.0611 197.302 97.1202 197.342 97.221L197.446 97.4798C197.516 97.657 197.767 97.6588 197.839 97.4816C197.908 97.3139 198.145 97.3018 198.223 97.4642C198.531 98.1018 199.433 99.1814 202.079 99.9702C205.834 101.09 208.2 102.913 207.977 105.568C207.963 105.736 208.132 105.847 208.284 105.776C208.586 105.634 209.047 105.602 209.597 106.176C210.553 107.174 209.876 109.422 207.367 111.061C207.248 111.139 207.231 111.31 207.341 111.399C207.73 111.717 208.284 112.431 206.576 113.121C204.829 113.826 203.861 113.625 203.503 113.49C203.406 113.454 203.349 113.356 203.366 113.255L203.764 110.924C203.785 110.804 203.699 110.691 203.577 110.678L202.742 110.589Z" fill="#55443C"/>
<path d="M202.592 111.07C202.592 111.07 203.794 107.893 205.161 108.967C206.527 110.041 204.006 112.547 202.815 112.542L202.592 111.07Z" fill="#FFC297"/>
<path d="M172.841 139.129L173.499 136.54C173.825 135.259 175.099 134.46 176.395 134.724L238.426 147.38C239.839 147.668 240.747 149.051 240.449 150.462L236.667 168.388L172.841 139.129Z" fill="#F08537"/>
<path d="M166.96 170.575L171.625 137.042C171.721 136.348 172.389 135.885 173.073 136.036L236.785 150.185C238.144 150.487 238.997 151.838 238.684 153.196L233.337 176.374L166.96 170.575Z" fill="white"/>
<path d="M168.642 169.055L170.429 139.125C170.475 138.356 171.194 137.807 171.948 137.967L236.33 151.591C237.238 151.783 237.836 152.652 237.691 153.569L234.261 175.189L168.642 169.055Z" fill="white"/>
<path d="M163.979 176.131L168.032 143.712C168.234 142.096 169.757 140.986 171.357 141.288L237.375 153.748C238.713 154.001 239.594 155.291 239.341 156.629L233.766 186.171C233.502 187.565 232.195 188.509 230.789 188.322L166.79 179.775C165.011 179.538 163.756 177.911 163.979 176.131Z" fill="#F08537"/>
<path d="M194.587 145.672C194.327 147.047 193.002 147.952 191.627 147.693L176.907 144.915C175.532 144.655 174.627 143.33 174.887 141.955C175.146 140.579 176.472 139.674 177.847 139.934L192.567 142.712C193.942 142.972 194.847 144.297 194.587 145.672Z" fill="#F08537"/>
<path d="M207.566 131.846L214.494 122.606C214.494 122.606 225.627 134.433 227.762 149.443L220.818 152.83C218.663 147.776 214.696 140.928 207.566 131.846Z" fill="#C5964F"/>
<path d="M217.493 173.467C218.314 172.094 219.916 169.48 220.695 168.664C220.695 168.664 219.983 168.214 218.616 168.382C217.249 168.55 216.178 167.883 216.219 167.139L222.741 165.139C223.034 164.526 224.324 161.053 220.818 152.83L227.762 149.443C228.562 155.063 228.104 161.128 225.323 167.188C225.323 167.188 223.166 173.886 220.689 175.372C214.223 179.25 217.177 173.994 217.493 173.467Z" fill="#FFC297"/>
<g opacity="0.6">
<path d="M51.6581 86.5587L50.29 88.2916L50.2848 88.2977C50.1849 88.4236 50.0017 88.4453 49.8757 88.3454C49.7498 88.2456 49.728 88.0623 49.8279 87.9363C49.8288 87.9346 49.8314 87.932 49.8323 87.9311L51.2516 86.2191C51.3446 86.1062 51.5113 86.0905 51.6243 86.1843C51.7346 86.2764 51.7519 86.4397 51.6633 86.5518L51.6581 86.5587Z" fill="#B49A92"/>
<path d="M47.0328 92.8679L44.7136 96.5682L44.7023 96.5856C44.585 96.7732 44.3375 96.8297 44.1498 96.7124C43.9622 96.5952 43.9058 96.3476 44.023 96.16C44.0239 96.1582 44.0265 96.1548 44.0274 96.153L46.4395 92.4649C46.5481 92.299 46.7696 92.2529 46.9355 92.3615C47.0988 92.4684 47.1466 92.6864 47.0432 92.8514L47.0328 92.8679Z" fill="#B49A92"/>
<path d="M42.019 101.49L40.1585 105.435L40.1472 105.459C40.0316 105.704 39.7398 105.808 39.4948 105.693C39.2499 105.578 39.1456 105.286 39.2603 105.041C39.2612 105.039 39.2629 105.035 39.2638 105.033L41.2156 101.076C41.3259 100.853 41.596 100.761 41.8193 100.871C42.0399 100.979 42.132 101.245 42.0277 101.467L42.019 101.49Z" fill="#B49A92"/>
<path d="M38.0869 110.642L36.7362 114.784L36.7257 114.815C36.6267 115.119 36.3001 115.285 35.9961 115.186C35.6921 115.087 35.5262 114.76 35.6252 114.456C35.6261 114.454 35.6278 114.449 35.6287 114.447L37.0732 110.27C37.1705 109.989 37.478 109.84 37.7594 109.937C38.0382 110.033 38.1868 110.335 38.0964 110.614L38.0869 110.642Z" fill="#B49A92"/>
<path d="M35.3454 120.202L34.5402 124.477L34.5333 124.514C34.4673 124.864 34.1302 125.093 33.781 125.028C33.431 124.962 33.2017 124.625 33.2677 124.276L33.2685 124.269L34.1354 119.93C34.2023 119.594 34.5298 119.376 34.8651 119.444C35.1986 119.511 35.4158 119.833 35.3533 120.167L35.3454 120.202Z" fill="#B49A92"/>
<path d="M33.8818 130.027L33.669 134.367L33.6664 134.41C33.6473 134.795 33.3198 135.092 32.9342 135.073C32.5485 135.054 32.2514 134.727 32.2705 134.341L32.2714 134.333L32.5363 129.913C32.5589 129.541 32.8786 129.258 33.2503 129.279C33.6195 129.301 33.9018 129.617 33.8844 129.986L33.8818 130.027Z" fill="#B49A92"/>
<path d="M33.7802 139.951L34.165 144.277L34.1694 144.322C34.2059 144.736 33.9001 145.102 33.4858 145.139C33.0714 145.176 32.7057 144.87 32.6684 144.455L32.6675 144.448L32.3227 140.029C32.2914 139.628 32.5911 139.277 32.9924 139.245C33.3911 139.214 33.7403 139.509 33.775 139.907L33.7802 139.951Z" fill="#B49A92"/>
<path d="M35.0406 149.789L36.0126 154.019L36.023 154.066C36.1229 154.5 35.8519 154.934 35.4167 155.034C34.9816 155.133 34.549 154.862 34.4482 154.427L34.4465 154.419L33.4997 150.086C33.4076 149.663 33.6752 149.246 34.0982 149.153C34.5177 149.061 34.9329 149.325 35.0285 149.743L35.0406 149.789Z" fill="#B49A92"/>
<path d="M37.6265 159.359L39.1431 163.424L39.1604 163.47C39.3246 163.909 39.1014 164.398 38.6619 164.562C38.2232 164.726 37.7342 164.503 37.57 164.063L37.5683 164.059L36.0386 159.895C35.8788 159.46 36.102 158.979 36.5364 158.819C36.9707 158.659 37.4519 158.883 37.6117 159.317L37.6265 159.359Z" fill="#B49A92"/>
<path d="M41.4267 168.513L43.4541 172.35L43.4767 172.392C43.6999 172.815 43.5383 173.34 43.1144 173.564C42.6914 173.788 42.1668 173.626 41.9435 173.203L41.9418 173.2L39.884 169.27C39.6643 168.85 39.8258 168.331 40.2463 168.111C40.6667 167.891 41.1861 168.053 41.4059 168.473L41.4267 168.513Z" fill="#B49A92"/>
<path d="M46.3665 177.107L48.8604 180.659L48.8882 180.699C49.1687 181.099 49.0723 181.651 48.6727 181.932C48.2723 182.212 47.7207 182.116 47.4393 181.716L47.4376 181.714L44.902 178.074C44.625 177.676 44.7231 177.13 45.1201 176.853C45.517 176.576 46.0643 176.674 46.3414 177.071L46.3665 177.107Z" fill="#B49A92"/>
<path d="M52.3435 185.014L55.2604 188.224L55.2942 188.262C55.6295 188.631 55.6026 189.202 55.2334 189.537C54.8643 189.872 54.2936 189.845 53.9583 189.476L53.9557 189.474L50.9832 186.179C50.6523 185.812 50.6818 185.246 51.0484 184.915C51.4158 184.584 51.9813 184.613 52.3122 184.98L52.3435 185.014Z" fill="#B49A92"/>
<path d="M59.2656 192.101L62.5733 194.901L62.6158 194.936C63.0041 195.264 63.0519 195.846 62.7235 196.234C62.3952 196.622 61.8141 196.671 61.4258 196.342L61.4232 196.34L58.0426 193.458C57.6595 193.13 57.6126 192.554 57.9401 192.171C58.2675 191.787 58.8434 191.741 59.2274 192.068L59.2656 192.101Z" fill="#B49A92"/>
<path d="M67.0623 198.185L68.8959 199.328L69.8123 199.899C70.1198 200.087 70.4186 200.289 70.7339 200.462C71.1882 200.713 71.3533 201.284 71.1022 201.738C70.8512 202.193 70.2805 202.358 69.8262 202.107L69.8227 202.105L69.7976 202.091C69.4727 201.91 69.1652 201.702 68.849 201.507L67.9066 200.915L66.0225 199.729C65.5873 199.456 65.4562 198.881 65.7298 198.445C66.0034 198.01 66.5776 197.879 67.0136 198.153L67.0623 198.185Z" fill="#B49A92"/>
<path d="M75.6756 202.99C76.9846 203.588 78.3153 204.144 79.6634 204.651C80.1515 204.835 80.3982 205.38 80.215 205.868C80.0308 206.356 79.4879 206.603 78.9998 206.42C77.6108 205.9 76.2376 205.334 74.8869 204.718C74.41 204.5 74.1998 203.937 74.4178 203.46C74.6349 202.982 75.1987 202.773 75.6756 202.99Z" fill="#B49A92"/>
<path d="M84.9446 206.386L89.1444 207.427L89.2008 207.441C89.7003 207.565 90.0051 208.07 89.8809 208.569C89.7576 209.069 89.2538 209.374 88.7552 209.25L84.4373 208.192C83.9344 208.068 83.6269 207.561 83.7502 207.058C83.8736 206.555 84.3809 206.248 84.8838 206.371L84.8864 206.372L84.9446 206.386Z" fill="#B49A92"/>
<path d="M94.6288 208.384L98.9388 208.843L98.991 208.848C99.4948 208.902 99.8596 209.353 99.8066 209.857C99.7536 210.361 99.3045 210.727 98.7999 210.673L94.3838 210.218C93.8757 210.166 93.5065 209.711 93.5586 209.203C93.6107 208.695 94.065 208.326 94.5732 208.378H94.5766L94.6288 208.384Z" fill="#B49A92"/>
<path d="M104.509 209.09L108.85 209.02L108.895 209.019C109.381 209.011 109.781 209.398 109.789 209.884C109.797 210.368 109.413 210.766 108.931 210.778L104.499 210.883C104.004 210.895 103.594 210.503 103.582 210.008C103.57 209.513 103.961 209.102 104.456 209.091H104.463L104.509 209.09Z" fill="#B49A92"/>
<path d="M114.42 208.608L118.732 208.049L118.771 208.044C119.232 207.984 119.654 208.309 119.714 208.77C119.773 209.229 119.451 209.649 118.995 209.712L114.609 210.316C114.139 210.38 113.706 210.052 113.641 209.583C113.577 209.113 113.905 208.679 114.374 208.615L114.381 208.614L114.42 208.608Z" fill="#B49A92"/>
<path d="M124.236 207.058L128.475 206.07L128.507 206.062C128.919 205.966 129.332 206.223 129.428 206.636C129.524 207.045 129.272 207.453 128.866 207.555L124.576 208.621C124.147 208.728 123.714 208.467 123.607 208.038C123.5 207.61 123.762 207.176 124.19 207.069C124.192 207.068 124.195 207.068 124.197 207.067L124.236 207.058Z" fill="#B49A92"/>
<path d="M133.86 204.535L137.99 203.144L138.017 203.135C138.38 203.013 138.774 203.208 138.896 203.571C139.017 203.931 138.827 204.321 138.47 204.447L134.307 205.918C133.929 206.052 133.514 205.854 133.38 205.475C133.246 205.097 133.444 204.682 133.823 204.548C133.825 204.548 133.827 204.547 133.829 204.546L133.86 204.535Z" fill="#B49A92"/>
<path d="M143.216 201.114L147.209 199.355L147.231 199.346C147.544 199.208 147.91 199.35 148.048 199.663C148.185 199.973 148.046 200.335 147.739 200.476L143.728 202.314C143.401 202.464 143.014 202.32 142.863 201.992C142.713 201.665 142.857 201.278 143.185 201.127C143.186 201.126 143.188 201.126 143.19 201.125L143.216 201.114Z" fill="#B49A92"/>
<path d="M152.251 196.889L156.094 194.812L156.111 194.803C156.357 194.67 156.665 194.762 156.798 195.008C156.929 195.251 156.841 195.554 156.603 195.69L152.778 197.878C152.509 198.032 152.167 197.939 152.013 197.67C151.86 197.401 151.953 197.059 152.222 196.905C152.224 196.904 152.228 196.902 152.231 196.9L152.251 196.889Z" fill="#B49A92"/>
<path d="M160.924 191.939L164.589 189.554L164.601 189.547C164.78 189.431 165.019 189.481 165.136 189.66C165.25 189.836 165.203 190.072 165.031 190.19L161.4 192.679C161.2 192.817 160.926 192.765 160.788 192.565C160.651 192.366 160.702 192.092 160.902 191.955C160.905 191.953 160.906 191.951 160.909 191.951L160.924 191.939Z" fill="#B49A92"/>
<path d="M169.204 186.305L170.975 184.979L170.979 184.976C171.096 184.888 171.262 184.912 171.349 185.029C171.435 185.144 171.413 185.305 171.303 185.395L169.567 186.783C169.438 186.887 169.249 186.866 169.144 186.737C169.041 186.607 169.062 186.418 169.191 186.314C169.193 186.312 169.196 186.31 169.198 186.308L169.204 186.305Z" fill="#B49A92"/>
</g>
</g>
<defs>
<linearGradient id="paint0_linear_301_13626" x1="159.964" y1="38.2314" x2="85.4845" y2="110.687" gradientUnits="userSpaceOnUse">
<stop stop-color="#FDF53F"/>
<stop offset="1" stop-color="#D93C65"/>
</linearGradient>
<linearGradient id="paint1_linear_301_13626" x1="168.274" y1="46.7752" x2="93.7962" y2="119.23" gradientUnits="userSpaceOnUse">
<stop stop-color="#FDF53F"/>
<stop offset="1" stop-color="#D93C65"/>
</linearGradient>
<linearGradient id="paint2_linear_301_13626" x1="147.085" y1="92.0386" x2="89.4884" y2="155.412" gradientUnits="userSpaceOnUse">
<stop stop-color="#A737D5"/>
<stop offset="1" stop-color="#EF497A"/>
</linearGradient>
<linearGradient id="paint3_linear_301_13626" x1="153.882" y1="98.2156" x2="96.2844" y2="161.589" gradientUnits="userSpaceOnUse">
<stop stop-color="#A737D5"/>
<stop offset="1" stop-color="#EF497A"/>
</linearGradient>
<linearGradient id="paint4_linear_301_13626" x1="156.646" y1="117.413" x2="84.5321" y2="183.383" gradientUnits="userSpaceOnUse">
<stop stop-color="#A737D5"/>
<stop offset="1" stop-color="#EF497A"/>
</linearGradient>
<linearGradient id="paint5_linear_301_13626" x1="167.476" y1="110.571" x2="109.879" y2="173.944" gradientUnits="userSpaceOnUse">
<stop stop-color="#A737D5"/>
<stop offset="1" stop-color="#EF497A"/>
</linearGradient>
<linearGradient id="paint6_linear_301_13626" x1="86.5574" y1="105.302" x2="58.8362" y2="186.326" gradientUnits="userSpaceOnUse">
<stop stop-color="#A737D5"/>
<stop offset="1" stop-color="#EF497A"/>
</linearGradient>
<linearGradient id="paint7_linear_301_13626" x1="199.011" y1="166.162" x2="215.459" y2="187.426" gradientUnits="userSpaceOnUse">
<stop stop-color="#CB236D"/>
<stop offset="1" stop-color="#4C246D"/>
</linearGradient>
<clipPath id="clip0_301_13626">
<rect width="240" height="240" fill="white" transform="translate(0.5)"/>
</clipPath>
</defs>
</svg>
