<svg width="20" height="20" viewBox="0 0 17 17" fill="none" xmlns="http://www.w3.org/2000/svg">
<path d="M6.98908 0C3.09516 0 0 3.09516 0 6.98908C0 8.88612 0.698908 10.6833 2.09672 11.9813C2.19657 12.0811 6.19033 15.6755 6.29017 15.7754C6.68955 16.0749 7.28861 16.0749 7.58814 15.7754C7.68799 15.6755 11.7816 12.0811 11.7816 11.9813C13.1794 10.6833 13.8783 8.88612 13.8783 6.98908C13.9782 3.09516 10.883 0 6.98908 0ZM6.98908 8.98596C5.8908 8.98596 4.9922 8.08736 4.9922 6.98908C4.9922 5.8908 5.8908 4.9922 6.98908 4.9922C8.08736 4.9922 8.98596 5.8908 8.98596 6.98908C8.98596 8.08736 8.08736 8.98596 6.98908 8.98596Z" fill="#000"/>
</svg>
