<svg width="80" height="80" viewBox="0 0 80 80" fill="none" xmlns="http://www.w3.org/2000/svg">
<g opacity="0.5" clip-path="url(#clip0_197_11644)">
<path d="M61.3337 42.666C51.0243 42.666 42.667 51.0233 42.667 61.3327C42.667 71.642 51.0243 79.9993 61.3337 79.9993C71.643 79.9993 80.0003 71.642 80.0003 61.3327C80.0003 51.0233 71.643 42.666 61.3337 42.666ZM69.3337 63.9993H64.0003V69.3327C64.0003 70.8073 62.8057 71.9993 61.3337 71.9993C59.8617 71.9993 58.667 70.8073 58.667 69.3327V63.9993H53.3337C51.8617 63.9993 50.667 62.8073 50.667 61.3327C50.667 59.858 51.8617 58.666 53.3337 58.666H58.667V53.3327C58.667 51.858 59.8617 50.666 61.3337 50.666C62.8057 50.666 64.0003 51.858 64.0003 53.3327V58.666H69.3337C70.8057 58.666 72.0003 59.858 72.0003 61.3327C72.0003 62.8073 70.8057 63.9993 69.3337 63.9993Z" fill="#C5BEBE"/>
<path fill-rule="evenodd" clip-rule="evenodd" d="M55.3864 27.0455C51.3773 27.0455 48.2273 23.8955 48.2273 19.8864V9.86364C48.2273 8.14545 47.0818 7 45.3636 7H22.4545C16.1545 7 11 12.1545 11 18.4545V58.5455C11 64.8455 16.1545 70 22.4545 70H38.4985C37.4641 67.2943 36.8975 64.3573 36.8975 61.2879C36.8975 58.31 37.4309 55.4566 38.4074 52.8182H28.1818C26.4636 52.8182 25.3182 51.6727 25.3182 49.9545C25.3182 48.2364 26.4636 47.0909 28.1818 47.0909H41.4499C43.0364 44.8767 44.9841 42.9388 47.2069 41.3636H28.1818C26.4636 41.3636 25.3182 40.2182 25.3182 38.5C25.3182 36.7818 26.4636 35.6364 28.1818 35.6364H51.0909C52.6435 35.6364 53.7285 36.5717 53.9231 38.0198C56.2506 37.2825 58.7292 36.8848 61.3006 36.8848C63.7233 36.8848 66.0636 37.2378 68.2727 37.8953V29.9091C68.2727 28.1909 67.1273 27.0455 65.4091 27.0455H55.3864Z" fill="#C5BEBE"/>
</g>
<defs>
<clipPath id="clip0_197_11644">
<rect width="80" height="80" fill="white"/>
</clipPath>
</defs>
</svg>
