<svg width="77" height="86" viewBox="0 0 77 86" fill="none" xmlns="http://www.w3.org/2000/svg">
<path d="M57.6667 48C47.3573 48 39 56.3573 39 66.6667C39 76.976 47.3573 85.3333 57.6667 85.3333C67.976 85.3333 76.3333 76.976 76.3333 66.6667C76.3333 56.3573 67.976 48 57.6667 48ZM65.6667 69.3333H60.3333V74.6667C60.3333 76.1413 59.1387 77.3333 57.6667 77.3333C56.1947 77.3333 55 76.1413 55 74.6667V69.3333H49.6667C48.1947 69.3333 47 68.1413 47 66.6667C47 65.192 48.1947 64 49.6667 64H55V58.6667C55 57.192 56.1947 56 57.6667 56C59.1387 56 60.3333 57.192 60.3333 58.6667V64H65.6667C67.1387 64 68.3333 65.192 68.3333 66.6667C68.3333 68.1413 67.1387 69.3333 65.6667 69.3333Z" fill="#C5BEBE"/>
<path fill-rule="evenodd" clip-rule="evenodd" d="M21.9155 21.0377C21.9155 22.6733 23.006 23.7638 24.6416 23.7638H35.546C37.1816 23.7638 38.272 22.6733 38.272 21.0377V8.17825C38.272 3.54391 34.7281 0 30.0938 0C25.4594 0 21.9155 3.54391 21.9155 8.17825V21.0377ZM6.76428 39.1667L7.4252 36.1C8.24417 31.6667 11.52 28.5 15.3419 28.5H44.8246C48.6465 28.5 51.9223 31.6667 53.0143 36.1L53.51 39.1667L53.8333 41.1667H51.8073H8.37916H6.33325L6.76428 39.1667ZM44.8246 30.5C47.424 30.5 50.0888 32.6992 51.0534 36.5026L51.484 39.1667H8.81021L9.38031 36.5214L9.38655 36.4924L9.39192 36.4633C10.083 32.7225 12.7231 30.5 15.3419 30.5H44.8246ZM5.28651 45.5725L0.106948 69.5621C-0.165666 70.3799 0.106948 71.1977 0.65216 71.743C1.19737 72.5608 2.01521 72.8334 2.83304 72.8334H13.7374V62.3696C13.7374 60.734 14.8278 59.6435 16.4635 59.6435C18.0991 59.6435 19.1896 60.734 19.1896 62.3696V72.8334H31.7139C31.2475 70.9659 31 69.0119 31 67C31 57.6385 36.3598 49.5289 44.1782 45.5725H5.28651Z" fill="#C5BEBE"/>
</svg>
