<svg width="80" height="80" viewBox="0 0 80 80" fill="none" xmlns="http://www.w3.org/2000/svg">
<g opacity="0.5" clip-path="url(#clip0_197_11651)">
<path d="M61.3337 42.666C51.0243 42.666 42.667 51.0233 42.667 61.3327C42.667 71.642 51.0243 79.9993 61.3337 79.9993C71.643 79.9993 80.0003 71.642 80.0003 61.3327C80.0003 51.0233 71.643 42.666 61.3337 42.666ZM69.3337 63.9993H64.0003V69.3327C64.0003 70.8073 62.8057 71.9993 61.3337 71.9993C59.8617 71.9993 58.667 70.8073 58.667 69.3327V63.9993H53.3337C51.8617 63.9993 50.667 62.8073 50.667 61.3327C50.667 59.858 51.8617 58.666 53.3337 58.666H58.667V53.3327C58.667 51.858 59.8617 50.666 61.3337 50.666C62.8057 50.666 64.0003 51.858 64.0003 53.3327V58.666H69.3337C70.8057 58.666 72.0003 59.858 72.0003 61.3327C72.0003 62.8073 70.8057 63.9993 69.3337 63.9993Z" fill="#C5BEBE"/>
<path fill-rule="evenodd" clip-rule="evenodd" d="M70.4043 37.0154L41.4675 7.62106C41.2754 7.42426 41.0468 7.26807 40.7949 7.16147C40.543 7.05488 40.2729 7 40 7C39.7271 7 39.457 7.05488 39.2051 7.16147C38.9532 7.26807 38.7246 7.42426 38.5325 7.62106L9.59566 37.0154C9.30886 37.3106 9.11457 37.6856 9.03733 38.0929C8.96008 38.5002 9.00332 38.9216 9.1616 39.3039C9.31666 39.6874 9.57999 40.0156 9.91838 40.2472C10.2568 40.4789 10.6551 40.6036 11.0632 40.6057H17.2639V67.9004C17.2639 68.4572 17.4817 68.9913 17.8693 69.385C18.2569 69.7788 18.7827 70 19.3308 70H35.8662C36.4143 70 36.9401 69.7788 37.3277 69.385C37.6949 69.012 37.9097 68.513 37.9313 67.988C37.3247 65.8591 37 63.6114 37 61.2879C37 47.8104 47.9257 36.8848 61.4032 36.8848C64.7996 36.8848 68.034 37.5786 70.9723 38.8324C71.012 38.5885 71.0092 38.3381 70.9627 38.0929C70.8854 37.6856 70.6911 37.3106 70.4043 37.0154Z" fill="#C5BEBE"/>
</g>
<defs>
<clipPath id="clip0_197_11651">
<rect width="80" height="80" fill="white"/>
</clipPath>
</defs>
</svg>
