<svg width="80" height="80" viewBox="0 0 80 80" fill="none" xmlns="http://www.w3.org/2000/svg">
<g opacity="0.5">
<path d="M37.3333 61.3334C37.3333 51.8961 42.792 43.7574 50.712 39.8347C51.8027 38.3147 52.8053 36.4401 52.992 34.7947C53.936 34.7227 55.4187 33.8561 55.856 30.4347C56.0907 28.5974 55.1573 27.5654 54.592 27.2401C54.592 27.2401 56 24.5654 56 21.3361C56 14.8614 53.4587 9.33606 48 9.33606C48 9.33606 46.104 5.33606 40 5.33606C28.688 5.33606 24 12.5921 24 21.3361C24 24.2801 25.408 27.2401 25.408 27.2401C24.8427 27.5654 23.9093 28.6001 24.144 30.4347C24.5813 33.8561 26.064 34.7227 27.008 34.7947C27.368 37.9867 30.8 42.0721 32 42.6667V48.0001C29.3333 56.0001 8 50.6667 8 69.3334H38.728C37.84 66.8267 37.3333 64.1441 37.3333 61.3334Z" fill="#C5BEBE"/>
<path d="M61.3334 42.6666C51.0241 42.6666 42.6667 51.024 42.6667 61.3333C42.6667 71.6426 51.0241 80 61.3334 80C71.6427 80 80.0001 71.6426 80.0001 61.3333C80.0001 51.024 71.6427 42.6666 61.3334 42.6666ZM69.3334 64H64.0001V69.3333C64.0001 70.808 62.8054 72 61.3334 72C59.8614 72 58.6667 70.808 58.6667 69.3333V64H53.3334C51.8614 64 50.6667 62.808 50.6667 61.3333C50.6667 59.8586 51.8614 58.6666 53.3334 58.6666H58.6667V53.3333C58.6667 51.8586 59.8614 50.6666 61.3334 50.6666C62.8054 50.6666 64.0001 51.8586 64.0001 53.3333V58.6666H69.3334C70.8054 58.6666 72.0001 59.8586 72.0001 61.3333C72.0001 62.808 70.8054 64 69.3334 64Z" fill="#C5BEBE"/>
</g>
</svg>
