<svg width="16" height="16" viewBox="0 0 16 16" fill="none" xmlns="http://www.w3.org/2000/svg">
<path fill-rule="evenodd" clip-rule="evenodd" d="M14.75 5.24997C14.2415 5.7585 13.9872 6.01276 13.6814 6.06917C13.5615 6.09129 13.4385 6.09129 13.3186 6.06917C13.0128 6.01276 12.7585 5.7585 12.25 5.24997L10.75 3.74997C10.2415 3.24144 9.98721 2.98718 9.9308 2.68136C9.90868 2.56144 9.90868 2.4385 9.9308 2.31859C9.98721 2.01276 10.2415 1.7585 10.75 1.24997V1.24997C11.2585 0.741444 11.5128 0.48718 11.8186 0.430773C11.9385 0.408656 12.0615 0.408656 12.1814 0.430773C12.4872 0.48718 12.7415 0.741444 13.25 1.24997L14.75 2.74997C15.2585 3.2585 15.5128 3.51276 15.5692 3.81859C15.5913 3.9385 15.5913 4.06144 15.5692 4.18136C15.5128 4.48718 15.2585 4.74144 14.75 5.24997V5.24997ZM2 16C1.05719 16 0.585786 16 0.292893 15.7071C0 15.4142 0 14.9428 0 14V12.8284C0 12.4196 0 12.2153 0.0761205 12.0315C0.152241 11.8477 0.296756 11.7032 0.585787 11.4142L7.08579 4.91418C7.75245 4.24752 8.08579 3.91418 8.5 3.91418C8.91421 3.91418 9.24755 4.24752 9.91421 4.91418L11.0858 6.08576C11.7525 6.75242 12.0858 7.08576 12.0858 7.49997C12.0858 7.91418 11.7525 8.24752 11.0858 8.91419L4.58579 15.4142C4.29676 15.7032 4.15224 15.8477 3.96847 15.9239C3.7847 16 3.58032 16 3.17157 16H2Z" fill="#C5BEBE"/>
</svg>
