<svg width="18" height="18" viewBox="0 0 18 18" fill="none" xmlns="http://www.w3.org/2000/svg">
<path fill-rule="evenodd" clip-rule="evenodd" d="M8.27504 0.974976H8.23609H8.23607C7.149 0.974968 6.27833 0.974962 5.57456 1.03246C4.85189 1.09151 4.22633 1.21564 3.65048 1.50904C2.72849 1.97882 1.97888 2.72843 1.50911 3.65042C1.2157 4.22627 1.09157 4.85183 1.03252 5.5745C0.975023 6.27826 0.975029 7.14894 0.975037 8.23601V8.23603V8.27498V9.72497V9.76392V9.76394C0.975029 10.851 0.975023 11.7217 1.03252 12.4255C1.09157 13.1481 1.2157 13.7737 1.50911 14.3495C1.97888 15.2715 2.72849 16.0211 3.65048 16.4909C4.22633 16.7843 4.85189 16.9084 5.57456 16.9675C6.27833 17.025 7.14901 17.025 8.23608 17.025H8.27504H9.72503H9.76399C10.8511 17.025 11.7217 17.025 12.4255 16.9675C13.1482 16.9084 13.7737 16.7843 14.3496 16.4909C15.2716 16.0211 16.0212 15.2715 16.491 14.3495C16.7844 13.7737 16.9085 13.1481 16.9675 12.4255C17.025 11.7217 17.025 10.851 17.025 9.76401V9.76393V9.72497V8.27498V8.23602V8.23594C17.025 7.1489 17.025 6.27825 16.9675 5.5745C16.9085 4.85183 16.7844 4.22627 16.491 3.65042C16.0212 2.72843 15.2716 1.97882 14.3496 1.50904C13.7737 1.21564 13.1482 1.09151 12.4255 1.03246C11.7217 0.974962 10.8511 0.974968 9.764 0.974976H9.76398H9.72503H8.27504ZM4.46767 3.11286C4.74747 2.97029 5.10978 2.87643 5.72113 2.82648C6.34299 2.77568 7.14008 2.77498 8.27504 2.77498H9.72503C10.86 2.77498 11.6571 2.77568 12.2789 2.82648C12.8903 2.87643 13.2526 2.97029 13.5324 3.11286C14.1157 3.41006 14.5899 3.8843 14.8872 4.46761C15.0297 4.74741 15.1236 5.10972 15.1735 5.72107C15.2243 6.34293 15.225 7.14002 15.225 8.27498V9.72497C15.225 10.0069 15.225 10.2679 15.2241 10.5106L14.3648 9.33466C13.5659 8.24137 11.9342 8.24137 11.1352 9.33466L9.74779 11.2333C9.07317 12.1564 7.71301 12.2064 6.9725 11.3352C6.26629 10.5044 4.98378 10.5044 4.27758 11.3352L2.91485 12.9384C2.87717 12.7553 2.84786 12.5398 2.82655 12.2789C2.77574 11.657 2.77504 10.8599 2.77504 9.72497V8.27498C2.77504 7.14002 2.77574 6.34293 2.82655 5.72107C2.87649 5.10972 2.97035 4.74741 3.11292 4.46761C3.41012 3.8843 3.88436 3.41006 4.46767 3.11286ZM7.87505 5.99997C7.87505 7.03551 7.03558 7.87497 6.00005 7.87497C4.96451 7.87497 4.12505 7.03551 4.12505 5.99997C4.12505 4.96444 4.96451 4.12497 6.00005 4.12497C7.03558 4.12497 7.87505 4.96444 7.87505 5.99997Z" fill="#F38434"/>
</svg>
