<svg width="223" height="235" viewBox="0 0 223 235" fill="none" xmlns="http://www.w3.org/2000/svg">
<path d="M195.906 202.84C155.337 245.651 93.0226 232.986 83.8116 230.951C72.2072 228.387 44.5986 222.287 23.9958 198.201C-7.54701 161.326 -4.3618 103.695 19.9988 64.8409C27.0868 53.5352 50.9408 19.9379 95.7358 12.6333C98.354 12.2065 145.13 5.34801 182.766 36.9271C187.841 41.185 196.032 48.8956 203.211 60.1231C225.48 94.9518 236.019 160.508 195.906 202.84Z" fill="#F4F4F4"/>
<path d="M30.952 25.8597C34.2926 60.0062 45.9756 177.779 52.158 219.188C52.8126 223.576 56.4064 226.606 60.3759 226.119C80.0075 223.711 151.88 214.075 183.668 207.474C190.289 206.1 194.86 199.239 194.104 191.787C190.467 155.962 179.834 55.2663 170.808 9.80344C169.726 4.3545 165.317 0.585186 160.312 0.822289C138.74 1.84774 66.08 7.53662 38.7005 13.9458C33.7609 15.102 30.4049 20.2755 30.952 25.8597Z" fill="#8B6F66"/>
<path d="M40.9398 34.8791C43.19 62.4708 50.8574 154.232 55.967 187.799C56.714 192.706 60.676 196.137 65.1236 195.719C83.4373 194.001 145.744 186.705 172.112 180.066C176.857 178.87 180.104 173.936 179.718 168.529C177.702 140.335 171.359 54.7662 166.338 21.5706C165.535 16.275 161.32 12.5193 156.512 12.8025C136.617 13.9747 70.1765 19.8179 47.6942 24.8173C43.474 25.7551 40.5483 30.1028 40.9398 34.8791Z" fill="#EFE6DB"/>
<path d="M86.3495 11.2045C86.472 12.185 87.2876 12.8841 88.2006 12.7956C92.7298 12.3562 105.487 11.1221 111.193 10.6034C112.319 10.5045 113.059 9.28766 112.701 8.14043L112.639 7.94469C112.394 7.16439 111.697 6.6509 110.928 6.69335C107.054 6.9055 95.3756 7.63807 87.7637 9.10981C86.8463 9.28602 86.2261 10.2159 86.3495 11.2045Z" fill="white" fill-opacity="0.69"/>
<path d="M62.5656 70.8943C57.4195 69.6563 55.7418 59.8642 57.5732 51.0023C59.4045 42.1404 179.794 32.5559 185.887 33.2889C191.979 34.022 194.683 54.9673 188.499 57.0497C182.315 59.1322 67.7117 72.1324 62.5656 70.8943Z" fill="white" stroke="black" stroke-opacity="0.07"/>
<path d="M79.1411 63.6882C79.1328 63.6891 79.1235 63.6902 79.1152 63.6911L69.5913 64.6458C68.2301 64.7818 67.006 63.9703 66.7416 62.7575L65.0276 54.8664C64.9274 54.4033 65.0215 53.9241 65.2935 53.5166C65.598 53.0615 66.0998 52.7409 66.6706 52.6383C67.4657 52.4953 68.5848 52.2748 69.7685 52.0418C72.2612 51.5507 75.3639 50.94 77.1233 50.7246C78.4015 50.5777 79.5687 51.2151 79.9926 52.295C80.6895 54.0728 81.0273 57.5463 81.3393 61.2523C81.4401 62.4558 80.4563 63.5436 79.1411 63.6882ZM66.8006 53.3624C66.4252 53.4299 66.0996 53.6357 65.9049 53.9256C65.7445 54.1656 65.6882 54.4445 65.7456 54.7098L67.4596 62.6009C67.644 63.4481 68.5284 64.0127 69.5172 63.9145L79.0411 62.9598C79.0473 62.9591 79.0535 62.9584 79.0597 62.9577C79.9821 62.8563 80.6734 62.1227 80.6055 61.3141C80.2987 57.6642 79.9674 54.2498 79.3068 52.5634C79.0109 51.8082 78.1408 51.3553 77.2119 51.4543C75.4784 51.6669 72.3902 52.2749 69.9098 52.7636C68.7229 52.9969 67.6018 53.2177 66.8006 53.3624Z" fill="#F08537" fill-opacity="0.32"/>
<path d="M68.458 55.2808C69.1192 54.7885 70.0553 54.9363 70.5329 55.6075L72.7796 58.7652C73.0042 59.0814 73.4931 59.0057 73.613 58.6369L77.1281 47.7626C77.3034 47.2199 78.0926 47.3104 78.1467 47.8782C78.4474 51.0527 78.2693 57.1705 73.759 62.7703C73.759 62.7703 70.8488 61.992 68.0584 57.304C67.6535 56.6258 67.8258 55.751 68.458 55.2808Z" fill="#F08537"/>
<path d="M86.9143 57.468C87.3048 58.4824 88.3327 59.1026 89.4126 58.9744L177.359 48.5465C178.354 48.4287 179.061 47.5193 178.93 46.5267C178.802 45.5611 177.929 44.8726 176.96 44.9748L88.884 54.2516C87.3286 54.4153 86.3532 56.0088 86.9143 57.468Z" fill="#B49A92"/>
<path d="M192.427 91.0909C197.182 88.7645 196.692 78.8418 192.979 70.5894C189.266 62.3371 69.6699 79.1357 63.882 81.1748C58.0942 83.2139 60.0056 104.246 66.4942 104.936C72.9828 105.625 187.673 93.4174 192.427 91.0909Z" fill="white" stroke="black" stroke-opacity="0.07"/>
<path d="M82.8855 97.7488C82.8772 97.7497 82.8679 97.7507 82.8596 97.7516L73.3357 98.7063C71.9745 98.8424 70.7504 98.0308 70.486 96.818L68.772 88.9269C68.6718 88.4638 68.7659 87.9846 69.0379 87.5771C69.3424 87.122 69.8442 86.8015 70.415 86.6989C71.2101 86.5559 72.3292 86.3353 73.5129 86.1024C76.0056 85.6112 79.1083 85.0006 80.8677 84.7851C82.1459 84.6383 83.3131 85.2757 83.737 86.3555C84.4338 88.1334 84.7717 91.6068 85.0836 95.3129C85.1845 96.5164 84.2006 97.6042 82.8855 97.7488ZM70.545 87.423C70.1696 87.4905 69.8439 87.6962 69.6493 87.9861C69.4889 88.2261 69.4325 88.505 69.49 88.7704L71.204 96.6615C71.3884 97.5086 72.2728 98.0732 73.2616 97.975L82.7855 97.0203C82.7917 97.0196 82.7979 97.0189 82.8041 97.0182C83.7265 96.9168 84.4178 96.1832 84.3499 95.3747C84.043 91.7247 83.7117 88.3103 83.0512 86.6239C82.7553 85.8688 81.8852 85.4159 80.9563 85.5148C79.2228 85.7274 76.1345 86.3354 73.6542 86.8242C72.4673 87.0575 71.3462 87.2783 70.545 87.423Z" fill="#F08537" fill-opacity="0.32"/>
<path d="M72.2023 89.3433C72.8635 88.851 73.7996 88.9988 74.2773 89.67L76.5239 92.8277C76.7486 93.1439 77.2374 93.0682 77.3573 92.6994L80.8724 81.8251C81.0477 81.2824 81.837 81.3729 81.891 81.9407C82.1917 85.1152 82.0137 91.233 77.5034 96.8328C77.5034 96.8328 74.5932 96.0545 71.8027 91.3665C71.3978 90.6883 71.5701 89.8135 72.2023 89.3433Z" fill="#F08537"/>
<path d="M90.6507 91.5295C91.0135 92.5469 91.9458 93.1776 92.9167 93.0614L171.989 83.6091C172.883 83.5024 173.51 82.6017 173.381 81.609C173.256 80.643 172.461 79.9458 171.59 80.0374L92.389 88.3385C90.9904 88.4849 90.1296 90.0659 90.6507 91.5295Z" fill="#B49A92"/>
<path d="M70.0541 139.012C64.908 137.773 63.2303 127.981 65.0616 119.12C66.893 110.258 187.282 100.673 193.375 101.406C199.468 102.139 202.171 123.084 195.987 125.167C189.803 127.249 75.2002 140.25 70.0541 139.012Z" fill="white" stroke="black" stroke-opacity="0.07"/>
<path d="M86.6296 131.805C86.6213 131.806 86.6119 131.807 86.6037 131.808L77.0798 132.763C75.7186 132.899 74.4945 132.087 74.23 130.875L72.516 122.984C72.4158 122.52 72.51 122.041 72.782 121.634C73.0865 121.179 73.5883 120.858 74.1591 120.756C74.9542 120.613 76.0732 120.392 77.257 120.159C79.7497 119.668 82.8523 119.057 84.6118 118.842C85.89 118.695 87.0572 119.332 87.4811 120.412C88.1779 122.19 88.5157 125.663 88.8277 129.37C88.9286 130.573 87.9447 131.661 86.6296 131.805ZM74.2891 121.48C73.9136 121.547 73.588 121.753 73.3933 122.043C73.233 122.283 73.1766 122.562 73.2341 122.827L74.9481 130.718C75.1325 131.565 76.0169 132.13 77.0057 132.032L86.5295 131.077C86.5358 131.076 86.542 131.076 86.5482 131.075C87.4706 130.973 88.1619 130.24 88.094 129.431C87.7871 125.781 87.4558 122.367 86.7953 120.681C86.4993 119.925 85.6293 119.472 84.7004 119.571C82.9669 119.784 79.8786 120.392 77.3982 120.881C76.2114 121.114 75.0902 121.335 74.2891 121.48Z" fill="#F08537" fill-opacity="0.32"/>
<path d="M75.9464 123.398C76.6076 122.906 77.5437 123.053 78.0213 123.725L80.268 126.882C80.4926 127.199 80.9815 127.123 81.1014 126.754L84.6165 115.88C84.7918 115.337 85.5811 115.428 85.6351 115.995C85.9358 119.17 85.7577 125.288 81.2474 130.887C81.2474 130.887 78.3372 130.109 75.5468 125.421C75.1419 124.743 75.3142 123.868 75.9464 123.398Z" fill="#F08537"/>
<path d="M94.4028 125.585C94.7933 126.6 95.8212 127.22 96.9011 127.092L184.848 116.664C185.843 116.546 186.549 115.636 186.418 114.644C186.291 113.678 185.417 112.99 184.449 113.092L96.3725 122.369C94.8171 122.532 93.8417 124.126 94.4028 125.585Z" fill="#B49A92"/>
<path d="M199.916 159.21C204.67 156.884 204.181 146.961 200.468 138.709C196.755 130.456 77.1585 147.255 71.3707 149.294C65.5828 151.333 67.4942 172.365 73.9829 173.055C80.4715 173.744 195.162 161.537 199.916 159.21Z" fill="white" stroke="black" stroke-opacity="0.07"/>
<path d="M90.3742 165.868C90.3659 165.869 90.3566 165.87 90.3483 165.871L80.8244 166.825C79.4632 166.961 78.2391 166.15 77.9747 164.937L76.2607 157.046C76.1605 156.583 76.2546 156.104 76.5266 155.696C76.8311 155.241 77.3329 154.921 77.9037 154.818C78.6988 154.675 79.8179 154.454 81.0016 154.222C83.4943 153.73 86.597 153.12 88.3564 152.904C89.6346 152.757 90.8018 153.395 91.2257 154.475C91.9226 156.253 92.2604 159.726 92.5723 163.432C92.6732 164.636 91.6893 165.723 90.3742 165.868ZM78.0337 155.542C77.6583 155.61 77.3326 155.815 77.138 156.105C76.9776 156.345 76.9213 156.624 76.9787 156.89L78.6927 164.781C78.8771 165.628 79.7615 166.192 80.7503 166.094L90.2742 165.139C90.2804 165.139 90.2866 165.138 90.2928 165.137C91.2152 165.036 91.9065 164.302 91.8386 163.494C91.5318 159.844 91.2004 156.429 90.5399 154.743C90.244 153.988 89.3739 153.535 88.445 153.634C86.7115 153.847 83.6233 154.455 81.1429 154.943C79.956 155.177 78.8349 155.397 78.0337 155.542Z" fill="#F08537" fill-opacity="0.32"/>
<path d="M79.691 157.462C80.3522 156.97 81.2883 157.118 81.766 157.789L84.0127 160.947C84.2373 161.263 84.7261 161.187 84.846 160.819L88.3611 149.944C88.5364 149.402 89.3257 149.492 89.3797 150.06C89.6804 153.234 89.5024 159.352 84.9921 164.952C84.9921 164.952 82.0819 164.174 79.2914 159.486C78.8865 158.807 79.0588 157.933 79.691 157.462Z" fill="#F08537"/>
<path d="M98.1509 159.647C98.5534 160.66 99.6226 161.276 100.75 161.143L192.527 150.294C193.565 150.171 194.306 149.258 194.174 148.265C194.046 147.3 193.138 146.615 192.128 146.722L100.22 156.42C98.5975 156.591 97.5726 158.19 98.1509 159.647Z" fill="#B49A92"/>
</svg>
