<svg width="24" height="24" viewBox="0 0 24 24" fill="none" xmlns="http://www.w3.org/2000/svg">
<path fill-rule="evenodd" clip-rule="evenodd" d="M14.3459 2.93248C13.8432 0.355843 10.1568 0.355843 9.65409 2.93247C9.34821 4.50039 7.6199 5.3327 6.20334 4.59427C3.87544 3.38077 1.57696 6.26297 3.27804 8.26248C4.31317 9.47921 3.88632 11.3494 2.42578 11.9965C0.0256031 13.0599 0.845921 16.654 3.46981 16.5707C5.06648 16.52 6.2625 18.0198 5.8578 19.5651C5.19273 22.1047 8.51413 23.7042 10.085 21.6008C11.0409 20.3209 12.9591 20.3209 13.915 21.6008C15.4859 23.7042 18.8073 22.1047 18.1422 19.5651C17.7375 18.0198 18.9335 16.52 20.5302 16.5707C23.1541 16.654 23.9744 13.0599 21.5742 11.9965C20.1137 11.3494 19.6868 9.47921 20.722 8.26248C22.423 6.26297 20.1246 3.38077 17.7967 4.59427C16.3801 5.3327 14.6518 4.50039 14.3459 2.93248ZM12 15.5822C13.8583 15.5822 15.3647 14.0757 15.3647 12.2175C15.3647 10.3592 13.8583 8.85275 12 8.85275C10.1417 8.85275 8.63529 10.3592 8.63529 12.2175C8.63529 14.0757 10.1417 15.5822 12 15.5822Z" fill="#F38434"/>
<circle cx="12" cy="12" r="3" fill="#E16205" stroke="white" stroke-width="2"/>
</svg>
