<svg width="200" height="148" viewBox="0 0 200 148" fill="none" xmlns="http://www.w3.org/2000/svg">
<path opacity="0.35" d="M167.943 66.3807C167.943 101.993 139.074 130.862 103.461 130.862C67.849 130.862 38.9795 101.993 38.9795 66.3807C38.9795 30.7684 67.849 1.89893 103.461 1.89893C139.074 1.89893 167.943 30.7684 167.943 66.3807Z" stroke="#E5E3E2" stroke-width="2"/>
<g filter="url(#filter0_d_245_6039)">
<ellipse cx="103.461" cy="66.3808" rx="45.8372" ry="45.8372" fill="white"/>
</g>
<path d="M88.1821 66.3807L99.0958 77.2943L120.923 55.467" stroke="#E17425" stroke-width="4" stroke-linecap="round" stroke-linejoin="round"/>
<path d="M187.233 105.973C187.451 104.907 188.975 104.907 189.193 105.973L190.081 110.319C190.161 110.711 190.468 111.018 190.861 111.098L195.207 111.987C196.273 112.205 196.273 113.728 195.207 113.946L190.861 114.834C190.468 114.915 190.161 115.221 190.081 115.614L189.193 119.96C188.975 121.026 187.451 121.026 187.233 119.96L186.345 115.614C186.265 115.221 185.958 114.915 185.566 114.834L181.22 113.946C180.154 113.728 180.154 112.205 181.22 111.987L185.566 111.098C185.958 111.018 186.265 110.711 186.345 110.319L187.233 105.973Z" fill="#F38434"/>
<path opacity="0.25" d="M23.9033 120.94C24.1213 119.874 25.6449 119.874 25.8628 120.94L26.5288 124.199C26.6091 124.591 26.9158 124.898 27.3083 124.978L30.5667 125.644C31.6331 125.862 31.6331 127.386 30.5667 127.604L27.3083 128.27C26.9158 128.35 26.6091 128.657 26.5288 129.049L25.8628 132.308C25.6449 133.374 24.1213 133.374 23.9033 132.308L23.2374 129.049C23.1571 128.657 22.8504 128.35 22.4579 128.27L19.1995 127.604C18.1331 127.386 18.1331 125.862 19.1995 125.644L22.4579 124.978C22.8504 124.898 23.1571 124.591 23.2374 124.199L23.9033 120.94Z" fill="#F38434"/>
<path opacity="0.25" d="M188.45 16.9178C188.668 15.8515 190.191 15.8515 190.409 16.9178L190.964 19.6326C191.044 20.0251 191.351 20.3318 191.744 20.412L194.458 20.9669C195.525 21.1849 195.525 22.7085 194.458 22.9264L191.744 23.4813C191.351 23.5615 191.044 23.8682 190.964 24.2608L190.409 26.9755C190.191 28.0418 188.668 28.0418 188.45 26.9755L187.895 24.2608C187.815 23.8682 187.508 23.5615 187.115 23.4813L184.401 22.9264C183.334 22.7085 183.334 21.1849 184.401 20.9669L187.115 20.412C187.508 20.3318 187.815 20.0251 187.895 19.6326L188.45 16.9178Z" fill="#F38434"/>
<path d="M10.807 18.7887C11.0249 17.7224 12.5485 17.7224 12.7665 18.7887L13.6547 23.1345C13.7349 23.527 14.0417 23.8337 14.4342 23.914L18.78 24.8022C19.8463 25.0202 19.8463 26.5438 18.78 26.7617L14.4342 27.6499C14.0417 27.7302 13.7349 28.0369 13.6547 28.4294L12.7665 32.7752C12.5485 33.8416 11.0249 33.8416 10.807 32.7752L9.91873 28.4294C9.83851 28.0369 9.53176 27.7302 9.13924 27.6499L4.79346 26.7617C3.72713 26.5438 3.72713 25.0202 4.79346 24.8022L9.13924 23.914C9.53176 23.8337 9.83851 23.527 9.91873 23.1345L10.807 18.7887Z" fill="#F38434"/>
<defs>
<filter id="filter0_d_245_6039" x="32.624" y="5.54358" width="141.674" height="141.674" filterUnits="userSpaceOnUse" color-interpolation-filters="sRGB">
<feFlood flood-opacity="0" result="BackgroundImageFix"/>
<feColorMatrix in="SourceAlpha" type="matrix" values="0 0 0 0 0 0 0 0 0 0 0 0 0 0 0 0 0 0 127 0" result="hardAlpha"/>
<feOffset dy="10"/>
<feGaussianBlur stdDeviation="12.5"/>
<feComposite in2="hardAlpha" operator="out"/>
<feColorMatrix type="matrix" values="0 0 0 0 0.266667 0 0 0 0 0.239216 0 0 0 0 0.219608 0 0 0 0.15 0"/>
<feBlend mode="normal" in2="BackgroundImageFix" result="effect1_dropShadow_245_6039"/>
<feBlend mode="normal" in="SourceGraphic" in2="effect1_dropShadow_245_6039" result="shape"/>
</filter>
</defs>
</svg>
