<svg width="42" height="40" viewBox="0 0 42 20" fill="none" xmlns="http://www.w3.org/2000/svg">
<g filter="url(#filter0_d_55_11065)">
<path d="M35 6.53105C35 5.59456 34.6313 4.69642 33.9749 4.03422C33.3185 3.37202 32.4283 3 31.5 3H10.5C9.57174 3 8.6815 3.37202 8.02513 4.03422C7.36875 4.69642 7 5.59456 7 6.53105L7 20.6553C7 21.5918 7.36875 22.4899 8.02513 23.1521C8.6815 23.8143 9.57174 24.1863 10.5 24.1863H27.2755C27.7396 24.1864 28.1846 24.3725 28.5128 24.7036L33.5055 29.7407C33.6278 29.8643 33.7837 29.9486 33.9534 29.9829C34.1232 30.0171 34.2992 29.9998 34.4593 29.9331C34.6193 29.8663 34.756 29.7532 34.8523 29.608C34.9486 29.4628 35 29.2921 35 29.1174V6.53105ZM15.75 13.5932C15.75 14.0614 15.5656 14.5105 15.2374 14.8416C14.9092 15.1727 14.4641 15.3587 14 15.3587C13.5359 15.3587 13.0908 15.1727 12.7626 14.8416C12.4344 14.5105 12.25 14.0614 12.25 13.5932C12.25 13.1249 12.4344 12.6758 12.7626 12.3447C13.0908 12.0136 13.5359 11.8276 14 11.8276C14.4641 11.8276 14.9092 12.0136 15.2374 12.3447C15.5656 12.6758 15.75 13.1249 15.75 13.5932V13.5932ZM22.75 13.5932C22.75 14.0614 22.5656 14.5105 22.2374 14.8416C21.9092 15.1727 21.4641 15.3587 21 15.3587C20.5359 15.3587 20.0908 15.1727 19.7626 14.8416C19.4344 14.5105 19.25 14.0614 19.25 13.5932C19.25 13.1249 19.4344 12.6758 19.7626 12.3447C20.0908 12.0136 20.5359 11.8276 21 11.8276C21.4641 11.8276 21.9092 12.0136 22.2374 12.3447C22.5656 12.6758 22.75 13.1249 22.75 13.5932ZM28 15.3587C27.5359 15.3587 27.0908 15.1727 26.7626 14.8416C26.4344 14.5105 26.25 14.0614 26.25 13.5932C26.25 13.1249 26.4344 12.6758 26.7626 12.3447C27.0908 12.0136 27.5359 11.8276 28 11.8276C28.4641 11.8276 28.9092 12.0136 29.2374 12.3447C29.5656 12.6758 29.75 13.1249 29.75 13.5932C29.75 14.0614 29.5656 14.5105 29.2374 14.8416C28.9092 15.1727 28.4641 15.3587 28 15.3587Z" fill="#F38434"/>
</g>
<defs>
<filter id="filter0_d_55_11065" x="0" y="0" width="42" height="41" filterUnits="userSpaceOnUse" color-interpolation-filters="sRGB">
<feFlood flood-opacity="0" result="BackgroundImageFix"/>
<feColorMatrix in="SourceAlpha" type="matrix" values="0 0 0 0 0 0 0 0 0 0 0 0 0 0 0 0 0 0 127 0" result="hardAlpha"/>
<feOffset dy="4"/>
<feGaussianBlur stdDeviation="3.5"/>
<feComposite in2="hardAlpha" operator="out"/>
<feColorMatrix type="matrix" values="0 0 0 0 0.266667 0 0 0 0 0.239216 0 0 0 0 0.219608 0 0 0 0.17 0"/>
<feBlend mode="normal" in2="BackgroundImageFix" result="effect1_dropShadow_55_11065"/>
<feBlend mode="normal" in="SourceGraphic" in2="effect1_dropShadow_55_11065" result="shape"/>
</filter>
</defs>
</svg>
