<svg width="14" height="16" viewBox="0 0 14 16" fill="none" xmlns="http://www.w3.org/2000/svg">
<path fill-rule="evenodd" clip-rule="evenodd" d="M10.15 11.0255C10.15 11.4586 9.79567 11.813 9.36254 11.813C8.92942 11.813 8.57504 11.4586 8.57504 11.0255V7.87551C8.57504 7.44239 8.92942 7.08801 9.36254 7.08801C9.79567 7.08801 10.15 7.44239 10.15 7.87551V11.0255ZM5.42496 1.83313C5.42496 1.71107 5.59348 1.57483 5.81871 1.57483H8.18121C8.40643 1.57483 8.57496 1.71107 8.57496 1.83313V3.14983H5.42496V1.83313ZM5.42513 11.0255C5.42513 11.4586 5.07075 11.813 4.63763 11.813C4.2045 11.813 3.85013 11.4586 3.85013 11.0255V7.87551C3.85013 7.44239 4.2045 7.08801 4.63763 7.08801C5.07075 7.08801 5.42513 7.44239 5.42513 7.87551V11.0255ZM13.2125 3.15H13.3H10.15V1.8333C10.15 0.82215 9.26721 0 8.18125 0H5.81875C4.73279 0 3.85 0.82215 3.85 1.8333V3.15H0.7H0.7875C0.354375 3.15 0 3.50437 0 3.9375C0 4.37063 0.354375 4.725 0.7875 4.725H0.7V13.3875C0.7 14.69 1.75997 15.75 3.0625 15.75H10.9375C12.24 15.75 13.3 14.69 13.3 13.3875V4.725H13.2125C13.6456 4.725 14 4.37063 14 3.9375C14 3.50437 13.6456 3.15 13.2125 3.15Z" fill="#C5BEBE"/>
</svg>
