<svg width="22" height="22" viewBox="0 0 22 22" fill="none" xmlns="http://www.w3.org/2000/svg">
<path fill-rule="evenodd" clip-rule="evenodd" d="M13.3459 1.93248C12.8432 -0.644157 9.15676 -0.644157 8.65409 1.93247C8.34821 3.50039 6.6199 4.3327 5.20334 3.59427C2.87544 2.38077 0.576962 5.26297 2.27804 7.26248C3.31317 8.47921 2.88632 10.3494 1.42578 10.9965C-0.974397 12.0599 -0.154079 15.654 2.46981 15.5707C4.06648 15.52 5.2625 17.0198 4.8578 18.5651C4.19273 21.1047 7.51413 22.7042 9.08498 20.6008C10.0409 19.3209 11.9591 19.3209 12.915 20.6008C14.4859 22.7042 17.8073 21.1047 17.1422 18.5651C16.7375 17.0198 17.9335 15.52 19.5302 15.5707C22.1541 15.654 22.9744 12.0599 20.5742 10.9965C19.1137 10.3494 18.6868 8.47921 19.722 7.26248C21.423 5.26297 19.1246 2.38077 16.7967 3.59427C15.3801 4.3327 13.6518 3.50039 13.3459 1.93248ZM11 14.5822C12.8583 14.5822 14.3647 13.0757 14.3647 11.2175C14.3647 9.35918 12.8583 7.85275 11 7.85275C9.14172 7.85275 7.63529 9.35918 7.63529 11.2175C7.63529 13.0757 9.14172 14.5822 11 14.5822Z" fill="#C5BEBE"/>
</svg>
