<svg width="23" height="20" viewBox="0 0 23 20" fill="none" xmlns="http://www.w3.org/2000/svg">
<path fill-rule="evenodd" clip-rule="evenodd" d="M19.7339 6.11111C19.7339 7.82689 18.3385 9.22222 16.6228 9.22222C14.907 9.22222 13.5116 7.82689 13.5116 6.11111C13.5116 4.39533 14.907 3 16.6228 3C18.3385 3 19.7339 4.39533 19.7339 6.11111ZM11.1782 16.2222C11.1782 13.2278 13.6085 10.7905 16.5992 10.7778V10.7778L16.6076 10.7778L16.6227 10.7778V10.7778C19.6134 10.7906 22.0436 13.2279 22.0436 16.2222C22.0436 16.6516 21.6959 17 21.2658 17H16.5992V17H11.956C11.5259 17 11.1782 16.6516 11.1782 16.2222Z" fill="#E16205"/>
<path fill-rule="evenodd" clip-rule="evenodd" d="M12.1001 4.4C12.1001 6.8266 10.1267 8.8 7.70009 8.8C5.27349 8.8 3.30009 6.8266 3.30009 4.4C3.30009 1.9734 5.27349 0 7.70009 0C10.1267 0 12.1001 1.9734 12.1001 4.4ZM0 18.7C0 14.4651 3.43709 11.018 7.66678 11.0001V11L7.68339 11L7.7 11V11.0001C11.9297 11.018 15.3668 14.4651 15.3668 18.7C15.3668 19.3072 14.8751 19.8 14.2668 19.8H7.7H7.66678H1.1C0.4917 19.8 0 19.3072 0 18.7Z" fill="#F38434"/>
</svg>
